<svg width="701" height="629" viewBox="0 0 701 629" fill="none" xmlns="http://www.w3.org/2000/svg">
<path d="M150.155 263.612C158.96 243.686 149.945 220.396 130.02 211.592C110.095 202.787 86.8045 211.802 77.9999 231.727C69.1952 251.652 78.2102 274.942 98.1353 283.747C118.06 292.552 141.351 283.537 150.155 263.612Z" stroke="#263238" stroke-linecap="round" stroke-linejoin="round"/>
<path d="M119.183 279.977C137.016 277.162 149.19 260.424 146.375 242.592C143.56 224.76 126.822 212.585 108.99 215.4C91.1577 218.215 78.9835 234.953 81.7983 252.785C84.6131 270.618 101.351 282.792 119.183 279.977Z" stroke="#263238" stroke-linecap="round" stroke-linejoin="round"/>
<path d="M93.2427 247.69H114.084V277.765" stroke="#263238" stroke-linecap="round" stroke-linejoin="round"/>
<path d="M279.376 15.818L273.045 0H170.262V15.818V66.6493V438.286H572.381V15.818H279.376Z" fill="#A3A3A3"/>
<path d="M564.473 25.9843H175.897V433.772H564.473V25.9843Z" fill="white"/>
<path d="M564.473 25.9843H175.897V42.9224H564.473V25.9843Z" fill="#1E376C"/>
<path d="M447.043 60.6581H304.902C303.479 60.6581 302.069 60.9388 300.754 61.484C299.439 62.0292 298.245 62.8284 297.239 63.8356C296.234 64.8429 295.436 66.0386 294.893 67.3543C294.35 68.67 294.072 70.0799 294.074 71.5033V129.717L306.888 116.14H447.043C448.47 116.14 449.883 115.858 451.201 115.311C452.519 114.764 453.716 113.962 454.724 112.951C455.731 111.941 456.529 110.741 457.072 109.421C457.615 108.102 457.893 106.688 457.888 105.261V71.5033C457.888 68.627 456.745 65.8685 454.712 63.8346C452.678 61.8008 449.919 60.6581 447.043 60.6581Z" fill="#A3A3A3"/>
<path d="M323.079 99.7278C331.496 99.7278 338.32 92.9042 338.32 84.4869C338.32 76.0696 331.496 69.246 323.079 69.246C314.661 69.246 307.838 76.0696 307.838 84.4869C307.838 92.9042 314.661 99.7278 323.079 99.7278Z" fill="white"/>
<path d="M330.767 83.4516C330.767 83.4516 332.362 81.3131 332.719 83.4516C333.075 85.5901 329.986 88.2377 329.986 88.2377L330.767 83.4516Z" fill="white" stroke="#263238" stroke-linecap="round" stroke-linejoin="round"/>
<path d="M315.441 83.4516C315.441 83.4516 313.846 81.3131 313.49 83.4516C313.133 85.5901 316.222 88.2377 316.222 88.2377L315.441 83.4516Z" fill="white" stroke="#263238" stroke-linecap="round" stroke-linejoin="round"/>
<path d="M323.639 73.0138C323.639 73.0138 317.614 72.5386 316.222 76.561C315.267 80.4177 315.267 84.449 316.222 88.3056C316.68 89.5446 320.55 95.5697 321.636 96.0449C322.318 96.2749 323.039 96.3649 323.756 96.3095C324.474 96.254 325.173 96.0544 325.811 95.7224C326.269 95.1114 330.139 89.3919 330.444 87.3892C330.555 84.4352 330.498 81.4773 330.275 78.5297C330.22 77.4905 329.872 76.4879 329.271 75.638C328.67 74.7881 327.842 74.1255 326.88 73.7266C325.847 73.3094 324.751 73.0685 323.639 73.0138Z" fill="white" stroke="#263238" stroke-linecap="round" stroke-linejoin="round"/>
<path d="M330.275 78.4618C330.22 77.4225 329.872 76.42 329.271 75.5701C328.671 74.7202 327.842 74.0575 326.88 73.6587C325.847 73.2415 324.752 73.0006 323.639 72.9459C323.639 72.9459 317.614 72.4707 316.222 76.4931C315.565 78.785 315.335 81.1782 315.543 83.5534C315.832 83.9098 316.85 84.9791 316.697 83.5534C316.545 82.1278 316.341 77.155 317.58 76.1027C318.819 75.0504 319.005 74.1339 320.771 75.5596C322.536 76.9852 322.383 78.2242 324.165 77.2568C325.947 76.2894 326.303 74.4055 327.899 75.1183C329.494 75.8311 328.968 79.2086 328.968 80.8039C328.968 82.3993 328.968 85.4204 330.037 84.0117C330.233 83.7087 330.392 83.3841 330.513 83.0443C330.445 81.4998 330.343 79.8026 330.275 78.4618Z" fill="#263238" stroke="#263238" stroke-linecap="round" stroke-linejoin="round"/>
<path d="M347.298 73.6078H378.866" stroke="white" stroke-width="2" stroke-linecap="round" stroke-linejoin="round"/>
<path d="M347.298 84.6057H443.92" stroke="white" stroke-linecap="round" stroke-linejoin="round"/>
<path d="M347.298 93.6857H443.92" stroke="white" stroke-linecap="round" stroke-linejoin="round"/>
<path d="M347.298 103.733H443.92" stroke="white" stroke-linecap="round" stroke-linejoin="round"/>
<path d="M447.043 289.424H304.902C303.479 289.422 302.07 289.701 300.756 290.244C299.441 290.788 298.246 291.585 297.24 292.591C296.234 293.597 295.437 294.791 294.893 296.106C294.35 297.421 294.072 298.83 294.074 300.253V358.467L306.888 344.889H447.043C449.916 344.889 452.672 343.749 454.706 341.719C456.739 339.688 457.884 336.934 457.888 334.061V300.253C457.888 298.829 457.607 297.42 457.062 296.105C456.517 294.79 455.718 293.596 454.711 292.59C453.703 291.584 452.508 290.787 451.192 290.244C449.876 289.701 448.466 289.422 447.043 289.424Z" fill="#A3A3A3"/>
<path d="M336.337 323.137C342.482 317.329 342.755 307.64 336.947 301.495C331.139 295.35 321.449 295.077 315.305 300.885C309.16 306.693 308.887 316.383 314.695 322.528C320.503 328.672 330.192 328.945 336.337 323.137Z" fill="white"/>
<path d="M330.767 312.201C330.767 312.201 332.362 310.062 332.719 312.201C333.075 314.339 329.986 317.004 329.986 317.004L330.767 312.201Z" fill="white" stroke="#263238" stroke-linecap="round" stroke-linejoin="round"/>
<path d="M315.441 312.201C315.441 312.201 313.846 310.062 313.49 312.201C313.133 314.339 316.222 317.004 316.222 317.004L315.441 312.201Z" fill="white" stroke="#263238" stroke-linecap="round" stroke-linejoin="round"/>
<path d="M323.639 301.695C323.639 301.695 317.614 301.237 316.222 305.242C315.267 309.105 315.267 313.142 316.222 317.004C316.68 318.226 320.55 324.268 321.636 324.726C322.317 324.955 323.037 325.046 323.754 324.993C324.471 324.941 325.17 324.746 325.811 324.421C326.269 323.793 330.139 318.073 330.444 316.071C330.555 313.117 330.498 310.159 330.275 307.211C330.216 306.173 329.866 305.172 329.266 304.323C328.666 303.474 327.839 302.81 326.88 302.408C325.845 301.999 324.75 301.758 323.639 301.695Z" fill="white" stroke="#263238" stroke-linecap="round" stroke-linejoin="round"/>
<path d="M330.275 307.228C330.216 306.19 329.866 305.189 329.266 304.34C328.666 303.491 327.839 302.827 326.88 302.425C325.845 302.016 324.751 301.775 323.639 301.712C323.639 301.712 317.614 301.254 316.222 305.259C315.565 307.551 315.335 309.945 315.543 312.32C315.832 312.676 316.85 313.762 316.697 312.32C316.545 310.877 316.341 305.921 317.58 304.852C318.819 303.783 319.005 302.9 320.771 304.309C322.536 305.718 322.383 306.991 324.165 306.091C325.947 305.192 326.303 303.257 327.899 303.97C329.494 304.682 328.968 308.043 328.968 309.655C328.968 311.267 328.968 314.272 330.037 312.846C330.236 312.545 330.396 312.22 330.513 311.879C330.445 310.317 330.343 308.569 330.275 307.228Z" fill="#263238" stroke="#263238" stroke-linecap="round" stroke-linejoin="round"/>
<path d="M347.298 302.357H378.866" stroke="white" stroke-width="2" stroke-linecap="round" stroke-linejoin="round"/>
<path d="M347.298 313.355H443.92" stroke="white" stroke-linecap="round" stroke-linejoin="round"/>
<path d="M347.298 322.452H443.92" stroke="white" stroke-linecap="round" stroke-linejoin="round"/>
<path d="M347.298 332.5H443.92" stroke="white" stroke-linecap="round" stroke-linejoin="round"/>
<path d="M522.382 214.136H380.292C377.42 214.136 374.666 215.277 372.635 217.308C370.604 219.339 369.463 222.093 369.463 224.965V258.773C369.463 261.645 370.604 264.399 372.635 266.43C374.666 268.46 377.42 269.601 380.292 269.601H520.464L533.278 283.179V224.965C533.278 223.537 532.995 222.123 532.447 220.805C531.899 219.487 531.095 218.29 530.082 217.284C529.07 216.277 527.868 215.481 526.546 214.941C525.225 214.401 523.809 214.127 522.382 214.136Z" fill="#A3A3A3"/>
<path d="M398.486 253.206C406.903 253.206 413.726 246.383 413.726 237.965C413.726 229.548 406.903 222.724 398.486 222.724C390.068 222.724 383.245 229.548 383.245 237.965C383.245 246.383 390.068 253.206 398.486 253.206Z" fill="white"/>
<path d="M406.157 236.913C406.157 236.913 407.855 234.791 408.109 236.913C408.364 239.034 405.394 241.716 405.394 241.716L406.157 236.913Z" fill="white" stroke="#263238" stroke-linecap="round" stroke-linejoin="round"/>
<path d="M390.848 236.913C390.848 236.913 389.253 234.791 388.897 236.913C388.54 239.034 391.697 241.716 391.697 241.716L390.848 236.913Z" fill="white" stroke="#263238" stroke-linecap="round" stroke-linejoin="round"/>
<path d="M399.046 226.407C399.046 226.407 393.021 225.949 391.629 229.954C390.665 233.816 390.665 237.855 391.629 241.716C392.087 242.938 395.957 248.98 397.026 249.438C397.708 249.667 398.428 249.758 399.144 249.705C399.861 249.653 400.56 249.458 401.201 249.133C401.676 248.505 405.529 242.785 405.835 240.783C405.962 237.829 405.905 234.87 405.665 231.923C405.61 230.884 405.262 229.881 404.661 229.031C404.061 228.181 403.232 227.519 402.271 227.12C401.242 226.709 400.152 226.468 399.046 226.407Z" fill="white" stroke="#263238" stroke-linecap="round" stroke-linejoin="round"/>
<path d="M405.665 231.923C405.61 230.884 405.262 229.881 404.661 229.031C404.061 228.181 403.232 227.519 402.27 227.12C401.241 226.709 400.152 226.468 399.046 226.407C399.046 226.407 393.021 225.949 391.629 229.954C390.975 232.247 390.739 234.639 390.933 237.015C391.239 237.371 392.24 238.457 392.087 237.1C391.917 235.402 391.731 230.701 392.987 229.632C394.243 228.563 394.395 227.68 396.177 229.106C397.96 230.531 397.773 231.77 399.572 230.803C401.371 229.836 401.71 227.969 403.306 228.681C404.901 229.394 404.375 232.755 404.375 234.367C404.375 235.979 404.375 238.983 405.427 237.558C405.633 237.261 405.793 236.935 405.902 236.59C405.835 235.046 405.75 233.281 405.665 231.923Z" fill="#263238" stroke="#263238" stroke-linecap="round" stroke-linejoin="round"/>
<path d="M392.986 229.632C393.669 230.634 394.558 231.478 395.595 232.108C396.631 232.737 397.79 233.137 398.994 233.281C400.14 233.515 401.322 233.516 402.468 233.282C403.614 233.049 404.701 232.587 405.664 231.923C405.664 231.923 407.599 231.923 407.599 229.632C407.599 227.341 408.244 228.308 404.952 228.308C401.659 228.308 393.869 222.164 392.986 229.632Z" fill="#263238" stroke="#263238" stroke-linecap="round" stroke-linejoin="round"/>
<path d="M398.248 237.897H392.257L392.902 239.883C392.962 240.07 393.08 240.232 393.239 240.348C393.397 240.464 393.588 240.527 393.784 240.528H396.873C397.081 240.526 397.283 240.455 397.446 240.326C397.608 240.197 397.724 240.017 397.773 239.815L398.248 237.897Z" fill="white" stroke="#263238" stroke-linecap="round" stroke-linejoin="round"/>
<path d="M404.884 237.897H398.893L399.538 239.883C399.599 240.07 399.717 240.232 399.875 240.348C400.033 240.464 400.224 240.527 400.421 240.528H403.577C403.786 240.529 403.989 240.459 404.153 240.33C404.316 240.2 404.431 240.019 404.477 239.815L404.884 237.897Z" fill="white" stroke="#263238" stroke-linecap="round" stroke-linejoin="round"/>
<path d="M422.688 227.069H454.256" stroke="white" stroke-width="2" stroke-linecap="round" stroke-linejoin="round"/>
<path d="M422.688 238.067H519.31" stroke="white" stroke-linecap="round" stroke-linejoin="round"/>
<path d="M422.688 247.164H519.31" stroke="white" stroke-linecap="round" stroke-linejoin="round"/>
<path d="M422.688 257.211H519.31" stroke="white" stroke-linecap="round" stroke-linejoin="round"/>
<path d="M449.062 140.563H306.921C304.045 140.563 301.286 141.705 299.253 143.739C297.219 145.773 296.076 148.531 296.076 151.408V209.622L308.89 196.044H449.062C451.934 196.044 454.688 194.903 456.719 192.873C458.75 190.842 459.89 188.088 459.89 185.216V151.408C459.893 149.984 459.614 148.574 459.071 147.259C458.528 145.943 457.731 144.747 456.725 143.74C455.719 142.733 454.525 141.934 453.21 141.388C451.895 140.843 450.486 140.563 449.062 140.563Z" fill="#1E376C"/>
<path d="M326.938 183.618C335.239 182.223 340.837 174.363 339.442 166.062C338.047 157.761 330.187 152.163 321.886 153.558C313.585 154.953 307.987 162.813 309.382 171.114C310.777 179.415 318.637 185.013 326.938 183.618Z" fill="white"/>
<path d="M322.502 157.008C321.78 156.715 321.007 156.571 320.228 156.584C319.449 156.597 318.681 156.767 317.969 157.084C317.258 157.401 316.617 157.858 316.087 158.428C315.556 158.999 315.146 159.67 314.881 160.403C312.794 165.919 315.408 173.522 315.408 176.662C315.408 179.802 318.564 182.45 321.976 182.704C325.387 182.959 329.851 183.485 332.464 179.31C335.078 175.135 334.043 165.936 332.991 160.641C331.938 155.345 326.168 156.737 322.502 157.008Z" fill="white" stroke="#263238" stroke-linecap="round" stroke-linejoin="round"/>
<path d="M332.091 167.531C332.091 167.531 333.788 165.393 334.06 167.531C334.331 169.67 331.327 172.334 331.327 172.334L332.091 167.531Z" fill="white" stroke="#263238" stroke-linecap="round" stroke-linejoin="round"/>
<path d="M316.782 167.531C316.782 167.531 315.187 165.393 314.83 167.531C314.474 169.67 317.563 172.334 317.563 172.334L316.782 167.531Z" fill="white" stroke="#263238" stroke-linecap="round" stroke-linejoin="round"/>
<path d="M324.979 157.025C324.979 157.025 318.954 156.567 317.563 160.573C316.599 164.434 316.599 168.473 317.563 172.334C318.021 173.556 321.89 179.598 322.96 180.057C323.641 180.285 324.361 180.376 325.078 180.324C325.795 180.271 326.494 180.077 327.135 179.751C327.61 179.123 331.463 173.404 331.785 171.401C331.895 168.447 331.839 165.489 331.615 162.541C331.554 161.504 331.204 160.504 330.604 159.655C330.004 158.806 329.179 158.142 328.221 157.738C327.187 157.325 326.092 157.084 324.979 157.025Z" fill="white" stroke="#263238" stroke-linecap="round" stroke-linejoin="round"/>
<path d="M320.414 158.587C320.414 158.587 330.156 167.531 332.108 167.531C334.06 167.531 334.314 160.946 332.227 157.789C330.139 154.632 320.143 152.782 320.414 158.587Z" fill="white" stroke="#263238" stroke-linecap="round" stroke-linejoin="round"/>
<path d="M347.434 152.494H379.002" stroke="#263238" stroke-width="2" stroke-linecap="round" stroke-linejoin="round"/>
<path d="M347.434 163.492H444.056" stroke="#263238" stroke-linecap="round" stroke-linejoin="round"/>
<path d="M347.434 172.572H444.056" stroke="#263238" stroke-linecap="round" stroke-linejoin="round"/>
<path d="M347.434 182.619H444.056" stroke="#263238" stroke-linecap="round" stroke-linejoin="round"/>
<path d="M278.493 58.4178H218.412V429.868H278.493V58.4178Z" fill="#1E376C"/>
<path d="M260.398 179.013C267.907 171.503 267.907 159.328 260.398 151.818C252.888 144.309 240.713 144.309 233.203 151.818C225.694 159.328 225.694 171.503 233.203 179.013C240.713 186.522 252.888 186.522 260.398 179.013Z" fill="white"/>
<path d="M244.396 150.814C244.396 150.814 237.437 148.166 234.79 155.125C232.142 162.083 235.452 171.672 235.452 175.644C235.452 179.615 239.423 182.925 243.734 183.264C248.045 183.604 253.663 184.249 256.972 178.953C260.282 173.658 258.958 162.066 257.634 155.447C256.31 148.828 249.029 150.474 244.396 150.814Z" fill="white" stroke="#263238" stroke-linecap="round" stroke-linejoin="round"/>
<path d="M256.498 164.086C256.498 164.086 258.517 161.404 258.975 164.086C259.434 166.767 255.581 170.145 255.581 170.145L256.498 164.086Z" fill="white" stroke="#263238" stroke-linecap="round" stroke-linejoin="round"/>
<path d="M237.251 164.086C237.251 164.086 235.231 161.404 234.773 164.086C234.315 166.767 238.168 170.145 238.168 170.145L237.251 164.086Z" fill="white" stroke="#263238" stroke-linecap="round" stroke-linejoin="round"/>
<path d="M247.519 150.831C247.519 150.831 239.916 150.254 238.151 155.311C236.386 160.369 237.574 168.583 238.151 170.145C238.728 171.706 243.616 179.31 244.94 179.887C246.263 180.464 249.624 180.277 250.218 179.496C250.812 178.716 255.683 171.503 256.056 168.974C256.232 165.274 256.186 161.568 255.92 157.874C255.846 156.563 255.404 155.299 254.644 154.227C253.885 153.156 252.839 152.32 251.627 151.815C250.32 151.266 248.933 150.933 247.519 150.831Z" fill="white" stroke="#263238" stroke-linecap="round" stroke-linejoin="round"/>
<path d="M241.749 152.782C241.749 152.782 254.037 164.069 256.498 164.069C258.959 164.069 259.281 155.77 256.633 151.781C253.986 147.793 241.409 145.518 241.749 152.782Z" fill="white" stroke="#263238" stroke-linecap="round" stroke-linejoin="round"/>
<path d="M251.212 119.561C261.551 117.132 267.963 106.782 265.534 96.4438C263.106 86.1051 252.756 79.6929 242.417 82.1216C232.078 84.5503 225.666 94.9003 228.095 105.239C230.524 115.578 240.874 121.99 251.212 119.561Z" fill="white"/>
<path d="M256.498 99.5411C256.498 99.5411 258.517 96.8425 258.975 99.5411C259.434 102.24 255.581 105.583 255.581 105.583L256.498 99.5411Z" fill="white" stroke="#263238" stroke-linecap="round" stroke-linejoin="round"/>
<path d="M237.251 99.5411C237.251 99.5411 235.231 96.8425 234.773 99.5411C234.315 102.24 238.168 105.583 238.168 105.583L237.251 99.5411Z" fill="white" stroke="#263238" stroke-linecap="round" stroke-linejoin="round"/>
<path d="M247.519 86.2859C247.519 86.2859 239.916 85.6919 238.151 90.7665C236.386 95.8412 237.574 104.022 238.151 105.583C238.728 107.145 243.616 114.748 244.94 115.342C246.263 115.936 249.624 115.732 250.218 114.952C250.812 114.171 255.683 106.958 256.056 104.412C256.213 100.689 256.145 96.9595 255.853 93.2444C255.782 91.9321 255.341 90.6665 254.581 89.5942C253.822 88.5219 252.774 87.6868 251.559 87.1854C250.271 86.6646 248.906 86.3606 247.519 86.2859Z" fill="white" stroke="#263238" stroke-linecap="round" stroke-linejoin="round"/>
<path d="M255.92 93.2444C255.85 91.9321 255.409 90.6665 254.649 89.5942C253.889 88.5219 252.841 87.6868 251.626 87.1854C250.328 86.6609 248.951 86.3569 247.553 86.2859C247.553 86.2859 239.949 85.6919 238.184 90.7665C237.36 93.6601 237.067 96.6789 237.319 99.6769C237.709 100.118 239.016 101.476 238.778 99.6769C238.558 97.6572 238.337 91.6151 239.898 90.2574C241.46 88.8996 241.697 87.7964 243.938 89.5954C246.178 91.3945 245.957 92.9899 248.198 91.8358C250.438 90.6817 250.879 88.2377 252.899 89.1372C254.919 90.0367 254.257 94.2288 254.257 96.3164C254.257 98.404 254.257 102.138 255.598 100.356C255.846 99.9747 256.045 99.5642 256.192 99.1337C256.09 97.165 255.92 94.9416 255.92 93.2444Z" fill="#263238" stroke="#263238" stroke-linecap="round" stroke-linejoin="round"/>
<path d="M246.806 248.827C257.426 248.827 266.035 240.218 266.035 229.598C266.035 218.978 257.426 210.369 246.806 210.369C236.186 210.369 227.577 218.978 227.577 229.598C227.577 240.218 236.186 248.827 246.806 248.827Z" fill="white"/>
<path d="M256.498 228.274C256.498 228.274 258.517 225.593 258.975 228.274C259.434 230.956 255.581 234.333 255.581 234.333L256.498 228.274Z" fill="white" stroke="#263238" stroke-linecap="round" stroke-linejoin="round"/>
<path d="M237.251 228.274C237.251 228.274 235.231 225.593 234.773 228.274C234.315 230.956 238.168 234.333 238.168 234.333L237.251 228.274Z" fill="white" stroke="#263238" stroke-linecap="round" stroke-linejoin="round"/>
<path d="M247.519 215.019C247.519 215.019 239.916 214.425 238.151 219.5C236.386 224.574 237.574 232.772 238.151 234.333C238.728 235.895 243.616 243.498 244.94 244.075C246.263 244.652 249.624 244.465 250.218 243.685C250.812 242.904 255.683 235.691 256.056 233.162C256.213 229.433 256.145 225.698 255.853 221.977C255.782 220.665 255.341 219.4 254.581 218.327C253.822 217.255 252.774 216.42 251.559 215.918C250.269 215.405 248.905 215.102 247.519 215.019Z" fill="white" stroke="#263238" stroke-linecap="round" stroke-linejoin="round"/>
<path d="M255.92 221.977C255.85 220.665 255.409 219.4 254.649 218.327C253.889 217.255 252.841 216.42 251.626 215.918C250.326 215.402 248.95 215.098 247.553 215.019C247.553 215.019 239.949 214.425 238.184 219.5C237.361 222.393 237.068 225.412 237.319 228.41C237.709 228.851 239.016 230.226 238.778 228.495C238.558 226.492 238.337 220.433 239.899 219.092C241.46 217.751 241.698 216.614 243.938 218.413C246.178 220.212 245.958 221.808 248.198 220.654C250.438 219.5 250.879 217.073 252.899 217.972C254.919 218.872 254.257 223.064 254.257 225.134C254.257 227.205 254.257 230.973 255.598 229.174C255.843 228.797 256.042 228.392 256.192 227.969C256.09 225.915 255.92 223.692 255.92 221.977Z" fill="#263238" stroke="#263238" stroke-linecap="round" stroke-linejoin="round"/>
<path d="M239.865 219.092C241.684 221.499 244.342 223.133 247.311 223.667C250.281 224.202 253.342 223.599 255.886 221.978C255.886 221.978 258.296 221.978 258.296 219.092C258.296 216.207 259.145 217.395 254.902 217.395C250.659 217.395 240.985 209.673 239.865 219.092Z" fill="#263238" stroke="#263238" stroke-linecap="round" stroke-linejoin="round"/>
<path d="M246.518 229.53H238.948L239.746 232.025C239.825 232.259 239.975 232.462 240.177 232.606C240.378 232.749 240.619 232.825 240.866 232.823H244.753C245.013 232.823 245.267 232.737 245.473 232.577C245.679 232.417 245.826 232.193 245.89 231.94L246.518 229.53Z" fill="white" stroke="#263238" stroke-linecap="round" stroke-linejoin="round"/>
<path d="M254.885 229.53H247.333L248.13 232.025C248.211 232.258 248.362 232.459 248.563 232.602C248.764 232.745 249.004 232.822 249.25 232.823H253.154C253.413 232.825 253.666 232.739 253.87 232.579C254.073 232.418 254.216 232.193 254.274 231.94L254.885 229.53Z" fill="white" stroke="#263238" stroke-linecap="round" stroke-linejoin="round"/>
<path d="M234.502 129.633H259.247" stroke="#263238" stroke-width="2" stroke-linecap="round" stroke-linejoin="round"/>
<path d="M234.502 192.887H259.247" stroke="#263238" stroke-width="2" stroke-linecap="round" stroke-linejoin="round"/>
<path d="M234.502 256.159H259.247" stroke="#263238" stroke-width="2" stroke-linecap="round" stroke-linejoin="round"/>
<path d="M70.925 379.919C70.925 379.919 70.925 374.03 62.6935 365.782C54.4621 357.533 49.1159 352.832 49.1159 352.832C49.1159 352.832 44.9917 366.41 52.6461 374.624C58.2872 380.418 64.4013 385.732 70.925 390.51V379.919Z" fill="#1E376C"/>
<path d="M59.0446 416.681C59.0446 416.681 59.0446 410.792 50.8131 402.56C42.5817 394.329 37.2355 389.594 37.2355 389.594C37.2355 389.594 33.1113 403.171 40.7657 411.386C46.4068 417.179 52.5209 422.493 59.0446 427.271V416.681Z" fill="#1E376C"/>
<path d="M70.4498 389.95C70.4498 389.95 71.0607 384.095 80.1408 376.763C89.2208 369.431 94.9574 365.324 94.9574 365.324C94.9574 365.324 97.639 379.224 89.153 386.606C82.9429 391.773 76.312 396.411 69.3296 400.473L70.4498 389.95Z" fill="#1E376C"/>
<path d="M55.9896 433.364C55.9896 433.364 57.2285 427.611 67.0214 421.28C76.8143 414.95 82.9751 411.454 82.9751 411.454C82.9751 411.454 84.1632 425.557 74.9474 432.007C68.2299 436.491 61.1507 440.408 53.7832 443.717L55.9896 433.364Z" fill="#1E376C"/>
<path d="M58.7051 480.7C58.7051 480.7 58.7051 474.81 66.9535 466.579C75.2019 458.347 80.5311 453.612 80.5311 453.612C80.5311 453.612 84.6554 467.19 77.001 475.404C71.3667 481.199 65.2582 486.513 58.739 491.29L58.7051 480.7Z" fill="#1E376C"/>
<path d="M58.5692 492.224C58.5692 492.224 59.4178 486.385 52.4253 477.068C45.4328 467.75 40.8673 462.319 40.8673 462.319C40.8673 462.319 34.8592 475.133 41.2577 484.383C46.0109 490.922 51.3019 497.053 57.0757 502.712L58.5692 492.224Z" fill="#1E376C"/>
<path d="M50.4399 526.507C50.4399 526.507 50.4399 520.618 58.6884 512.369C66.9368 504.121 72.266 499.42 72.266 499.42C72.266 499.42 76.3902 512.997 68.7358 521.195C63.1046 526.998 56.9958 532.318 50.4739 537.098L50.4399 526.507Z" fill="#1E376C"/>
<path d="M55.9558 557.549C55.9558 557.549 54.4622 551.846 60.3515 541.799C66.2408 531.752 70.1614 525.828 70.1614 525.828C70.1614 525.828 77.5782 537.895 72.2659 547.79C68.3054 554.827 63.7637 561.52 58.6883 567.8L55.9558 557.549Z" fill="#1E376C"/>
<path d="M71.7056 378.409C71.2962 384.539 70.5425 390.642 69.4483 396.688C66.1897 413.524 58.0431 424.335 54.7845 439.61C51.5258 454.885 60.8944 474.403 58.3825 493.921C55.8707 513.439 48.1993 524.301 50.4396 537.335C52.6799 550.37 64.0173 585.655 64.0173 585.655" stroke="#263238" stroke-width="0.5" stroke-linecap="round" stroke-linejoin="round"/>
<path d="M70.3647 393.854L79.2411 387.031" stroke="#263238" stroke-width="0.5" stroke-linecap="round" stroke-linejoin="round"/>
<path d="M70.7721 386.012L67.0552 379.393" stroke="#263238" stroke-width="0.5" stroke-linecap="round" stroke-linejoin="round"/>
<path d="M55.2769 438.88C55.2769 438.88 62.7276 433.314 70.365 427.73" stroke="#263238" stroke-width="0.5" stroke-linecap="round" stroke-linejoin="round"/>
<path d="M59.0446 427.272C55.3373 420.11 50.9132 413.343 45.8403 407.075" stroke="#263238" stroke-width="0.5" stroke-linecap="round" stroke-linejoin="round"/>
<path d="M59.0444 489.067C63.2849 481.244 68.642 474.08 74.9473 467.801" stroke="#263238" stroke-width="0.5" stroke-linecap="round" stroke-linejoin="round"/>
<path d="M57.5509 497.315C55.2958 492.01 52.605 486.901 49.5061 482.04C45.1613 475.625 44.5503 474.81 44.5503 474.81" stroke="#263238" stroke-width="0.5" stroke-linecap="round" stroke-linejoin="round"/>
<path d="M50.4399 537.318C52.3264 532.629 54.5676 528.09 57.1439 523.741C59.7229 519.734 62.6294 515.947 65.8336 512.42" stroke="#263238" stroke-width="0.5" stroke-linecap="round" stroke-linejoin="round"/>
<path d="M58.6369 567.8C58.2089 563.335 58.9762 558.836 60.8602 554.766C63.9661 548.774 67.4793 540.916 68.9219 537.794" stroke="#263238" stroke-width="0.5" stroke-linecap="round" stroke-linejoin="round"/>
<path d="M16.9876 458.568C16.9876 458.568 16.3597 454.868 20.6197 448.809C24.8796 442.75 27.714 439.22 27.714 439.22C27.714 439.22 31.7703 447.265 27.8667 453.256C24.965 457.482 21.7118 461.457 18.1417 465.136L16.9876 458.568Z" fill="#1E376C"/>
<path d="M28.4943 480.343C28.4943 480.343 27.8663 476.66 32.1433 470.601C36.4202 464.542 39.2206 461.012 39.2206 461.012C39.2206 461.012 43.2769 469.057 39.3734 475.048C36.4666 479.271 33.2137 483.245 29.6484 486.928L28.4943 480.343Z" fill="#1E376C"/>
<path d="M18.4132 464.797C18.4132 464.797 17.3779 461.182 10.8946 457.584C4.41129 453.985 0.35496 452.017 0.35496 452.017C0.35496 452.017 0.185243 461.012 6.31215 464.729C10.7657 467.298 15.4267 469.489 20.2462 471.28L18.4132 464.797Z" fill="#1E376C"/>
<path d="M32.1777 490.526C32.1777 490.526 30.786 487.132 23.9632 484.128C17.1405 481.124 12.8975 479.698 12.8975 479.698C12.8975 479.698 13.6782 488.676 20.1445 491.731C24.8492 493.829 29.7199 495.532 34.7065 496.823L32.1777 490.526Z" fill="#1E376C"/>
<path d="M35.6232 520.431C35.6232 520.431 34.9783 516.731 28.8344 512.471C22.6905 508.211 19.0246 505.801 19.0246 505.801C19.0246 505.801 17.9044 514.729 23.59 519.073C27.7479 522.098 32.1536 524.767 36.7604 527.05L35.6232 520.431Z" fill="#1E376C"/>
<path d="M36.981 527.661C36.981 527.661 35.81 524.097 39.1874 517.478C42.5649 510.859 44.8391 506.972 44.8391 506.972C44.8391 506.972 49.9307 514.355 46.9776 520.856C44.7107 525.472 42.0594 529.889 39.0516 534.06L36.981 527.661Z" fill="#1E376C"/>
<path d="M47.2999 557.43C47.2999 557.43 47.7242 553.713 53.5456 549.097C59.367 544.481 63.033 541.901 63.033 541.901C63.033 541.901 64.7302 550.76 59.2312 555.478C55.2471 558.731 51.0009 561.649 46.5361 564.202L47.2999 557.43Z" fill="#1E376C"/>
<path d="M45.7726 548.231C45.7726 548.231 45.1277 544.549 38.9838 540.272C32.8399 535.995 29.0891 533.619 29.0891 533.619C29.0891 533.619 27.969 542.563 33.6716 546.891C37.8286 549.922 42.2344 552.596 46.8419 554.885L45.7726 548.231Z" fill="#1E376C"/>
<path d="M45.6874 568.326C45.6874 568.326 46.0099 564.592 41.2237 558.924C36.4376 553.255 33.3317 549.929 33.3317 549.929C33.3317 549.929 29.9373 558.296 34.401 563.931C37.663 567.911 41.2508 571.612 45.1273 574.996L45.6874 568.326Z" fill="#1E376C"/>
<path d="M16.3599 457.702C17.2883 461.5 18.4214 465.245 19.7543 468.921C23.6239 479.104 29.9375 485.044 33.6035 494.226C37.2694 503.408 33.6035 516.697 37.2525 528.68C40.9015 540.662 46.8926 546.636 46.9435 555.037C46.9944 563.438 43.7697 586.809 43.7697 586.809" stroke="#263238" stroke-width="0.5" stroke-linecap="round" stroke-linejoin="round"/>
<path d="M18.8888 467.241L12.5752 463.931" stroke="#263238" stroke-width="0.5" stroke-linecap="round" stroke-linejoin="round"/>
<path d="M17.7686 462.353L19.3809 457.804" stroke="#263238" stroke-width="0.5" stroke-linecap="round" stroke-linejoin="round"/>
<path d="M33.2296 493.921C33.2296 493.921 27.9513 491.239 22.5542 488.558" stroke="#263238" stroke-width="0.5" stroke-linecap="round" stroke-linejoin="round"/>
<path d="M29.6318 486.962C31.1779 482.066 33.2195 477.34 35.7248 472.858" stroke="#263238" stroke-width="0.5" stroke-linecap="round" stroke-linejoin="round"/>
<path d="M36.3362 525.709C32.8265 521.269 28.6935 517.359 24.0654 514.1" stroke="#263238" stroke-width="0.5" stroke-linecap="round" stroke-linejoin="round"/>
<path d="M38.1519 530.733C38.9852 527.158 40.1207 523.661 41.5463 520.278C43.5659 515.798 43.8714 515.187 43.8714 515.187" stroke="#263238" stroke-width="0.5" stroke-linecap="round" stroke-linejoin="round"/>
<path d="M46.6548 561.419C48.7072 558.877 50.9788 556.52 53.4436 554.375C55.0134 553.215 56.489 551.933 57.8564 550.54" stroke="#263238" stroke-width="0.5" stroke-linecap="round" stroke-linejoin="round"/>
<path d="M46.9432 555.02C45.2557 552.288 43.3606 549.689 41.2745 547.247C39.2211 545.011 36.9905 542.945 34.6045 541.069" stroke="#263238" stroke-width="0.5" stroke-linecap="round" stroke-linejoin="round"/>
<path d="M45.1275 575.047C44.9132 572.196 43.9405 569.454 42.3101 567.104C39.7134 563.71 36.6584 559.144 35.4194 557.362" stroke="#263238" stroke-width="0.5" stroke-linecap="round" stroke-linejoin="round"/>
<path d="M26.7974 582.736H80.7515V622.264C80.7515 623.614 80.2151 624.909 79.2602 625.864C78.3054 626.819 77.0103 627.355 75.6599 627.355H32.0078C30.6574 627.355 29.3623 626.819 28.4075 625.864C27.4526 624.909 26.9162 623.614 26.9162 622.264V582.736H26.7974Z" fill="#263238"/>
<path d="M80.2931 589.779H26.7972C25.6882 589.766 24.6289 589.317 23.8478 588.529C23.0667 587.742 22.6265 586.679 22.6221 585.57C22.6175 584.455 23.0538 583.383 23.8358 582.589C24.6179 581.794 25.6823 581.34 26.7972 581.327H80.2931C80.8481 581.329 81.3972 581.441 81.9091 581.655C82.421 581.87 82.8856 582.183 83.2764 582.577C83.6673 582.971 83.9767 583.438 84.187 583.951C84.3974 584.465 84.5044 585.015 84.5022 585.57C84.4977 586.685 84.0529 587.753 83.2645 588.541C82.4761 589.33 81.4081 589.775 80.2931 589.779Z" fill="#263238"/>
<path d="M586.994 393.497H503.712C497.518 393.497 497.297 394.244 497.297 399.879V510.316H593.376V399.879C593.41 394.244 593.189 393.497 586.994 393.497Z" fill="#1E376C" stroke="#263238" stroke-linecap="round" stroke-linejoin="round"/>
<path d="M548.23 541.392H540.525V603.611H548.23V541.392Z" fill="#263238"/>
<path d="M552.847 553.527H535.892V605.156H552.847V553.527Z" fill="#263238"/>
<path d="M571.346 527.509H517.392V546.008H571.346V527.509Z" fill="#263238"/>
<path d="M489.015 628C491.096 628 492.783 626.313 492.783 624.232C492.783 622.151 491.096 620.464 489.015 620.464C486.934 620.464 485.247 622.151 485.247 624.232C485.247 626.313 486.934 628 489.015 628Z" fill="#263238"/>
<path d="M603.491 624.232C603.491 623.487 603.27 622.758 602.856 622.139C602.442 621.519 601.854 621.036 601.165 620.751C600.477 620.466 599.719 620.391 598.988 620.537C598.257 620.682 597.586 621.041 597.059 621.568C596.532 622.095 596.173 622.766 596.028 623.497C595.883 624.228 595.957 624.986 596.242 625.674C596.528 626.362 597.01 626.951 597.63 627.365C598.25 627.779 598.978 628 599.723 628C600.723 628 601.681 627.603 602.388 626.896C603.094 626.19 603.491 625.231 603.491 624.232Z" fill="#263238"/>
<path d="M535.892 605.156L484.806 617.359V620.906L543.767 616.035V604.935L535.892 605.156Z" fill="#263238"/>
<path d="M552.847 605.156L603.95 617.359V620.906L544.972 616.035V604.935L552.847 605.156Z" fill="#263238"/>
<path d="M544.582 628C544.223 628 543.867 627.929 543.536 627.792C543.204 627.655 542.903 627.453 542.649 627.2C542.396 626.946 542.194 626.645 542.057 626.313C541.92 625.982 541.849 625.626 541.849 625.267V613.896C541.849 613.17 542.136 612.473 542.648 611.958C543.16 611.443 543.855 611.151 544.582 611.147C545.308 611.151 546.003 611.443 546.515 611.958C547.027 612.473 547.314 613.17 547.314 613.896V625.267C547.314 625.626 547.243 625.982 547.106 626.313C546.969 626.645 546.768 626.946 546.514 627.2C546.26 627.453 545.959 627.655 545.627 627.792C545.296 627.929 544.94 628 544.582 628Z" fill="#263238"/>
<path d="M540.508 621.788H548.638V604.935H540.508V621.788Z" fill="#263238"/>
<path d="M594.054 502.169H496.363C494.254 502.169 492.544 503.879 492.544 505.988V525.591C492.544 527.7 494.254 529.409 496.363 529.409H594.054C596.163 529.409 597.873 527.7 597.873 525.591V505.988C597.873 503.879 596.163 502.169 594.054 502.169Z" fill="#1E376C" stroke="#263238" stroke-linecap="round" stroke-linejoin="round"/>
<path d="M515.814 465.798L509.5 478.51L526.421 501.677H574.639L586.044 482.159L580.443 465.798H515.814Z" fill="#263238" stroke="#263238" stroke-linecap="round" stroke-linejoin="round"/>
<path d="M509.5 478.51C509.5 478.51 500.148 484.382 497.959 494.006C496.89 498.724 506.19 515.306 511.536 517.088C516.628 518.785 545.209 498.554 545.209 498.554" fill="#263238"/>
<path d="M509.5 478.51C509.5 478.51 500.148 484.382 497.959 494.006C496.89 498.724 506.19 515.306 511.536 517.088C516.628 518.785 545.209 498.554 545.209 498.554" stroke="#263238" stroke-linecap="round" stroke-linejoin="round"/>
<path d="M511.621 483.449C511.621 483.449 500.589 481.752 497.84 489.712C495.922 495.296 498.434 511.775 499.062 513.659C499.69 515.543 510.365 607.006 510.365 607.006H525.402L530.494 491.596" fill="#263238"/>
<path d="M511.621 483.449C511.621 483.449 500.589 481.752 497.84 489.712C495.922 495.296 498.434 511.775 499.062 513.659C499.69 515.543 510.365 607.006 510.365 607.006H525.402L530.494 491.596" stroke="#263238" stroke-linecap="round" stroke-linejoin="round"/>
<path d="M510.365 607.006L508.668 614.015L492.171 623.91C492.171 623.91 492.698 627.033 495.192 627.033H523.773C524.3 627.047 524.824 626.947 525.309 626.739C525.793 626.531 526.226 626.22 526.578 625.827C526.931 625.435 527.193 624.971 527.347 624.467C527.502 623.962 527.545 623.431 527.473 622.908L525.471 606.938L510.365 607.006Z" fill="white" stroke="#263238" stroke-linecap="round" stroke-linejoin="round"/>
<path d="M492.256 624.13C492.426 624.826 493.122 627.033 495.226 627.033H523.807C524.64 627.03 525.446 626.739 526.089 626.21C526.732 625.681 527.173 624.947 527.338 624.13H492.256Z" fill="white" stroke="#263238" stroke-linecap="round" stroke-linejoin="round"/>
<path d="M508.702 614.015C512.715 613.76 516.743 614.034 520.684 614.83" stroke="#263238" stroke-linecap="round" stroke-linejoin="round"/>
<path d="M519.819 620.515L514.999 626.625" stroke="#263238" stroke-linecap="round" stroke-linejoin="round"/>
<path d="M583.481 478.51C583.481 478.51 592.833 484.382 595.022 494.006C596.091 498.724 586.791 515.306 581.445 517.088C576.353 518.785 547.772 498.554 547.772 498.554" fill="#263238"/>
<path d="M583.481 478.51C583.481 478.51 592.833 484.382 595.022 494.006C596.091 498.724 586.791 515.306 581.445 517.088C576.353 518.785 547.772 498.554 547.772 498.554" stroke="#263238" stroke-linecap="round" stroke-linejoin="round"/>
<path d="M581.292 483.449C581.292 483.449 592.324 481.752 595.073 489.712C596.991 495.296 594.479 511.775 593.851 513.659C593.223 515.543 582.548 607.006 582.548 607.006H567.511L562.504 491.596" fill="#263238"/>
<path d="M581.292 483.449C581.292 483.449 592.324 481.752 595.073 489.712C596.991 495.296 594.479 511.775 593.851 513.659C593.223 515.543 582.548 607.006 582.548 607.006H567.511L562.504 491.596" stroke="#263238" stroke-linecap="round" stroke-linejoin="round"/>
<path d="M582.548 607.005L584.245 614.015L600.742 623.91C600.742 623.91 600.216 627.032 597.721 627.032H569.106C568.594 627.031 568.088 626.922 567.621 626.711C567.155 626.501 566.738 626.194 566.398 625.811C566.058 625.428 565.803 624.977 565.65 624.489C565.496 624 565.448 623.485 565.508 622.976L567.51 607.005H582.548Z" fill="white" stroke="#263238" stroke-linecap="round" stroke-linejoin="round"/>
<path d="M600.657 624.13C600.487 624.826 599.791 627.033 597.687 627.033H569.106C568.273 627.03 567.467 626.739 566.824 626.21C566.181 625.681 565.74 624.947 565.576 624.13H600.657Z" fill="white" stroke="#263238" stroke-linecap="round" stroke-linejoin="round"/>
<path d="M584.211 614.015C580.198 613.76 576.17 614.034 572.229 614.83" stroke="#263238" stroke-linecap="round" stroke-linejoin="round"/>
<path d="M573.094 620.515L577.914 626.625" stroke="#263238" stroke-linecap="round" stroke-linejoin="round"/>
<path d="M557.208 365.357L555.325 366.308L538.403 365.867L536.604 367.428V366.308L534.72 365.357L500.912 381.09L515.814 465.798H580.443L590.711 381.09L557.208 365.357Z" fill="white" stroke="#263238" stroke-linecap="round" stroke-linejoin="round"/>
<path d="M533.821 362.37C533.821 362.37 526.879 367.038 526.879 368.497C526.879 369.957 525.895 385.469 525.895 385.469L534.653 382.55L546.533 392.733L558.074 382.991L568.783 385.435L565.389 367.428L552.253 358.67L533.821 362.37Z" fill="white" stroke="#263238" stroke-linecap="round" stroke-linejoin="round"/>
<path d="M590.711 381.091L620.276 431.209L598.128 433.755L586.417 417.411L590.711 381.091Z" fill="white" stroke="#263238" stroke-linecap="round" stroke-linejoin="round"/>
<path d="M501.234 381.091L471.839 431.209L493.987 433.755L510.875 414.746L501.234 381.091Z" fill="white" stroke="#263238" stroke-linecap="round" stroke-linejoin="round"/>
<path d="M559.025 372.774L546.482 392.835L534.211 372.774V343.514H559.025V372.774Z" fill="white" stroke="#263238" stroke-linecap="round" stroke-linejoin="round"/>
<path d="M531.513 335.741C531.513 335.741 526.913 334.536 527.371 337.761C527.83 340.986 529.221 346.977 531.513 348.351L533.821 349.726L531.513 335.741Z" fill="white" stroke="#263238" stroke-linecap="round" stroke-linejoin="round"/>
<path d="M562.334 335.741C562.334 335.741 566.934 334.536 566.475 337.761C566.017 340.986 564.625 346.977 562.334 348.351L560.026 349.726L562.334 335.741Z" fill="white" stroke="#263238" stroke-linecap="round" stroke-linejoin="round"/>
<path d="M564.489 330.395C564.348 325.851 562.443 321.54 559.178 318.376C555.914 315.211 551.546 313.442 546.999 313.442C542.453 313.442 538.085 315.211 534.821 318.376C531.556 321.54 529.651 325.851 529.51 330.395C529.514 332.209 529.795 334.012 530.341 335.741L534.805 356.685L542.935 368.09H550.776L558.668 358.161L563.488 336.233C564.152 334.359 564.491 332.384 564.489 330.395Z" fill="white" stroke="#263238" stroke-linecap="round" stroke-linejoin="round"/>
<path d="M560.739 329.02C559.75 331.207 559.126 333.54 558.889 335.928C559.279 338.781 560.056 341.567 561.197 344.21C561.197 344.21 566.713 332.703 566.288 328.562C565.864 324.421 560.263 327.595 560.739 329.02Z" fill="#263238" stroke="#263238" stroke-linecap="round" stroke-linejoin="round"/>
<path d="M531.733 343.294C531.733 343.294 531.733 342.564 531.852 341.495C532.107 338.525 532.803 332.788 534.5 331.787C536.791 330.395 536.554 323.131 536.554 323.131C536.554 323.131 533.346 326.763 544.395 330.446C555.443 334.129 564.405 332.703 570.396 324.879C576.387 317.055 570.854 311.522 569.938 314.289C569.021 317.055 567.171 320.738 563.946 317.971C560.722 315.205 555.664 309.689 546.465 309.689C537.266 309.689 533.108 317.971 533.108 317.971C531.628 318.689 530.372 319.797 529.475 321.176C528.578 322.555 528.074 324.152 528.017 325.796C528.051 331.311 531.733 343.294 531.733 343.294Z" fill="#263238" stroke="#263238" stroke-linecap="round" stroke-linejoin="round"/>
<path d="M564.116 328.715C557.599 328.986 552.049 324.591 546.397 320.721C540.746 316.851 536.893 320.721 536.893 320.721C537.334 318.617 538.455 316.717 540.084 315.315C541.714 313.913 543.759 313.087 545.905 312.965C553.594 312.473 556.088 323.029 563.268 323.946" stroke="white" stroke-width="0.5" stroke-linecap="round" stroke-linejoin="round"/>
<path d="M545.752 342.869H530.341L532.039 347.961C532.181 348.45 532.478 348.879 532.885 349.185C533.292 349.491 533.787 349.657 534.296 349.658H542.256C542.785 349.656 543.299 349.478 543.717 349.153C544.135 348.827 544.432 348.372 544.564 347.859L545.752 342.869Z" fill="white" stroke="#263238" stroke-linecap="round" stroke-linejoin="round"/>
<path d="M562.826 342.869H547.432L549.129 347.961C549.278 348.45 549.579 348.878 549.988 349.183C550.397 349.489 550.893 349.655 551.404 349.658H559.363C559.893 349.656 560.407 349.478 560.825 349.153C561.242 348.827 561.54 348.372 561.672 347.859L562.826 342.869Z" fill="white" stroke="#263238" stroke-linecap="round" stroke-linejoin="round"/>
<path d="M530.342 342.903L529.561 335.385" stroke="#263238" stroke-linecap="round" stroke-linejoin="round"/>
<path d="M562.826 342.903L564.591 335.775" stroke="#263238" stroke-linecap="round" stroke-linejoin="round"/>
<path d="M545.752 342.903H547.432" stroke="#263238" stroke-linecap="round" stroke-linejoin="round"/>
<path d="M545.328 345.296H548.044" stroke="#263238" stroke-linecap="round" stroke-linejoin="round"/>
<path d="M549.792 355.021C549.792 355.021 548.637 356.719 547.263 356.719C545.888 356.719 544.734 355.021 544.734 355.021" stroke="#263238" stroke-linecap="round" stroke-linejoin="round"/>
<path d="M562.402 427.526C562.402 427.526 555.969 421.908 554.34 422.434C552.711 422.961 550.81 430.021 552.202 431.82C553.593 433.619 556.665 427.475 556.665 427.475L562.453 435.469L562.402 427.526Z" fill="white" stroke="#263238" stroke-linecap="round" stroke-linejoin="round"/>
<path d="M561.418 430.021L555.46 432.159C554.085 433.832 552.389 435.211 550.471 436.216C547.738 437.421 546.346 438.711 549.367 440.034C552.388 441.358 556.733 436.64 556.733 436.64L563.522 437.336C563.883 436.722 564.116 436.041 564.205 435.335C564.295 434.628 564.239 433.911 564.042 433.226C563.845 432.542 563.511 431.904 563.06 431.353C562.608 430.802 562.05 430.349 561.418 430.021Z" fill="white" stroke="#263238" stroke-linecap="round" stroke-linejoin="round"/>
<path d="M567.256 441.494C569.064 442.494 571.16 442.847 573.196 442.495C576.489 441.884 581.784 435.011 581.784 435.011L579.119 430.089L568.936 429.834L567.256 441.494Z" fill="white" stroke="#263238" stroke-linecap="round" stroke-linejoin="round"/>
<path d="M561.706 425.082C561.706 425.082 557.938 434.943 558.397 436.555C558.855 438.168 565.185 442.071 567.256 441.494C568.597 441.121 571.346 437.692 573.111 435.384C573.535 434.82 573.718 434.112 573.623 433.413C573.528 432.714 573.161 432.081 572.602 431.65C569.327 429.155 563.115 424.675 561.706 425.082Z" fill="white" stroke="#263238" stroke-linecap="round" stroke-linejoin="round"/>
<path d="M561.451 438.914L566.085 427.509" stroke="#263238" stroke-linecap="round" stroke-linejoin="round"/>
<path d="M570.922 431.175L564.541 440.866" stroke="#263238" stroke-linecap="round" stroke-linejoin="round"/>
<path d="M574.673 429.597C576.264 433.633 576.762 438.018 576.115 442.309L576.031 442.784L615.864 446.178C617.703 445.921 619.385 444.998 620.589 443.584C621.793 442.17 622.437 440.364 622.398 438.507V435.571C622.379 434.554 622.156 433.551 621.741 432.622C621.327 431.693 620.729 430.857 619.985 430.163C619.241 429.47 618.365 428.933 617.409 428.585C616.453 428.237 615.437 428.085 614.421 428.137L574.673 429.597Z" fill="white" stroke="#263238" stroke-linecap="round" stroke-linejoin="round"/>
<path d="M518.037 427.526C518.037 427.526 524.452 421.908 526.081 422.434C527.711 422.961 529.629 430.021 528.237 431.82C526.845 433.619 523.773 427.475 523.773 427.475L517.969 435.469L518.037 427.526Z" fill="white" stroke="#263238" stroke-linecap="round" stroke-linejoin="round"/>
<path d="M519.072 430.021L525.046 432.159C526.417 433.837 528.114 435.217 530.036 436.216C532.752 437.421 534.143 438.711 531.139 440.034C528.135 441.358 523.773 436.64 523.773 436.64L516.985 437.336C516.625 436.723 516.394 436.043 516.304 435.337C516.215 434.632 516.27 433.916 516.465 433.232C516.66 432.549 516.991 431.912 517.44 431.36C517.888 430.808 518.443 430.352 519.072 430.021Z" fill="white" stroke="#263238" stroke-linecap="round" stroke-linejoin="round"/>
<path d="M513.166 441.494C511.357 442.494 509.262 442.847 507.226 442.495C503.933 441.884 498.638 435.011 498.638 435.011L501.302 430.089L511.486 429.834L513.166 441.494Z" fill="white" stroke="#263238" stroke-linecap="round" stroke-linejoin="round"/>
<path d="M518.733 425.082C518.733 425.082 522.501 434.943 522.025 436.555C521.55 438.168 515.236 442.071 513.166 441.494C511.842 441.121 509.076 437.692 507.327 435.384C506.904 434.82 506.72 434.112 506.816 433.413C506.911 432.714 507.278 432.081 507.837 431.65C511.095 429.155 517.29 424.675 518.733 425.082Z" fill="white" stroke="#263238" stroke-linecap="round" stroke-linejoin="round"/>
<path d="M518.97 438.914L514.337 427.509" stroke="#263238" stroke-linecap="round" stroke-linejoin="round"/>
<path d="M509.517 431.175L515.898 440.866" stroke="#263238" stroke-linecap="round" stroke-linejoin="round"/>
<path d="M505.749 429.597C504.552 433.721 504.189 438.042 504.68 442.309V442.784L474.622 446.178C471.754 445.635 469.633 442.36 469.684 438.507V435.571C469.684 431.277 472.467 427.916 475.692 428.137L505.749 429.597Z" fill="white" stroke="#263238" stroke-linecap="round" stroke-linejoin="round"/>
<path d="M575.793 436.844H485.841V440.035H575.793V436.844Z" fill="white" stroke="#263238" stroke-linecap="round" stroke-linejoin="round"/>
<path d="M625.996 437.183H581.156V439.695H625.996V437.183Z" fill="white" stroke="#263238" stroke-linecap="round" stroke-linejoin="round"/>
<path d="M661.671 351.966H557.072V419.413H661.671V351.966Z" fill="white" stroke="#263238" stroke-linecap="round" stroke-linejoin="round"/>
<path d="M661.672 351.966H560.094V419.413H661.672V351.966Z" fill="#263238" stroke="#263238" stroke-linecap="round" stroke-linejoin="round"/>
<path d="M627.235 383.059H601.845V440.832H627.235V383.059Z" fill="white" stroke="#263238" stroke-linecap="round" stroke-linejoin="round"/>
<path d="M629.577 383.059H604.187V440.832H629.577V383.059Z" fill="#263238" stroke="#263238" stroke-linecap="round" stroke-linejoin="round"/>
<path d="M602.506 383.738H630.171V423.3" stroke="white" stroke-linecap="round" stroke-linejoin="round"/>
<path d="M398.264 420.347H379.459V442.173H398.264V420.347Z" fill="white" stroke="#263238" stroke-linecap="round" stroke-linejoin="round"/>
<path d="M431.326 357.194H343.971V422.706H431.326V357.194Z" fill="#263238" stroke="#263238" stroke-linecap="round" stroke-linejoin="round"/>
<path d="M426.76 360.622H348.536V419.295H426.76V360.622Z" fill="white" stroke="#263238" stroke-linecap="round" stroke-linejoin="round"/>
<path d="M340.577 525.03L358.516 604.494L366.663 602.219L366.12 521.619L340.577 525.03Z" fill="white" stroke="#263238" stroke-linecap="round" stroke-linejoin="round"/>
<path d="M358.516 604.494L347.654 623.859L345.465 627.847H357.43L366.663 614.745V627.287H370.685V606.208L366.663 602.219L358.516 604.494Z" fill="white" stroke="#263238" stroke-linecap="round" stroke-linejoin="round"/>
<path d="M408.177 525.03L390.237 604.494L382.091 602.219L382.634 521.619L408.177 525.03Z" fill="white" stroke="#263238" stroke-linecap="round" stroke-linejoin="round"/>
<path d="M390.237 604.494L401.116 623.859L403.288 627.847H391.323L382.09 614.745V627.287H378.085V606.208L382.09 602.219L390.237 604.494Z" fill="white" stroke="#263238" stroke-linecap="round" stroke-linejoin="round"/>
<path d="M396.89 426.576H377.847V448.69H396.89V426.576Z" fill="white" stroke="#263238" stroke-linecap="round" stroke-linejoin="round"/>
<path d="M372.281 498.554C372.281 503.072 370.941 507.489 368.431 511.246C365.92 515.003 362.353 517.931 358.178 519.66C354.004 521.389 349.411 521.841 344.979 520.96C340.548 520.078 336.478 517.902 333.283 514.708C330.088 511.513 327.912 507.442 327.031 503.011C326.149 498.58 326.602 493.986 328.331 489.812C330.06 485.638 332.988 482.07 336.745 479.56C340.501 477.05 344.918 475.71 349.436 475.71C352.436 475.71 355.407 476.301 358.178 477.449C360.95 478.597 363.468 480.279 365.59 482.401C367.711 484.522 369.394 487.04 370.542 489.812C371.69 492.584 372.281 495.554 372.281 498.554Z" fill="#263238" stroke="#263238" stroke-linecap="round" stroke-linejoin="round"/>
<path d="M374.437 498.554C374.437 503.072 375.776 507.489 378.287 511.246C380.797 515.003 384.364 517.931 388.539 519.66C392.713 521.389 397.306 521.841 401.738 520.96C406.169 520.078 410.239 517.902 413.434 514.708C416.629 511.513 418.805 507.442 419.686 503.011C420.568 498.58 420.115 493.986 418.386 489.812C416.657 485.638 413.729 482.07 409.973 479.56C406.216 477.05 401.799 475.71 397.281 475.71C391.222 475.71 385.412 478.117 381.128 482.401C376.843 486.685 374.437 492.495 374.437 498.554Z" fill="#263238" stroke="#263238" stroke-linecap="round" stroke-linejoin="round"/>
<path d="M365.627 357.279L366.765 370.738L379.663 371.858L380.223 358.959C380.223 358.959 369.633 352.221 365.627 357.279Z" fill="white" stroke="#263238" stroke-linecap="round" stroke-linejoin="round"/>
<path d="M356.446 371.892C359.045 369.297 362.519 367.766 366.188 367.598C372.892 366.97 383.041 367.343 386.656 369.821C389.058 371.605 391.088 373.842 392.63 376.406L351.745 375.71L356.446 371.892Z" fill="white" stroke="#263238" stroke-linecap="round" stroke-linejoin="round"/>
<path d="M415.61 384.655C411.248 379.699 406.445 376.033 401.303 375.592C385.637 374.217 368.801 371.773 352.949 375.303C346.466 376.729 339.372 378.697 334.28 383.059C329.188 387.421 327.491 394.023 323.91 399.624L312.369 418.022C307.549 425.625 302.74 433.285 297.943 441.002C297.943 441.002 295.872 447.214 303.628 450.32C311.385 453.425 316.052 448.758 316.052 448.758L334.382 420.941L340.288 474.318H404.459L411.248 415.612C413.438 419.549 431.106 450.863 437.436 451.423C444.225 452.051 447.874 450.201 450.318 443.446C453.033 435.961 437.487 417.903 433.753 412.353C429.408 405.768 423.163 393.26 415.61 384.655Z" fill="white" stroke="#263238" stroke-linecap="round" stroke-linejoin="round"/>
<path d="M416.781 380.581L437.776 411.827L409.314 425.829L341.663 426.762L315.068 404.376L332.804 379.173C332.804 379.173 348.673 371.247 375.234 370.772C401.795 370.296 416.781 380.581 416.781 380.581Z" fill="white" stroke="#263238" stroke-linecap="round" stroke-linejoin="round"/>
<path d="M340.288 474.25L335.434 493.7C334.587 497.099 335.009 500.69 336.622 503.799L345.753 521.399H401.405L410.213 504.953C411.356 502.817 412.021 500.459 412.162 498.041C412.302 495.624 411.916 493.204 411.028 490.951L404.46 474.25H340.288Z" fill="#263238" stroke="#263238" stroke-linecap="round" stroke-linejoin="round"/>
<path d="M380.851 509.077H369.208V553.493H380.851V509.077Z" fill="#263238" stroke="#263238" stroke-linecap="round" stroke-linejoin="round"/>
<path d="M383.788 546.5H366.239V606.751H383.788V546.5Z" fill="#263238" stroke="#263238" stroke-linecap="round" stroke-linejoin="round"/>
<path d="M383.431 605.275L375.302 603.085V602.695L374.555 602.882L373.825 602.695V603.085L365.695 605.275L310.265 615.628V619.684H373.825H375.302H438.862V615.628L383.431 605.275Z" fill="#263238" stroke="#263238" stroke-linecap="round" stroke-linejoin="round"/>
<path d="M315.068 626.167C317.214 626.167 318.954 624.427 318.954 622.281C318.954 620.134 317.214 618.394 315.068 618.394C312.921 618.394 311.181 620.134 311.181 622.281C311.181 624.427 312.921 626.167 315.068 626.167Z" fill="#263238" stroke="#263238" stroke-linecap="round" stroke-linejoin="round"/>
<path d="M378.442 622.28C378.442 623.049 378.214 623.801 377.787 624.44C377.36 625.079 376.753 625.577 376.042 625.871C375.332 626.165 374.551 626.242 373.797 626.092C373.043 625.942 372.35 625.572 371.807 625.029C371.263 624.485 370.893 623.793 370.743 623.039C370.593 622.285 370.67 621.503 370.964 620.793C371.258 620.083 371.757 619.476 372.396 619.049C373.035 618.622 373.786 618.394 374.555 618.394C375.066 618.392 375.573 618.491 376.045 618.685C376.518 618.88 376.947 619.166 377.308 619.527C377.67 619.889 377.956 620.318 378.15 620.79C378.345 621.263 378.444 621.769 378.442 622.28Z" fill="#263238" stroke="#263238" stroke-linecap="round" stroke-linejoin="round"/>
<path d="M438.302 622.28C438.302 623.05 438.074 623.802 437.646 624.441C437.218 625.081 436.61 625.579 435.899 625.873C435.188 626.166 434.405 626.242 433.651 626.091C432.897 625.94 432.204 625.568 431.661 625.023C431.118 624.477 430.749 623.783 430.601 623.028C430.453 622.273 430.533 621.491 430.83 620.781C431.126 620.071 431.627 619.466 432.268 619.041C432.91 618.616 433.663 618.39 434.432 618.394C434.942 618.394 435.447 618.494 435.917 618.69C436.388 618.886 436.815 619.172 437.175 619.533C437.534 619.894 437.819 620.323 438.012 620.794C438.206 621.266 438.304 621.771 438.302 622.28Z" fill="#263238" stroke="#263238" stroke-linecap="round" stroke-linejoin="round"/>
<path d="M410.689 523.113H339.406C337.422 523.115 335.456 522.726 333.623 521.968C331.789 521.209 330.123 520.097 328.72 518.694C327.317 517.291 326.204 515.624 325.446 513.791C324.688 511.957 324.299 509.992 324.301 508.008L332.787 401.355C332.787 398.018 334.111 394.818 336.469 392.456C338.827 390.095 342.026 388.767 345.363 388.762H404.765C406.418 388.762 408.055 389.088 409.582 389.721C411.109 390.354 412.496 391.282 413.664 392.452C414.832 393.621 415.758 395.01 416.389 396.537C417.02 398.065 417.344 399.702 417.342 401.355L425.828 508.008C425.83 509.995 425.44 511.963 424.679 513.799C423.919 515.635 422.803 517.302 421.396 518.706C419.99 520.109 418.32 521.221 416.482 521.977C414.645 522.734 412.676 523.12 410.689 523.113Z" fill="#1E376C" stroke="#263238" stroke-linecap="round" stroke-linejoin="round"/>
<path d="M410.689 528.731H339.406C337.422 528.733 335.456 528.344 333.623 527.585C331.789 526.827 330.123 525.714 328.72 524.311C327.317 522.908 326.204 521.242 325.446 519.409C324.688 517.575 324.299 515.61 324.301 513.625L332.787 406.973C332.787 403.636 334.111 400.435 336.469 398.074C338.827 395.713 342.026 394.384 345.363 394.38H404.765C406.418 394.38 408.055 394.706 409.582 395.339C411.109 395.972 412.496 396.9 413.664 398.069C414.832 399.239 415.758 400.627 416.389 402.155C417.02 403.683 417.344 405.32 417.342 406.973L425.828 513.625C425.83 515.613 425.44 517.581 424.679 519.416C423.919 521.252 422.803 522.92 421.396 524.323C419.99 525.727 418.32 526.839 416.482 527.595C414.645 528.351 412.676 528.737 410.689 528.731Z" fill="#1E376C" stroke="#263238" stroke-linecap="round" stroke-linejoin="round"/>
<path d="M372.654 364.679C369.55 364.678 366.544 363.589 364.159 361.601C361.774 359.614 360.162 356.853 359.602 353.8C359.212 351.627 358.89 349.455 358.329 347.316L355.427 331.821C355.427 327.25 357.242 322.867 360.472 319.634C363.702 316.4 368.084 314.582 372.654 314.577C377.227 314.577 381.613 316.394 384.847 319.628C388.081 322.861 389.897 327.247 389.897 331.821L386.995 347.316C386.435 349.455 386.113 351.627 385.722 353.8C385.162 356.856 383.547 359.619 381.159 361.607C378.771 363.595 375.761 364.682 372.654 364.679Z" fill="#263238" stroke="#263238" stroke-linecap="round" stroke-linejoin="round"/>
<path d="M361.911 318.09C359.5 319.097 357.411 320.744 355.871 322.853C354.33 324.962 353.396 327.453 353.17 330.056C352.474 339.017 355.241 348.911 355.699 355.361C356.157 361.81 354.087 366.868 348.571 375.609C343.055 384.349 346.5 397.231 359.84 404.359C373.18 411.487 391.018 407.16 396.89 399.76C407.973 385.775 393.665 366.868 391.798 356.973C389.932 347.079 394.327 334.197 389.049 324.302C383.771 314.407 376.625 311.183 370.634 311.183C364.643 311.183 361.911 318.09 361.911 318.09Z" fill="white" stroke="#263238" stroke-linecap="round" stroke-linejoin="round"/>
<path d="M389.727 346.519C389.727 346.519 386.927 364.713 391.119 378.765C395.311 392.818 388.794 405.819 373.383 406.277C357.973 406.735 354.256 386.691 362.657 386.216C371.058 385.741 371.058 394.617 369.191 395.093" stroke="#263238" stroke-linecap="round" stroke-linejoin="round"/>
<path d="M361.911 318.09C361.911 318.09 369.192 323.182 369.667 330.65" stroke="#263238" stroke-linecap="round" stroke-linejoin="round"/>
<path d="M263.337 418.548H242.988V442.173H263.337V418.548Z" fill="white" stroke="#263238" stroke-linecap="round" stroke-linejoin="round"/>
<path d="M299.148 350.185H204.597V421.094H299.148V350.185Z" fill="#263238" stroke="#263238" stroke-linecap="round" stroke-linejoin="round"/>
<path d="M294.192 353.901H209.536V417.394H294.192V353.901Z" fill="white" stroke="#263238" stroke-linecap="round" stroke-linejoin="round"/>
<path d="M277.78 437.591H189.169V441.528H277.78V437.591Z" fill="white" stroke="#263238" stroke-linecap="round" stroke-linejoin="round"/>
<path d="M76.8646 627.253H72.1973L68.8198 445.72H80.225L76.8646 627.253Z" fill="white" stroke="#263238" stroke-linecap="round" stroke-linejoin="round"/>
<path d="M116.257 627.253H111.59L108.212 445.72H119.635L116.257 627.253Z" fill="#263238" stroke="#263238" stroke-linecap="round" stroke-linejoin="round"/>
<path d="M403.034 627.253H398.367L394.989 445.72H406.411L403.034 627.253Z" fill="#263238" stroke="#263238" stroke-linecap="round" stroke-linejoin="round"/>
<path d="M453.644 627.253H448.96L445.6 445.72H457.005L453.644 627.253Z" fill="#263238" stroke="#263238" stroke-linecap="round" stroke-linejoin="round"/>
<path d="M439.235 627.253H434.568L431.19 445.72H442.613L439.235 627.253Z" fill="#263238" stroke="#263238" stroke-linecap="round" stroke-linejoin="round"/>
<path d="M620.26 627.253H615.592L612.215 445.72H623.62L620.26 627.253Z" fill="#263238" stroke="#263238" stroke-linecap="round" stroke-linejoin="round"/>
<path d="M165.255 627.253H160.571L157.21 445.72H168.616L165.255 627.253Z" fill="#263238" stroke="#263238" stroke-linecap="round" stroke-linejoin="round"/>
<path d="M200.625 627.253H195.958L192.581 445.72H204.003L200.625 627.253Z" fill="#263238" stroke="#263238" stroke-linecap="round" stroke-linejoin="round"/>
<path d="M631.784 627.253H627.099L623.739 445.72H635.144L631.784 627.253Z" fill="#263238" stroke="#263238" stroke-linecap="round" stroke-linejoin="round"/>
<path d="M648.586 627.253H643.918L640.541 445.72H651.963L648.586 627.253Z" fill="#263238" stroke="#263238" stroke-linecap="round" stroke-linejoin="round"/>
<path d="M384.517 627.253H379.85L376.49 445.72H387.895L384.517 627.253Z" fill="white" stroke="#263238" stroke-linecap="round" stroke-linejoin="round"/>
<path d="M666.185 627.253H661.518L658.141 445.72H669.546L666.185 627.253Z" fill="white" stroke="#263238" stroke-linecap="round" stroke-linejoin="round"/>
<path d="M679.407 440.357H64.6958V487.302H679.407V440.357Z" fill="white" stroke="#263238" stroke-linecap="round" stroke-linejoin="round"/>
<path d="M679.407 440.357H64.6958V452.288H679.407V440.357Z" fill="#263238" stroke="#263238" stroke-linecap="round" stroke-linejoin="round"/>
<path d="M683.701 440.357H60.3853V446.874H683.701V440.357Z" fill="white" stroke="#263238" stroke-linecap="round" stroke-linejoin="round"/>
<path d="M129.615 605.02L115.188 623.282C115.188 623.282 112.795 626.167 117.106 626.676C121.417 627.185 143.073 626.676 143.073 626.676L142.378 608.635L129.615 605.02Z" fill="white" stroke="#263238" stroke-linecap="round" stroke-linejoin="round"/>
<path d="M128.341 495.482L127.493 607.718C127.488 608.426 127.624 609.127 127.891 609.781C128.159 610.436 128.553 611.031 129.052 611.533C129.55 612.034 130.143 612.432 130.796 612.704C131.449 612.976 132.149 613.116 132.856 613.116H137.116C138.39 613.112 139.622 612.656 140.592 611.83C141.561 611.003 142.206 609.859 142.411 608.601L158.552 506.582L128.341 495.482Z" fill="#263238" stroke="#263238" stroke-linecap="round" stroke-linejoin="round"/>
<path d="M176.52 501.183C179.639 488.06 171.53 474.894 158.407 471.775C145.284 468.656 132.118 476.765 128.999 489.888C125.88 503.011 133.989 516.178 147.112 519.297C160.235 522.416 173.401 514.306 176.52 501.183Z" fill="#263238" stroke="#263238" stroke-linecap="round" stroke-linejoin="round"/>
<path d="M227.068 605.02L241.477 623.282C241.477 623.282 243.888 626.167 239.56 626.676C235.232 627.185 213.609 626.676 213.609 626.676L214.271 607.073L227.068 605.02Z" fill="white" stroke="#263238" stroke-linecap="round" stroke-linejoin="round"/>
<path d="M228.324 495.482L229.172 607.718C229.177 608.426 229.041 609.127 228.774 609.781C228.506 610.436 228.112 611.031 227.614 611.533C227.115 612.034 226.522 612.432 225.869 612.704C225.217 612.976 224.516 613.116 223.809 613.116H219.583C218.307 613.119 217.072 612.666 216.1 611.838C215.129 611.01 214.486 609.862 214.288 608.601L198.215 506.582L228.324 495.482Z" fill="#263238" stroke="#263238" stroke-linecap="round" stroke-linejoin="round"/>
<path d="M221.169 512.747C230.707 503.209 230.707 487.746 221.169 478.208C211.631 468.67 196.168 468.67 186.63 478.208C177.092 487.746 177.092 503.209 186.63 512.747C196.168 522.285 211.631 522.285 221.169 512.747Z" fill="#263238" stroke="#263238" stroke-linecap="round" stroke-linejoin="round"/>
<path d="M170.076 344.465L171.264 358.857L185.062 360.045L185.656 346.264C185.656 346.264 174.268 339.068 170.076 344.465Z" fill="white" stroke="#263238" stroke-linecap="round" stroke-linejoin="round"/>
<path d="M163.151 340.697C162.402 340.783 161.649 340.569 161.057 340.101C160.466 339.634 160.083 338.951 159.994 338.202L159.095 330.599C159.052 330.226 159.083 329.85 159.187 329.489C159.29 329.129 159.463 328.793 159.696 328.5C159.93 328.207 160.218 327.962 160.546 327.781C160.874 327.599 161.234 327.484 161.606 327.442C162.356 327.356 163.108 327.57 163.7 328.038C164.292 328.505 164.674 329.188 164.763 329.937L165.663 337.523C165.708 337.897 165.678 338.276 165.576 338.638C165.474 339 165.301 339.338 165.068 339.633C164.834 339.928 164.545 340.174 164.216 340.357C163.887 340.539 163.525 340.655 163.151 340.697Z" fill="white" stroke="#263238" stroke-linecap="round" stroke-linejoin="round"/>
<path d="M192.292 339.73C191.541 339.665 190.846 339.305 190.36 338.73C189.873 338.154 189.634 337.409 189.695 336.658L190.323 329.037C190.353 328.662 190.457 328.297 190.629 327.962C190.801 327.628 191.037 327.33 191.324 327.087C191.611 326.845 191.943 326.661 192.302 326.547C192.66 326.433 193.038 326.391 193.412 326.424C193.786 326.456 194.149 326.561 194.482 326.734C194.815 326.906 195.11 327.143 195.351 327.43C195.592 327.717 195.775 328.048 195.887 328.406C196 328.763 196.042 329.139 196.009 329.512L195.381 337.133C195.349 337.506 195.244 337.87 195.071 338.202C194.898 338.535 194.662 338.83 194.375 339.072C194.088 339.313 193.756 339.495 193.399 339.608C193.042 339.721 192.666 339.762 192.292 339.73Z" fill="white" stroke="#263238" stroke-linecap="round" stroke-linejoin="round"/>
<path d="M177.577 352.374C174.26 352.373 171.047 351.209 168.498 349.085C165.949 346.961 164.226 344.011 163.626 340.748C163.202 338.423 162.863 336.098 162.269 333.823L159.18 317.242C159.18 312.358 161.12 307.674 164.573 304.22C168.027 300.767 172.71 298.827 177.594 298.827C182.477 298.831 187.158 300.773 190.611 304.225C194.063 307.678 196.005 312.359 196.009 317.242L192.903 333.823C192.309 336.098 191.953 338.423 191.545 340.748C190.946 344.014 189.219 346.966 186.667 349.091C184.115 351.215 180.898 352.377 177.577 352.374Z" fill="#263238" stroke="#263238" stroke-linecap="round" stroke-linejoin="round"/>
<path d="M157.058 360.554C159.832 357.779 163.542 356.138 167.462 355.955C174.624 355.293 186.539 353.596 190.391 356.243C194.54 359.454 198.506 362.893 202.272 366.545L152.103 364.645L157.058 360.554Z" fill="white" stroke="#263238" stroke-linecap="round" stroke-linejoin="round"/>
<path d="M133.399 367.207L97.7576 433.959C97.7576 433.959 95.5512 440.595 103.851 443.904C112.15 447.214 117.123 442.207 117.123 442.207L138.049 410.367L133.399 367.207Z" fill="#263238" stroke="#263238" stroke-linecap="round" stroke-linejoin="round"/>
<path d="M217.207 365.052C217.207 365.052 263.252 429.274 260.639 436.504C258.025 443.734 254.07 445.686 246.857 444.99C239.644 444.294 218.582 406.311 218.582 406.311L217.207 365.052Z" fill="#263238" stroke="#263238" stroke-linecap="round" stroke-linejoin="round"/>
<path d="M213.235 364.492C213.235 364.492 184.468 361.725 168.429 361.725C152.391 361.725 133.399 367.207 133.399 367.207L142.971 469.498H211.572L217.207 365.052L213.235 364.492Z" fill="#263238" stroke="#263238" stroke-linecap="round" stroke-linejoin="round"/>
<path d="M142.971 469.498L137.88 490.289C136.974 493.922 137.427 497.76 139.153 501.083L148.895 519.905H208.382L217.716 502.407C218.94 500.125 219.653 497.604 219.805 495.019C219.958 492.434 219.546 489.847 218.599 487.437L211.572 469.583L142.971 469.498Z" fill="#263238" stroke="#263238" stroke-linecap="round" stroke-linejoin="round"/>
<path d="M186.318 506.718H173.877V554.188H186.318V506.718Z" fill="#263238" stroke="#263238" stroke-linecap="round" stroke-linejoin="round"/>
<path d="M189.492 546.738H170.721V606.785H189.492V546.738Z" fill="#263238" stroke="#263238" stroke-linecap="round" stroke-linejoin="round"/>
<path d="M189.102 605.19L180.395 602.864V602.44L179.614 602.644L178.817 602.44V602.864L170.127 605.19L110.877 616.255V620.6H178.817H180.395H248.351V616.255L189.102 605.19Z" fill="#263238" stroke="#263238" stroke-linecap="round" stroke-linejoin="round"/>
<path d="M116.02 627.508C118.307 627.508 120.161 625.654 120.161 623.367C120.161 621.08 118.307 619.226 116.02 619.226C113.732 619.226 111.878 621.08 111.878 623.367C111.878 625.654 113.732 627.508 116.02 627.508Z" fill="#263238" stroke="#263238" stroke-linecap="round" stroke-linejoin="round"/>
<path d="M183.755 623.367C183.755 624.186 183.512 624.986 183.057 625.667C182.602 626.349 181.955 626.879 181.199 627.193C180.442 627.506 179.609 627.588 178.806 627.428C178.003 627.269 177.265 626.874 176.686 626.295C176.106 625.716 175.712 624.978 175.552 624.175C175.392 623.371 175.474 622.539 175.788 621.782C176.101 621.025 176.632 620.379 177.313 619.924C177.994 619.468 178.795 619.226 179.614 619.226C180.712 619.226 181.765 619.662 182.542 620.439C183.319 621.215 183.755 622.268 183.755 623.367Z" fill="#263238" stroke="#263238" stroke-linecap="round" stroke-linejoin="round"/>
<path d="M247.757 623.367C247.76 624.19 247.519 624.995 247.064 625.682C246.609 626.368 245.961 626.903 245.202 627.22C244.442 627.538 243.606 627.623 242.798 627.464C241.99 627.306 241.248 626.911 240.664 626.33C240.081 625.749 239.683 625.008 239.522 624.201C239.36 623.394 239.441 622.557 239.755 621.796C240.07 621.036 240.602 620.385 241.287 619.928C241.971 619.47 242.775 619.226 243.599 619.226C244.698 619.226 245.754 619.661 246.533 620.437C247.312 621.214 247.752 622.267 247.757 623.367Z" fill="#263238" stroke="#263238" stroke-linecap="round" stroke-linejoin="round"/>
<path d="M120.144 461.199H132.449V514.542H132.007C128.857 514.542 125.835 513.29 123.607 511.062C121.379 508.834 120.127 505.812 120.127 502.661V461.199H120.144Z" fill="#1E376C" stroke="#263238" stroke-linecap="round" stroke-linejoin="round"/>
<path d="M132.398 450.065H113.05V460.028H132.398V450.065Z" fill="#1E376C" stroke="#263238" stroke-linecap="round" stroke-linejoin="round"/>
<path d="M228.256 514.542C229.879 514.555 231.49 514.247 232.993 513.634C234.497 513.022 235.864 512.117 237.017 510.973C238.169 509.829 239.082 508.468 239.705 506.968C240.328 505.469 240.648 503.861 240.645 502.237V461.199H228.256V514.542Z" fill="#1E376C" stroke="#263238" stroke-linecap="round" stroke-linejoin="round"/>
<path d="M228.256 460.045H247.604V450.082H228.256V460.045Z" fill="#1E376C" stroke="#263238" stroke-linecap="round" stroke-linejoin="round"/>
<path d="M218.242 521.738H141.987C139.865 521.74 137.765 521.324 135.805 520.514C133.844 519.704 132.063 518.516 130.563 517.017C129.062 515.518 127.872 513.738 127.059 511.778C126.247 509.819 125.829 507.719 125.829 505.598L134.875 391.579C134.875 388.01 136.293 384.586 138.817 382.062C141.341 379.538 144.765 378.12 148.334 378.12H211.877C213.648 378.116 215.401 378.461 217.038 379.135C218.675 379.81 220.163 380.8 221.416 382.05C222.67 383.301 223.664 384.786 224.342 386.421C225.021 388.056 225.37 389.809 225.37 391.579L234.416 505.598C234.416 507.72 233.998 509.822 233.184 511.782C232.371 513.743 231.179 515.523 229.677 517.023C228.175 518.522 226.391 519.71 224.429 520.519C222.467 521.328 220.364 521.742 218.242 521.738Z" fill="#1E376C" stroke="#263238" stroke-linecap="round" stroke-linejoin="round"/>
<path d="M218.242 527.729H141.987C139.865 527.731 137.765 527.316 135.805 526.505C133.844 525.695 132.063 524.507 130.563 523.008C129.062 521.509 127.872 519.729 127.059 517.769C126.247 515.81 125.829 513.71 125.829 511.589L134.875 397.57C134.88 394.004 136.3 390.585 138.823 388.065C141.347 385.544 144.767 384.129 148.334 384.129H211.877C215.444 384.129 218.865 385.544 221.388 388.065C223.912 390.585 225.332 394.004 225.336 397.57L234.382 511.589C234.382 515.869 232.682 519.975 229.655 523.002C226.628 526.029 222.523 527.729 218.242 527.729Z" fill="#1E376C" stroke="#263238" stroke-linecap="round" stroke-linejoin="round"/>
<path d="M2.84961 627.423H694.885" stroke="#263238" stroke-linecap="round" stroke-linejoin="round"/>
</svg>
