<svg width="620" height="632" viewBox="0 0 620 632" fill="none" xmlns="http://www.w3.org/2000/svg">
<path d="M535.254 545.094H589.155V527.939H535.254V545.094Z" fill="#EBEBEB"/>
<path d="M498.83 227.513H552.731V210.358H498.83V227.513Z" fill="#EBEBEB"/>
<path d="M565.317 566.724C574.27 566.571 597.219 566.188 605.865 566.096L619.218 566.019L618.513 566.724V549.57L619.279 550.336C610.326 550.336 587.5 550.229 578.854 550.107L565.378 549.938L565.746 549.57L565.378 566.724H565.317ZM565.317 566.724L564.964 549.57V549.202H565.332C572.062 549.11 585.568 548.957 592.283 548.911L619.233 548.803H620V549.57V566.724V567.43H619.31H605.712C597.127 567.338 574.285 566.954 565.409 566.801L565.317 566.724Z" fill="#EBEBEB"/>
<path d="M91.9353 417.148C100.888 416.994 123.837 416.611 132.468 416.504H145.821L145.131 417.209L145.055 400.054L145.821 400.821C136.883 400.821 114.057 400.714 105.411 400.576L91.9353 400.422L92.2879 400.054L91.9353 417.209V417.148ZM91.9353 417.148L91.5674 399.993V399.625H91.9506C98.6653 399.533 112.171 399.38 118.901 399.334L145.836 399.227H146.618V399.993V417.148V417.853H145.76H132.177C123.592 417.761 100.735 417.378 91.874 417.224L91.9353 417.148Z" fill="#EBEBEB"/>
<path d="M121.998 438.778C130.951 438.625 153.9 438.242 162.546 438.135H175.899L175.194 438.84V421.685L175.96 422.452C167.007 422.452 144.181 422.344 135.534 422.207L122.059 422.053L122.427 421.685L122.059 438.84L121.998 438.778ZM121.998 438.778L121.63 421.624V421.333H121.998C128.728 421.241 142.218 421.087 148.948 421.041L175.899 420.934H176.665V421.701V438.855V439.56H175.976H162.378C153.793 439.468 130.935 439.085 122.074 438.932L121.998 438.778Z" fill="#EBEBEB"/>
<path d="M151.937 417.148H205.838V399.993H151.937V417.148Z" fill="#EBEBEB"/>
<path d="M0.368 566.724H54.269V549.57H0.368V566.724Z" fill="#EBEBEB"/>
<path d="M30.4305 18.3473L84.3315 18.3473V1.19278L30.4305 1.19278V18.3473Z" fill="#EBEBEB"/>
<path d="M0.367928 39.9628C9.32078 39.8095 32.2701 39.4263 40.9164 39.3343H54.269L53.5638 40.0241V22.8696L54.3303 23.6361C45.3775 23.6361 22.5508 23.5288 13.9045 23.4062L0.42925 23.2375L0.735856 22.747L0.367928 39.9015V39.9628ZM0.367928 39.9628L0 22.747V22.3944H0.367928C7.09789 22.3024 20.5885 22.1491 27.3185 22.0878L54.269 21.9805H55.0355V22.747V39.9015V40.6067H54.3456H40.7477C32.1628 40.4994 9.30544 40.1161 0.444578 39.9628H0.367928Z" fill="#EBEBEB"/>
<path d="M565.317 18.3319C574.27 18.1786 597.219 17.8107 605.865 17.7034H619.218L618.513 18.3932V1.23872L619.279 2.00523C610.326 2.00523 587.5 1.89792 578.854 1.77528L565.378 1.60664L565.746 1.23872L565.378 18.3932L565.317 18.3319ZM565.317 18.3319L564.964 1.1774V0.824805H565.332C572.062 0.732824 585.568 0.579521 592.283 0.5182L619.233 0.410889H620V1.1774V18.3319V19.0371H619.31H605.712C597.127 18.9298 574.285 18.5465 565.409 18.3932L565.317 18.3319Z" fill="#EBEBEB"/>
<path d="M22.8418 6.80359V279.16H199.875V6.80359H22.8418ZM193.283 272.63H29.2498V13.3343H193.283V272.63Z" fill="#EBEBEB"/>
<path d="M193.329 13.3342H29.3726V272.63H193.329V13.3342Z" fill="white"/>
<path d="M29.3724 146.247L193.329 146.247V139.717L29.3724 139.717V146.247Z" fill="#EBEBEB"/>
<path d="M10.8234 297.894H211.895V279.145H10.8234V297.894Z" fill="#DBDBDB"/>
<path d="M29.3726 13.3188H193.283V181.077H29.3726V13.3188ZM187.274 19.3743H35.382V175.037H187.243L187.274 19.3743Z" fill="#DBDBDB"/>
<path d="M141.008 13.3188H137.742V175.022H141.008V13.3188Z" fill="#DBDBDB"/>
<path d="M84.9602 13.3188H81.6948V175.022H84.9602V13.3188Z" fill="#DBDBDB"/>
<path d="M419.726 6.80359V279.16H596.744V6.80359H419.726ZM590.213 272.63H426.303V13.3343H590.336L590.213 272.63Z" fill="#EBEBEB"/>
<path d="M590.214 13.3342H426.257V272.63H590.214V13.3342Z" fill="white"/>
<path d="M426.256 146.247L590.213 146.247V139.717L426.256 139.717V146.247Z" fill="#EBEBEB"/>
<path d="M407.707 297.894H608.778V279.145H407.707V297.894Z" fill="#DBDBDB"/>
<path d="M426.303 13.3188H590.336V181.077H426.303V13.3188ZM584.204 19.3743H432.297V175.037H584.204V19.3743Z" fill="#DBDBDB"/>
<path d="M537.891 13.3188H534.626V175.022H537.891V13.3188Z" fill="#DBDBDB"/>
<path d="M481.844 13.3188H478.579V175.022H481.844V13.3188Z" fill="#DBDBDB"/>
<path d="M421.796 362.035H197.791V375.71H421.796V362.035Z" fill="#EBEBEB"/>
<path d="M401.82 375.71H217.766V413.438H401.82V375.71Z" fill="#EBEBEB"/>
<path d="M401.82 383.161L217.766 386.824V375.71H401.82V383.161Z" fill="#C7C7C7"/>
<path d="M374.088 406.309H245.498V382.854H374.088V406.309ZM247.031 404.776H372.555V384.387H247.031V404.776Z" fill="#DBDBDB"/>
<path d="M330.75 391.408H288.852V397.74H330.75V391.408Z" fill="#DBDBDB"/>
<path d="M216.279 630.452H210.177L227.914 413.453H243.459L216.279 630.452Z" fill="#EBEBEB"/>
<path d="M243.46 413.453L241.635 427.971H226.734L227.915 413.453H243.46Z" fill="#C7C7C7"/>
<path d="M403.307 630.452H409.408L391.671 413.453H376.126L403.307 630.452Z" fill="#EBEBEB"/>
<path d="M376.126 413.453L377.951 427.971H392.852L391.671 413.453H376.126Z" fill="#C7C7C7"/>
<path d="M517.701 433.045C519.134 443.045 518.614 453.229 516.168 463.031C515.009 467.572 513.47 472.008 511.569 476.291C509.177 481.78 506.694 487.13 507.292 493.155C507.874 493.538 505.881 493.477 505.759 492.894C489.708 483.696 469.135 482.086 456.794 467.155C450.938 460.072 447.995 451.119 446.6 442.151C445.066 432.386 444.653 421.578 447.182 411.951C449.298 403.826 454.05 395.976 461.7 392.021C469.595 387.913 479.927 388.25 488.236 390.826C506.249 396.36 515.218 415.706 517.701 433.045Z" fill="#1E376C"/>
<path d="M525.949 551.808C523.762 544.511 521.554 537.219 519.326 529.932C514.927 515.675 510.343 501.464 505.284 487.421C502.218 479.02 499.014 470.696 495.672 462.448C496.255 457.267 496.484 452.1 497.588 446.934C498.937 440.71 500.884 434.67 502.693 428.614C502.8 428.247 502.203 428.047 502.049 428.4C498.447 436.785 493.74 447.517 493.633 457.451C489.709 448.12 485.503 438.921 481.016 429.856C480.509 422.186 480.745 414.485 481.721 406.861C481.726 406.794 481.706 406.728 481.665 406.675C481.625 406.622 481.566 406.585 481.5 406.572C481.435 406.559 481.366 406.57 481.308 406.603C481.25 406.637 481.206 406.69 481.185 406.754C479.821 413.428 479.306 420.247 479.652 427.051C476.203 420.244 472.569 413.514 468.691 406.892C468.354 406.294 467.526 406.892 467.832 407.489C473.862 419.11 479.483 430.934 484.696 442.964C477.309 436.557 468.772 431.615 459.539 428.4C459.14 428.262 458.849 428.829 459.247 428.998C469.322 433.326 478.538 439.427 486.458 447.011C490.23 455.81 493.807 464.676 497.19 473.609C487.164 463.767 473.428 457.297 460.137 453.817C459.677 453.71 459.554 454.4 459.999 454.523C475.329 459.122 487.317 467.875 499.014 478.346C500.373 481.964 501.707 485.587 503.015 489.215C507.962 502.951 512.678 516.779 517.165 530.698C519.332 537.372 521.457 544.051 523.542 550.735C525.78 557.925 527.528 565.513 530.456 572.473C530.732 573.132 531.989 572.979 531.775 572.182C530.456 565.299 527.942 558.523 525.949 551.808Z" fill="#263238"/>
<path d="M499.321 419.002C496.47 423.376 494.506 428.267 493.541 433.398C493.541 433.536 493.725 433.612 493.771 433.474C495.567 428.643 497.661 423.927 500.041 419.355C500.286 418.88 499.596 418.589 499.321 419.002Z" fill="#263238"/>
<path d="M470.76 452.422C466.292 449.955 461.416 448.314 456.365 447.578C456.336 447.573 456.306 447.579 456.281 447.594C456.256 447.609 456.237 447.632 456.228 447.66C456.219 447.688 456.22 447.718 456.231 447.745C456.242 447.772 456.262 447.795 456.288 447.808C458.603 448.774 461.041 449.433 463.371 450.337C465.701 451.242 467.97 452.346 470.407 453.174C470.507 453.22 470.621 453.226 470.725 453.188C470.828 453.151 470.912 453.074 470.959 452.974C471.006 452.875 471.011 452.761 470.974 452.657C470.936 452.554 470.86 452.469 470.76 452.422Z" fill="#263238"/>
<path d="M462.635 412.211C461.2 411.11 459.66 410.155 458.036 409.36C457.984 409.342 457.928 409.341 457.876 409.359C457.824 409.377 457.779 409.411 457.749 409.457C457.719 409.503 457.706 409.557 457.71 409.612C457.715 409.667 457.738 409.718 457.775 409.758C459.205 410.896 460.746 411.887 462.374 412.717C462.604 412.901 462.926 412.41 462.635 412.211Z" fill="#263238"/>
<path d="M571.787 487.529C560.228 490.962 548.607 494.136 537.064 497.524C536.052 497.83 516.521 460.394 523.588 441.109C530.104 423.264 545.051 409.912 562.864 403.841C571.112 401.051 581.261 398.69 589.968 400.606C597.71 402.323 603.183 408.67 605.712 415.936C609.131 425.855 607.997 437.659 606.126 447.777C604.394 457.159 600.96 466.388 594.767 473.762C588.573 481.136 580.785 484.861 571.787 487.529Z" fill="#1E376C"/>
<path d="M588.527 451.993C581.226 455.557 573.655 458.54 565.884 460.915C560.963 462.448 555.46 463.981 550.753 466.388C555.629 455.504 560.994 444.849 566.666 434.302C574.132 432.141 581.997 428.768 587.623 423.494C587.688 423.437 587.728 423.357 587.733 423.271C587.739 423.184 587.71 423.099 587.653 423.034C587.596 422.969 587.516 422.93 587.43 422.924C587.344 422.918 587.259 422.947 587.193 423.004C581.061 427.358 574.255 429.964 567.433 432.907C568.966 430.071 570.499 427.235 572.108 424.399C572.161 424.321 572.197 424.234 572.216 424.143C572.235 424.051 572.235 423.957 572.217 423.865C572.2 423.773 572.164 423.685 572.112 423.607C572.061 423.529 571.994 423.462 571.917 423.41C571.839 423.358 571.752 423.321 571.661 423.302C571.569 423.284 571.475 423.283 571.383 423.301C571.291 423.319 571.204 423.354 571.126 423.406C571.048 423.458 570.98 423.524 570.928 423.602C564.859 432.432 559.375 441.65 554.509 451.196C553.272 442.835 552.877 434.371 553.329 425.932C553.329 425.717 553.022 425.702 552.992 425.932C551.547 435.133 551.646 444.511 553.283 453.68C549.22 461.774 545.526 470.068 542.215 478.453C540.896 473.41 539.149 468.443 538.045 463.368C536.293 456.092 535.734 448.58 536.389 441.124C536.389 440.909 536.082 440.894 536.052 441.124C534.001 454.926 535.674 469.025 540.896 481.964C538.965 487.007 537.125 492.082 535.439 497.156C526.736 523.068 521.579 550.038 520.108 577.333C520.108 577.463 520.16 577.588 520.252 577.68C520.344 577.772 520.469 577.824 520.599 577.824C520.729 577.824 520.854 577.772 520.946 577.68C521.038 577.588 521.09 577.463 521.09 577.333C524.114 550.407 529.883 523.86 538.305 498.106C541.663 488.035 545.511 478.254 549.742 468.657C556.579 466.649 563.37 463.905 570.07 461.59C576.769 459.275 583.315 456.7 588.803 452.392C589.002 452.192 588.803 451.84 588.527 451.993Z" fill="#263238"/>
<path d="M599.304 441.093C592.237 443.608 585.507 447.118 578.486 449.663C578.148 449.786 578.348 450.307 578.685 450.246C586.151 448.712 593.555 446.398 599.58 441.492C599.81 441.262 599.534 441.001 599.304 441.093Z" fill="#263238"/>
<path d="M541.601 425.84C541.693 425.472 541.141 425.257 541.034 425.64C539.087 432.156 537.753 439.07 539.639 445.723C539.715 445.984 540.129 445.984 540.145 445.723C540.482 438.978 540.099 432.447 541.601 425.84Z" fill="#263238"/>
<path d="M570.805 410.801C568.551 414.033 567.469 417.938 567.739 421.869C567.739 422.115 568.153 422.268 568.214 421.977C569.073 418.236 570.514 414.848 571.663 411.245C571.698 411.135 571.693 411.016 571.649 410.909C571.605 410.803 571.524 410.715 571.421 410.662C571.319 410.609 571.201 410.593 571.088 410.619C570.975 410.644 570.875 410.709 570.805 410.801Z" fill="#263238"/>
<path d="M434.335 504.116C437.723 514.847 445.772 529.733 458.527 529.855C466.79 529.932 475.114 528.951 483.392 528.828C492.268 528.69 501.16 528.721 510.005 529.242C510.726 529.242 508.948 502.675 487.623 489.721C481.645 486.103 474.347 484.953 467.571 483.481C459.815 481.644 451.855 480.815 443.886 481.013C438.981 481.212 434.918 482.24 433.155 487.253C431.346 492.434 432.71 498.934 434.335 504.116Z" fill="#1E376C"/>
<path d="M443.518 490.595C448.7 491.913 453.927 493.446 459.124 495.102C457.77 493.63 456.337 492.233 454.832 490.917C452.594 489.062 450.141 487.575 447.734 485.95C447.535 485.812 447.657 485.428 447.918 485.52C452.957 487.624 457.31 491.09 460.489 495.531C466.973 497.616 473.381 499.931 479.559 502.46C483.843 504.212 487.95 506.368 491.824 508.899C490.58 506.219 489.103 503.654 487.408 501.234C484.572 497.57 480.74 495.531 477.045 492.925C476.988 492.872 476.951 492.802 476.94 492.726C476.929 492.649 476.944 492.571 476.984 492.505C477.024 492.438 477.085 492.387 477.157 492.36C477.23 492.334 477.309 492.333 477.383 492.358C481.255 494.039 484.734 496.512 487.596 499.616C490.458 502.721 492.639 506.389 494 510.386C498.442 513.566 502.501 517.249 506.096 521.362C520.2 537.382 531.314 558.707 531.345 580.46C531.345 580.966 530.517 581.12 530.425 580.583C526.409 558.967 517.885 539.575 503.521 522.803C502.509 521.623 501.466 520.504 500.454 519.415C496.586 518.899 492.691 518.612 488.788 518.557C484.189 518.557 479.759 519.216 475.236 519.584C467.786 520.197 459.569 520.274 452.854 516.518C452.548 516.349 452.747 515.844 453.084 515.966C468.046 521.408 483.745 514.433 498.753 517.744C492.34 511.641 484.836 506.799 476.631 503.472L475.252 502.92C465.64 504.085 455.506 506.584 446.124 503.457C446.065 503.44 446.015 503.401 445.985 503.348C445.955 503.295 445.947 503.232 445.963 503.173C445.979 503.114 446.018 503.064 446.072 503.034C446.125 503.004 446.188 502.996 446.247 503.012C455.276 505.281 463.953 502.43 472.86 501.985C463.156 498.198 453.253 495.194 443.518 491.438C442.644 491.116 442.629 490.319 443.518 490.595Z" fill="#263238"/>
<path d="M439.272 500.038C443.909 500.65 448.577 501.003 453.253 501.096C453.36 501.096 453.406 501.28 453.253 501.295C448.55 502.17 443.702 501.859 439.149 500.391C439.126 500.383 439.105 500.37 439.087 500.354C439.068 500.337 439.053 500.318 439.043 500.296C439.032 500.273 439.026 500.25 439.024 500.225C439.023 500.201 439.026 500.176 439.034 500.153C439.042 500.13 439.055 500.108 439.071 500.09C439.088 500.072 439.107 500.057 439.129 500.046C439.151 500.036 439.175 500.029 439.2 500.028C439.224 500.026 439.249 500.03 439.272 500.038Z" fill="#263238"/>
<path d="M470.852 490.825C473.439 491.981 475.784 493.614 477.766 495.638C478.012 495.853 477.69 496.282 477.414 496.083C476.249 495.24 475.037 494.427 473.826 493.645C472.66 493.004 471.534 492.292 470.454 491.514C470.391 491.45 470.351 491.366 470.34 491.277C470.328 491.187 470.347 491.097 470.392 491.019C470.437 490.941 470.506 490.879 470.59 490.844C470.673 490.809 470.765 490.802 470.852 490.825Z" fill="#263238"/>
<path d="M546.124 525.44C545.97 525.793 546.476 526.13 546.676 525.747C546.715 525.803 546.765 525.851 546.823 525.888C546.881 525.924 546.945 525.95 547.013 525.961C555.597 528.027 564.301 529.563 573.074 530.56C580.126 531.189 588.251 531.588 594.414 527.494C602.784 521.945 608.211 507.121 603.75 497.708C598.415 486.532 582.288 492.603 574.209 496.573C561.767 502.625 551.832 512.837 546.124 525.44Z" fill="#1E376C"/>
<path d="M539.869 530.606C544.571 526.062 549.794 522.089 555.429 518.771C559.478 512.35 564.858 506.871 571.204 502.705C571.495 502.491 571.771 502.966 571.48 503.181C566.444 507.225 561.973 511.927 558.189 517.162C564.47 513.734 570.992 510.767 577.704 508.286C580.108 503.843 583.751 500.195 588.19 497.784C588.19 497.784 588.389 497.861 588.297 497.938C584.629 500.722 581.43 504.076 578.823 507.872C582.794 506.339 586.795 505.005 590.796 503.687C591.164 503.564 591.302 504.116 590.949 504.238C583.836 507.029 576.554 509.957 569.487 513.345C578.12 514.723 586.916 514.723 595.549 513.345C595.778 513.345 595.886 513.651 595.64 513.713C586.653 516.373 577.109 516.516 568.046 514.126C563.553 516.321 559.187 518.767 554.969 521.454C558.519 521.168 562.092 521.463 565.547 522.328C571.638 523.747 577.874 524.451 584.128 524.428C584.173 524.441 584.213 524.468 584.241 524.505C584.27 524.543 584.285 524.588 584.285 524.635C584.285 524.682 584.27 524.728 584.241 524.765C584.213 524.803 584.173 524.83 584.128 524.842C573.396 526.697 563.156 521.776 552.486 523.079C540.636 531.063 531.178 542.117 525.121 555.058C520.63 564.256 518.192 573.914 514.559 583.373C514.535 583.46 514.476 583.535 514.397 583.579C514.318 583.624 514.225 583.635 514.137 583.611C514.05 583.586 513.976 583.528 513.931 583.449C513.887 583.37 513.875 583.276 513.9 583.189C517.012 564.456 526.287 543.974 539.869 530.606Z" fill="#263238"/>
<path d="M572.384 505.036C573.098 503.767 574.032 502.635 575.143 501.694C576.047 500.704 577.129 499.893 578.332 499.302C578.355 499.298 578.378 499.302 578.399 499.312C578.419 499.322 578.436 499.339 578.446 499.36C578.457 499.381 578.46 499.404 578.456 499.427C578.452 499.449 578.441 499.47 578.424 499.486C577.55 500.483 576.308 501.218 575.358 502.184C574.407 503.15 573.61 504.284 572.629 505.25C572.506 505.358 572.307 505.204 572.384 505.036Z" fill="#263238"/>
<path d="M590.167 510.831C591.7 510.417 593.448 510.447 595.073 510.125C596.686 509.734 598.277 509.258 599.841 508.7C599.885 508.679 599.936 508.678 599.982 508.695C600.028 508.712 600.065 508.747 600.086 508.792C600.106 508.836 600.108 508.887 600.091 508.933C600.073 508.979 600.039 509.017 599.994 509.037C597.055 510.849 593.604 511.651 590.167 511.321C590.117 511.303 590.073 511.27 590.042 511.226C590.011 511.182 589.995 511.13 589.995 511.076C589.995 511.022 590.011 510.97 590.042 510.926C590.073 510.882 590.117 510.849 590.167 510.831Z" fill="#263238"/>
<path d="M495.457 560.132L496.882 576.198L501.681 630.452H544.161L550.155 576.198L551.933 560.132H495.457Z" fill="#37474F"/>
<path d="M495.457 560.132L496.882 576.198H550.155L551.933 560.132H495.457Z" fill="#263238"/>
<path d="M491.257 568.779H556.134V555.748H491.257V568.779Z" fill="#37474F"/>
<path d="M11.666 630.452C202.665 629.502 416.92 629.502 607.92 630.452C416.92 631.387 202.665 631.387 11.666 630.452Z" fill="#263238"/>
<path d="M519.802 76.7401H99.9531V259.814H519.802V76.7401Z" fill="white"/>
<path d="M519.817 259.829C519.74 259.936 99.7688 259.967 99.7688 260.044C99.7688 260.12 99.7688 76.8168 99.6309 76.7554V76.4028H99.9834C99.9834 76.4028 519.924 76.6634 520.031 76.6021C520.139 76.5408 519.786 259.722 519.878 259.844L519.817 259.829ZM519.817 259.829C519.817 259.829 519.464 76.0809 519.817 76.9087L99.9528 77.108L100.321 76.7401C100.321 76.7401 100.428 260.703 99.9681 259.599L519.817 259.829Z" fill="#263238"/>
<path d="M519.802 76.7401H99.9531V89.8474H519.802V76.7401Z" fill="#263238"/>
<path d="M112.601 83.3015C112.601 83.823 112.446 84.3328 112.156 84.7664C111.867 85.2 111.455 85.538 110.973 85.7376C110.491 85.9371 109.961 85.9893 109.45 85.8876C108.938 85.7859 108.468 85.5347 108.099 85.166C107.731 84.7972 107.48 84.3274 107.378 83.8159C107.276 83.3044 107.328 82.7742 107.528 82.2924C107.727 81.8106 108.065 81.3988 108.499 81.1091C108.933 80.8193 109.442 80.6647 109.964 80.6647C110.662 80.6687 111.33 80.9478 111.824 81.4414C112.318 81.935 112.597 82.6034 112.601 83.3015Z" fill="#1E376C"/>
<path d="M123.393 83.3014C123.396 83.8272 123.243 84.3421 122.953 84.7806C122.662 85.2191 122.248 85.5614 121.763 85.764C121.278 85.9666 120.743 86.0204 120.227 85.9186C119.711 85.8167 119.237 85.5638 118.866 85.192C118.494 84.8202 118.241 84.3462 118.139 83.8303C118.037 83.3144 118.091 82.7799 118.294 82.2947C118.496 81.8095 118.839 81.3954 119.277 81.1052C119.716 80.8149 120.23 80.6616 120.756 80.6646C121.454 80.6686 122.123 80.9477 122.616 81.4413C123.11 81.935 123.389 82.6033 123.393 83.3014Z" fill="white"/>
<path d="M134.186 83.3015C134.189 83.8267 134.036 84.3409 133.746 84.7791C133.457 85.2172 133.043 85.5595 132.559 85.7626C132.075 85.9657 131.541 86.0204 131.026 85.9198C130.51 85.8192 130.036 85.5679 129.664 85.1976C129.291 84.8273 129.037 84.3548 128.933 83.8399C128.83 83.325 128.881 82.791 129.082 82.3055C129.282 81.8199 129.622 81.4048 130.058 81.1127C130.495 80.8206 131.008 80.6647 131.533 80.6647C132.234 80.6647 132.906 80.942 133.403 81.436C133.9 81.9301 134.182 82.6007 134.186 83.3015Z" fill="#455A64"/>
<path d="M133.987 136.865C133.987 137.138 133.879 137.399 133.686 137.591C133.493 137.784 133.232 137.892 132.96 137.892C132.687 137.892 132.426 137.784 132.233 137.591C132.041 137.399 131.932 137.138 131.932 136.865V125.904C131.928 125.736 131.964 125.57 132.035 125.418C132.107 125.266 132.214 125.133 132.346 125.03C132.569 124.872 132.844 124.808 133.114 124.851C133.383 124.894 133.625 125.041 133.787 125.26L139.92 133.692V125.919C139.92 125.647 140.028 125.386 140.22 125.193C140.413 125.001 140.674 124.892 140.947 124.892C141.219 124.892 141.48 125.001 141.673 125.193C141.866 125.386 141.974 125.647 141.974 125.919V136.881C141.97 137.153 141.861 137.414 141.67 137.608C141.478 137.802 141.219 137.915 140.947 137.923C140.796 137.921 140.648 137.886 140.512 137.82C140.377 137.753 140.258 137.658 140.165 137.54L140.073 137.432L134.033 129.047L133.987 136.865Z" fill="#263238"/>
<path d="M154.237 133.201V136.896C154.237 137.162 154.133 137.417 153.947 137.606C153.76 137.795 153.507 137.904 153.241 137.908C153.01 137.902 152.787 137.819 152.609 137.672C152.431 137.524 152.308 137.321 152.26 137.095C151.527 137.622 150.648 137.906 149.746 137.908C149.146 137.907 148.553 137.785 148.002 137.548C147.451 137.31 146.954 136.963 146.542 136.528C145.705 135.623 145.244 134.434 145.254 133.201C145.236 131.972 145.698 130.784 146.542 129.89C146.947 129.442 147.442 129.084 147.993 128.839C148.545 128.593 149.142 128.466 149.746 128.464C150.652 128.469 151.534 128.764 152.26 129.307C152.302 129.076 152.422 128.865 152.601 128.712C152.78 128.558 153.006 128.471 153.241 128.464C153.374 128.466 153.505 128.494 153.627 128.547C153.749 128.6 153.859 128.676 153.952 128.771C154.045 128.867 154.117 128.979 154.166 129.103C154.215 129.227 154.239 129.358 154.237 129.491V133.201ZM152.245 133.201C152.257 132.487 151.994 131.795 151.509 131.27C151.288 131.021 151.016 130.823 150.712 130.688C150.408 130.553 150.078 130.485 149.746 130.488C149.415 130.48 149.086 130.546 148.783 130.681C148.481 130.816 148.213 131.017 147.998 131.27C147.512 131.793 147.253 132.487 147.278 133.201C147.258 133.919 147.516 134.616 147.998 135.148C148.222 135.386 148.493 135.574 148.794 135.701C149.095 135.827 149.419 135.89 149.746 135.884C150.074 135.886 150.399 135.821 150.702 135.695C151.005 135.568 151.279 135.383 151.509 135.148C151.988 134.614 152.25 133.919 152.245 133.201Z" fill="#263238"/>
<path d="M165.827 132.373V136.973C165.827 137.238 165.723 137.493 165.536 137.683C165.35 137.872 165.096 137.98 164.831 137.984C164.562 137.981 164.305 137.873 164.114 137.685C163.922 137.496 163.811 137.241 163.803 136.973V132.373C163.76 131.893 163.539 131.446 163.183 131.12C162.827 130.794 162.362 130.614 161.879 130.614C161.397 130.614 160.932 130.794 160.576 131.12C160.22 131.446 159.998 131.893 159.956 132.373V136.835C159.956 136.835 159.956 136.942 159.956 136.973C159.956 136.973 159.956 136.973 159.956 137.08V137.172C159.868 137.348 159.736 137.498 159.571 137.606C159.407 137.713 159.217 137.775 159.02 137.785H158.836C158.609 137.739 158.404 137.617 158.256 137.438C158.108 137.26 158.026 137.036 158.024 136.804V132.343V129.415C158.02 129.281 158.043 129.148 158.091 129.024C158.139 128.9 158.212 128.786 158.305 128.69C158.398 128.594 158.509 128.518 158.632 128.466C158.755 128.414 158.887 128.388 159.02 128.388C159.21 128.383 159.397 128.434 159.558 128.535C159.719 128.636 159.847 128.782 159.925 128.955C160.537 128.59 161.236 128.394 161.948 128.388C162.506 128.382 163.058 128.496 163.568 128.72C164.078 128.945 164.535 129.276 164.907 129.691C165.276 129.272 165.732 128.938 166.243 128.713C166.754 128.488 167.308 128.377 167.866 128.388C168.912 128.396 169.913 128.818 170.648 129.562C171.384 130.306 171.795 131.312 171.79 132.358V136.819C171.79 137.085 171.686 137.34 171.5 137.529C171.313 137.719 171.06 137.827 170.794 137.831C170.524 137.831 170.265 137.725 170.073 137.536C169.881 137.346 169.771 137.089 169.767 136.819V132.358C169.771 131.848 169.573 131.358 169.217 130.993C168.861 130.628 168.376 130.419 167.866 130.411C167.601 130.399 167.337 130.44 167.089 130.533C166.841 130.627 166.615 130.769 166.424 130.953C166.233 131.137 166.082 131.358 165.979 131.602C165.876 131.846 165.825 132.109 165.827 132.373Z" fill="#263238"/>
<path d="M175.225 133.125C175.216 131.891 175.694 130.704 176.555 129.82C177.416 128.936 178.59 128.427 179.824 128.403C181.014 128.378 182.166 128.826 183.027 129.647C183.889 130.468 184.391 131.597 184.423 132.788V132.879C184.43 132.935 184.43 132.992 184.423 133.048C184.385 133.274 184.263 133.478 184.081 133.617C183.898 133.757 183.67 133.822 183.442 133.799H177.448C177.529 134.274 177.754 134.713 178.091 135.056C178.578 135.54 179.218 135.838 179.9 135.9C180.589 135.967 181.281 135.8 181.863 135.424C182.058 135.254 182.309 135.16 182.568 135.16C182.827 135.16 183.078 135.254 183.273 135.424C183.434 135.588 183.524 135.808 183.524 136.038C183.524 136.267 183.434 136.487 183.273 136.651C182.594 137.272 181.749 137.684 180.841 137.836C179.933 137.989 179.001 137.875 178.156 137.508C177.311 137.142 176.591 136.539 176.082 135.772C175.572 135.005 175.296 134.107 175.286 133.186L175.225 133.125ZM177.294 132.205H182.629C182.418 131.63 182.039 131.131 181.542 130.773C181.045 130.415 180.452 130.214 179.839 130.197C179.242 130.198 178.664 130.404 178.2 130.781C177.737 131.158 177.417 131.682 177.294 132.266V132.205Z" fill="#263238"/>
<path d="M489.632 152.87H129.954V187.639H489.632V152.87Z" fill="#EBEBEB"/>
<path d="M144.134 165.211C144.134 165.13 144.167 165.052 144.224 164.994C144.282 164.937 144.36 164.904 144.441 164.904H149.04C149.081 164.902 149.122 164.908 149.16 164.923C149.198 164.938 149.233 164.96 149.262 164.989C149.291 165.018 149.313 165.053 149.328 165.091C149.342 165.129 149.349 165.17 149.347 165.211C149.349 165.252 149.342 165.294 149.328 165.333C149.313 165.372 149.291 165.408 149.262 165.438C149.234 165.468 149.199 165.492 149.161 165.508C149.123 165.524 149.082 165.533 149.04 165.533H144.778V169.059H148.503C148.585 169.059 148.663 169.091 148.72 169.149C148.778 169.206 148.81 169.284 148.81 169.365C148.81 169.447 148.778 169.525 148.72 169.582C148.663 169.64 148.585 169.672 148.503 169.672H144.778V173.198H149.04C149.082 173.198 149.123 173.206 149.161 173.223C149.199 173.239 149.234 173.263 149.262 173.293C149.291 173.323 149.313 173.359 149.328 173.398C149.342 173.437 149.349 173.478 149.347 173.52C149.347 173.601 149.314 173.679 149.257 173.737C149.199 173.794 149.121 173.826 149.04 173.826H144.441C144.365 173.819 144.295 173.783 144.244 173.726C144.193 173.67 144.165 173.596 144.165 173.52L144.134 165.211Z" fill="#A6A6A6"/>
<path d="M156.016 170.132C156.016 169.619 155.813 169.128 155.45 168.766C155.088 168.404 154.597 168.2 154.085 168.2C153.575 168.208 153.088 168.414 152.728 168.775C152.367 169.135 152.161 169.622 152.153 170.132V173.566C152.161 173.611 152.161 173.658 152.153 173.704C152.127 173.741 152.092 173.771 152.053 173.792C152.013 173.813 151.968 173.825 151.923 173.826C151.834 173.797 151.758 173.737 151.708 173.658V167.955C151.706 167.914 151.713 167.873 151.727 167.835C151.742 167.797 151.764 167.762 151.793 167.733C151.822 167.704 151.857 167.682 151.895 167.667C151.933 167.652 151.974 167.646 152.015 167.648C152.055 167.648 152.094 167.656 152.13 167.672C152.167 167.687 152.199 167.71 152.227 167.739C152.254 167.768 152.275 167.802 152.289 167.839C152.302 167.876 152.308 167.915 152.306 167.955V168.553C152.542 168.269 152.837 168.04 153.171 167.884C153.505 167.728 153.869 167.647 154.238 167.648C154.913 167.648 155.56 167.916 156.037 168.394C156.515 168.871 156.783 169.518 156.783 170.193V173.581C156.779 173.661 156.746 173.737 156.689 173.794C156.632 173.85 156.556 173.884 156.476 173.888C156.395 173.888 156.317 173.855 156.259 173.798C156.202 173.74 156.17 173.662 156.17 173.581L156.016 170.132Z" fill="#A6A6A6"/>
<path d="M161.55 167.878C161.543 167.957 161.509 168.031 161.452 168.087C161.396 168.143 161.322 168.178 161.243 168.185H160.431V172.784C160.438 172.903 160.489 173.016 160.574 173.101C160.658 173.186 160.771 173.237 160.891 173.244C160.974 173.251 161.052 173.287 161.111 173.346C161.17 173.405 161.206 173.483 161.213 173.566C161.205 173.647 161.169 173.723 161.109 173.78C161.05 173.836 160.972 173.869 160.891 173.872C160.747 173.877 160.603 173.851 160.469 173.798C160.335 173.745 160.214 173.665 160.112 173.563C160.01 173.461 159.93 173.339 159.877 173.205C159.823 173.071 159.798 172.928 159.802 172.784V168.185H159.02C158.714 168.185 158.714 168.032 158.714 167.878C158.714 167.725 158.714 167.572 159.02 167.572H159.802V165.318C159.809 165.239 159.844 165.165 159.9 165.109C159.956 165.053 160.03 165.018 160.109 165.011C160.191 165.015 160.268 165.048 160.328 165.104C160.387 165.161 160.424 165.237 160.431 165.318V167.633H161.243C161.314 167.637 161.381 167.662 161.436 167.706C161.491 167.75 161.531 167.81 161.55 167.878Z" fill="#A6A6A6"/>
<path d="M163.512 170.714C163.421 170.278 163.425 169.826 163.526 169.391C163.627 168.956 163.821 168.549 164.096 168.197C164.37 167.845 164.719 167.557 165.116 167.354C165.513 167.151 165.95 167.037 166.396 167.02C166.842 167.003 167.287 167.083 167.698 167.256C168.11 167.428 168.479 167.689 168.779 168.019C169.08 168.349 169.305 168.74 169.438 169.166C169.572 169.592 169.611 170.042 169.553 170.484C169.551 170.523 169.541 170.56 169.525 170.595C169.508 170.629 169.485 170.66 169.456 170.686C169.428 170.712 169.395 170.731 169.359 170.744C169.322 170.757 169.284 170.762 169.246 170.76H164.156C164.172 171.394 164.43 171.997 164.878 172.445C165.326 172.893 165.93 173.152 166.563 173.167C166.969 173.164 167.367 173.058 167.721 172.86C168.074 172.662 168.372 172.377 168.587 172.033C168.606 172 168.631 171.97 168.662 171.947C168.692 171.924 168.727 171.906 168.764 171.896C168.801 171.886 168.839 171.884 168.877 171.889C168.915 171.894 168.952 171.906 168.985 171.925C169.021 171.946 169.053 171.974 169.077 172.007C169.102 172.039 169.12 172.077 169.13 172.117C169.14 172.157 169.142 172.199 169.136 172.24C169.129 172.281 169.115 172.32 169.093 172.355C168.822 172.783 168.449 173.137 168.007 173.386C167.566 173.635 167.07 173.77 166.563 173.78C165.753 173.776 164.977 173.452 164.405 172.877C163.833 172.302 163.512 171.525 163.512 170.714ZM164.156 170.208H168.878C168.788 169.649 168.503 169.139 168.074 168.769C167.645 168.399 167.099 168.192 166.532 168.185C165.962 168.191 165.412 168.397 164.978 168.767C164.544 169.136 164.253 169.647 164.156 170.208Z" fill="#A6A6A6"/>
<path d="M171.453 167.894C171.451 167.853 171.457 167.812 171.472 167.774C171.487 167.736 171.509 167.701 171.538 167.672C171.567 167.643 171.602 167.621 171.64 167.606C171.678 167.591 171.719 167.585 171.76 167.587C171.841 167.587 171.919 167.619 171.976 167.677C172.034 167.734 172.066 167.812 172.066 167.894V169.273C172.086 169.219 172.111 169.168 172.143 169.12C172.398 168.676 172.761 168.303 173.197 168.036C173.634 167.768 174.13 167.614 174.642 167.587C174.683 167.585 174.723 167.591 174.762 167.606C174.8 167.621 174.835 167.643 174.863 167.672C174.892 167.701 174.915 167.736 174.93 167.774C174.944 167.812 174.951 167.853 174.948 167.894C174.948 167.975 174.916 168.053 174.859 168.111C174.801 168.168 174.723 168.2 174.642 168.2C174.28 168.215 173.927 168.316 173.613 168.494C173.298 168.673 173.031 168.924 172.833 169.227C172.517 169.671 172.265 170.156 172.082 170.668C172.076 170.704 172.076 170.74 172.082 170.776V173.52C172.078 173.6 172.044 173.676 171.988 173.733C171.931 173.789 171.855 173.823 171.775 173.827C171.694 173.827 171.616 173.794 171.558 173.737C171.501 173.679 171.468 173.601 171.468 173.52L171.453 167.894Z" fill="#A6A6A6"/>
<path d="M180.345 167.863C180.348 167.787 180.38 167.715 180.434 167.661C180.488 167.607 180.56 167.575 180.636 167.572C180.676 167.57 180.716 167.576 180.754 167.589C180.792 167.603 180.827 167.623 180.857 167.651C180.887 167.678 180.911 167.71 180.929 167.747C180.946 167.783 180.956 167.823 180.958 167.863V171.251C180.956 171.504 181.004 171.755 181.099 171.989C181.195 172.223 181.335 172.436 181.514 172.616C181.692 172.795 181.904 172.938 182.137 173.035C182.371 173.132 182.621 173.183 182.874 173.183C183.385 173.179 183.874 172.974 184.235 172.612C184.597 172.251 184.802 171.762 184.806 171.251V167.863C184.792 167.813 184.792 167.76 184.806 167.71C184.835 167.676 184.871 167.65 184.913 167.633H185.051H185.204L185.281 167.74C185.291 167.781 185.291 167.823 185.281 167.863V173.321C185.279 173.708 185.2 174.092 185.049 174.449C184.899 174.807 184.679 175.131 184.402 175.403C184.126 175.675 183.799 175.89 183.439 176.035C183.079 176.18 182.695 176.253 182.307 176.249C181.861 176.246 181.422 176.147 181.019 175.957C180.952 175.919 180.902 175.856 180.88 175.782C180.857 175.708 180.863 175.628 180.896 175.559C180.933 175.489 180.993 175.435 181.067 175.406C181.14 175.378 181.221 175.378 181.295 175.405C181.61 175.559 181.956 175.637 182.307 175.635C182.926 175.639 183.522 175.398 183.964 174.965C184.407 174.531 184.66 173.94 184.668 173.321V172.983C184.425 173.257 184.128 173.478 183.795 173.631C183.463 173.784 183.102 173.866 182.736 173.872C182.062 173.864 181.419 173.591 180.946 173.112C180.472 172.633 180.206 171.986 180.207 171.312L180.345 167.863Z" fill="#A6A6A6"/>
<path d="M190.647 167.572C191.257 167.55 191.86 167.712 192.378 168.035C192.896 168.359 193.306 168.83 193.555 169.388C193.803 169.946 193.88 170.566 193.774 171.167C193.668 171.769 193.385 172.325 192.96 172.765C192.536 173.205 191.99 173.507 191.393 173.635C190.795 173.762 190.173 173.708 189.607 173.479C189.04 173.251 188.555 172.858 188.213 172.352C187.871 171.846 187.688 171.249 187.688 170.638C187.688 169.843 187.996 169.079 188.548 168.507C189.1 167.935 189.852 167.6 190.647 167.572ZM190.647 173.213C191.154 173.25 191.66 173.133 192.1 172.878C192.54 172.623 192.893 172.241 193.112 171.783C193.332 171.324 193.408 170.81 193.331 170.307C193.254 169.804 193.027 169.337 192.68 168.965C192.333 168.593 191.882 168.334 191.386 168.223C190.89 168.111 190.372 168.151 189.899 168.339C189.427 168.526 189.021 168.851 188.736 169.272C188.451 169.693 188.299 170.191 188.301 170.699C188.285 171.342 188.521 171.966 188.96 172.436C189.398 172.906 190.004 173.185 190.647 173.213Z" fill="#A6A6A6"/>
<path d="M195.613 167.863C195.613 167.782 195.646 167.704 195.703 167.646C195.761 167.589 195.839 167.556 195.92 167.556C196.001 167.556 196.079 167.589 196.137 167.646C196.194 167.704 196.226 167.782 196.226 167.863V171.266C196.203 171.533 196.235 171.803 196.32 172.057C196.406 172.311 196.544 172.544 196.725 172.742C196.906 172.94 197.126 173.098 197.372 173.206C197.617 173.314 197.882 173.37 198.15 173.37C198.419 173.37 198.684 173.314 198.929 173.206C199.175 173.098 199.395 172.94 199.576 172.742C199.757 172.544 199.895 172.311 199.98 172.057C200.066 171.803 200.098 171.533 200.074 171.266V167.863C200.078 167.783 200.112 167.707 200.168 167.65C200.225 167.594 200.301 167.56 200.381 167.556C200.423 167.554 200.464 167.561 200.503 167.575C200.542 167.59 200.578 167.612 200.608 167.641C200.638 167.669 200.662 167.704 200.678 167.742C200.695 167.78 200.703 167.821 200.703 167.863V171.266C200.703 171.601 200.637 171.931 200.509 172.24C200.381 172.549 200.194 172.829 199.958 173.066C199.721 173.302 199.441 173.49 199.132 173.617C198.823 173.745 198.492 173.811 198.158 173.811C197.824 173.811 197.493 173.745 197.184 173.617C196.875 173.49 196.595 173.302 196.359 173.066C196.122 172.829 195.935 172.549 195.807 172.24C195.679 171.931 195.613 171.601 195.613 171.266V167.863Z" fill="#A6A6A6"/>
<path d="M203.555 167.894C203.555 167.852 203.564 167.811 203.58 167.773C203.596 167.734 203.62 167.7 203.65 167.671C203.68 167.643 203.716 167.62 203.755 167.606C203.794 167.591 203.836 167.585 203.877 167.587C203.917 167.587 203.956 167.595 203.992 167.611C204.029 167.626 204.061 167.649 204.089 167.678C204.116 167.706 204.137 167.74 204.151 167.778C204.164 167.815 204.17 167.854 204.168 167.894V169.273C204.193 169.219 204.224 169.168 204.26 169.12C204.516 168.676 204.878 168.303 205.315 168.036C205.751 167.768 206.248 167.614 206.759 167.587C206.8 167.585 206.841 167.591 206.879 167.606C206.917 167.621 206.952 167.643 206.981 167.672C207.01 167.701 207.032 167.736 207.047 167.774C207.062 167.812 207.068 167.853 207.066 167.894C207.066 167.975 207.034 168.053 206.976 168.111C206.919 168.168 206.841 168.2 206.759 168.2C206.397 168.212 206.043 168.312 205.728 168.491C205.413 168.67 205.146 168.923 204.95 169.227C204.623 169.663 204.369 170.15 204.199 170.668C204.188 170.703 204.188 170.741 204.199 170.776V173.52C204.199 173.599 204.169 173.674 204.115 173.731C204.061 173.789 203.986 173.823 203.908 173.827C203.866 173.829 203.825 173.822 203.786 173.808C203.747 173.793 203.711 173.771 203.681 173.742C203.651 173.714 203.627 173.679 203.611 173.641C203.594 173.603 203.586 173.561 203.586 173.52L203.555 167.894Z" fill="#A6A6A6"/>
<path d="M217.428 170.132C217.43 169.879 217.382 169.628 217.287 169.394C217.192 169.159 217.051 168.946 216.873 168.767C216.694 168.587 216.483 168.445 216.249 168.347C216.016 168.25 215.765 168.2 215.512 168.2C215.001 168.204 214.512 168.409 214.151 168.77C213.789 169.132 213.585 169.621 213.581 170.132V173.566C213.571 173.619 213.544 173.667 213.504 173.704C213.481 173.74 213.449 173.771 213.412 173.792C213.375 173.813 213.332 173.825 213.289 173.826H213.213C213.123 173.797 213.047 173.737 212.998 173.658V167.955C212.996 167.914 213.002 167.873 213.017 167.835C213.031 167.797 213.054 167.762 213.083 167.733C213.112 167.704 213.146 167.682 213.185 167.667C213.223 167.652 213.264 167.646 213.305 167.648C213.383 167.652 213.457 167.686 213.512 167.743C213.566 167.8 213.596 167.876 213.596 167.955V168.553C213.831 168.269 214.126 168.04 214.46 167.884C214.794 167.728 215.159 167.647 215.527 167.648C216.2 167.652 216.843 167.922 217.317 168.399C217.791 168.876 218.057 169.521 218.057 170.193V173.581C218.057 173.662 218.025 173.74 217.967 173.798C217.91 173.855 217.832 173.888 217.75 173.888C217.67 173.884 217.594 173.85 217.538 173.794C217.481 173.737 217.447 173.661 217.444 173.581L217.428 170.132Z" fill="#A6A6A6"/>
<path d="M226.028 167.878V173.52C226.028 173.601 225.996 173.679 225.939 173.737C225.881 173.794 225.803 173.826 225.722 173.826C225.641 173.826 225.563 173.794 225.505 173.737C225.448 173.679 225.415 173.601 225.415 173.52V172.585C225.149 172.961 224.798 173.269 224.39 173.485C223.983 173.701 223.531 173.818 223.07 173.826C222.24 173.826 221.445 173.497 220.858 172.91C220.272 172.324 219.942 171.528 219.942 170.699C219.942 169.87 220.272 169.074 220.858 168.488C221.445 167.901 222.24 167.572 223.07 167.572C223.53 167.578 223.982 167.692 224.389 167.905C224.796 168.118 225.148 168.424 225.415 168.798V167.878C225.415 167.797 225.448 167.719 225.505 167.661C225.563 167.604 225.641 167.572 225.722 167.572C225.803 167.572 225.881 167.604 225.939 167.661C225.996 167.719 226.028 167.797 226.028 167.878ZM225.415 170.699C225.382 170.244 225.218 169.808 224.941 169.445C224.664 169.082 224.287 168.808 223.857 168.656C223.426 168.504 222.961 168.481 222.517 168.59C222.074 168.698 221.672 168.934 221.361 169.268C221.049 169.601 220.842 170.019 220.764 170.469C220.687 170.918 220.742 171.381 220.924 171.8C221.105 172.219 221.405 172.576 221.786 172.827C222.167 173.078 222.613 173.212 223.07 173.213C223.393 173.207 223.712 173.137 224.009 173.008C224.305 172.878 224.573 172.691 224.796 172.457C225.02 172.223 225.195 171.948 225.312 171.646C225.429 171.344 225.485 171.022 225.477 170.699H225.415Z" fill="#A6A6A6"/>
<path d="M237.603 170.132C237.627 169.865 237.595 169.596 237.509 169.342C237.424 169.088 237.286 168.854 237.105 168.656C236.924 168.459 236.704 168.301 236.458 168.192C236.213 168.084 235.948 168.028 235.679 168.028C235.411 168.028 235.146 168.084 234.901 168.192C234.655 168.301 234.435 168.459 234.254 168.656C234.073 168.854 233.935 169.088 233.849 169.342C233.764 169.596 233.732 169.865 233.755 170.132V173.597C233.726 173.669 233.671 173.729 233.602 173.765C233.552 173.779 233.499 173.779 233.449 173.765H233.357V170.301C233.381 170.034 233.349 169.764 233.263 169.51C233.177 169.256 233.039 169.023 232.858 168.825C232.677 168.627 232.457 168.469 232.212 168.361C231.966 168.253 231.701 168.197 231.433 168.197C231.165 168.197 230.9 168.253 230.654 168.361C230.409 168.469 230.189 168.627 230.008 168.825C229.827 169.023 229.689 169.256 229.603 169.51C229.517 169.764 229.485 170.034 229.509 170.301V173.689C229.512 173.738 229.5 173.788 229.476 173.831C229.452 173.875 229.415 173.91 229.371 173.934H229.248C229.188 173.923 229.132 173.896 229.086 173.855C229.04 173.815 229.006 173.762 228.988 173.704V167.986C228.988 167.909 229.018 167.834 229.073 167.78C229.128 167.725 229.202 167.694 229.279 167.694C229.319 167.692 229.358 167.698 229.395 167.712C229.432 167.726 229.466 167.747 229.495 167.774C229.524 167.801 229.547 167.834 229.562 167.871C229.578 167.907 229.586 167.946 229.586 167.986V168.584C229.853 168.27 230.192 168.027 230.575 167.874C230.957 167.722 231.371 167.665 231.78 167.709C232.19 167.753 232.582 167.896 232.924 168.126C233.265 168.356 233.546 168.665 233.74 169.028C233.961 168.627 234.285 168.292 234.678 168.057C235.072 167.823 235.52 167.698 235.978 167.694C236.653 167.694 237.301 167.963 237.778 168.44C238.255 168.917 238.523 169.564 238.523 170.239V173.627C238.523 173.709 238.491 173.787 238.433 173.844C238.376 173.902 238.298 173.934 238.217 173.934C238.135 173.934 238.057 173.902 238 173.844C237.942 173.787 237.91 173.709 237.91 173.627L237.603 170.132Z" fill="#A6A6A6"/>
<path d="M240.363 170.714C240.353 170.305 240.424 169.898 240.574 169.517C240.723 169.137 240.948 168.789 241.233 168.497C241.519 168.204 241.86 167.971 242.238 167.812C242.615 167.653 243.02 167.572 243.429 167.572C244.216 167.571 244.974 167.873 245.544 168.415C246.115 168.957 246.455 169.698 246.495 170.484C246.495 170.522 246.487 170.559 246.472 170.594C246.458 170.628 246.436 170.659 246.409 170.685C246.381 170.711 246.349 170.731 246.314 170.744C246.279 170.757 246.241 170.762 246.204 170.76H240.961C240.976 171.396 241.237 172.002 241.688 172.45C242.14 172.899 242.747 173.156 243.383 173.167C243.788 173.164 244.187 173.058 244.54 172.86C244.894 172.662 245.192 172.377 245.406 172.033C245.425 171.999 245.451 171.97 245.481 171.947C245.512 171.923 245.546 171.906 245.583 171.896C245.62 171.886 245.659 171.884 245.697 171.889C245.735 171.894 245.772 171.906 245.805 171.925C245.874 171.97 245.924 172.039 245.944 172.119C245.964 172.199 245.953 172.283 245.912 172.355C245.641 172.783 245.268 173.137 244.827 173.386C244.386 173.635 243.889 173.77 243.383 173.78C242.578 173.768 241.81 173.44 241.244 172.866C240.679 172.293 240.363 171.52 240.363 170.714ZM241.007 170.208H245.728C245.638 169.649 245.353 169.139 244.924 168.769C244.495 168.399 243.949 168.192 243.383 168.185C242.813 168.191 242.263 168.397 241.828 168.766C241.394 169.136 241.103 169.646 241.007 170.208Z" fill="#A6A6A6"/>
<path d="M256.981 170.04C256.937 169.543 256.709 169.081 256.341 168.745C255.974 168.408 255.494 168.221 254.995 168.221C254.497 168.221 254.017 168.408 253.649 168.745C253.282 169.081 253.054 169.543 253.01 170.04V173.55C252.966 173.625 252.894 173.68 252.811 173.704H252.719C252.631 173.698 252.549 173.659 252.489 173.596C252.484 173.561 252.484 173.525 252.489 173.489C252.482 173.459 252.482 173.427 252.489 173.397V165.088C252.493 165.008 252.526 164.932 252.583 164.875C252.639 164.819 252.715 164.785 252.795 164.782C252.837 164.779 252.878 164.786 252.917 164.8C252.956 164.815 252.992 164.837 253.022 164.866C253.052 164.894 253.076 164.929 253.093 164.967C253.109 165.005 253.117 165.047 253.117 165.088V168.369C253.361 168.082 253.664 167.851 254.005 167.692C254.347 167.533 254.718 167.45 255.095 167.449C255.43 167.432 255.765 167.484 256.079 167.6C256.394 167.717 256.682 167.896 256.925 168.126C257.169 168.357 257.363 168.635 257.496 168.942C257.63 169.25 257.699 169.582 257.701 169.917V173.397C257.701 173.478 257.669 173.556 257.611 173.614C257.554 173.671 257.476 173.704 257.394 173.704C257.313 173.704 257.235 173.671 257.178 173.614C257.12 173.556 257.088 173.478 257.088 173.397L256.981 170.04Z" fill="#A6A6A6"/>
<path d="M259.756 170.714C259.664 170.278 259.668 169.826 259.769 169.391C259.87 168.956 260.064 168.549 260.339 168.197C260.614 167.845 260.962 167.557 261.359 167.354C261.756 167.151 262.193 167.037 262.639 167.02C263.085 167.003 263.53 167.083 263.941 167.256C264.353 167.428 264.722 167.689 265.023 168.019C265.323 168.349 265.548 168.74 265.682 169.166C265.815 169.592 265.854 170.042 265.796 170.484C265.796 170.523 265.788 170.562 265.772 170.598C265.756 170.633 265.733 170.665 265.704 170.691C265.675 170.717 265.641 170.737 265.604 170.749C265.567 170.761 265.528 170.765 265.489 170.76H260.369C260.384 171.396 260.645 172.002 261.096 172.45C261.548 172.899 262.155 173.156 262.791 173.167C263.195 173.166 263.591 173.061 263.943 172.862C264.295 172.663 264.589 172.378 264.799 172.033C264.841 171.965 264.907 171.915 264.984 171.895C265.062 171.875 265.144 171.886 265.213 171.925C265.28 171.972 265.327 172.042 265.344 172.122C265.361 172.202 265.347 172.285 265.305 172.355C265.043 172.788 264.674 173.146 264.234 173.395C263.794 173.645 263.297 173.778 262.791 173.78C261.983 173.772 261.211 173.446 260.643 172.872C260.074 172.298 259.756 171.522 259.756 170.714ZM260.399 170.208H265.136C265.057 169.637 264.773 169.114 264.338 168.735C263.902 168.356 263.345 168.148 262.768 168.148C262.191 168.148 261.634 168.356 261.198 168.735C260.763 169.114 260.479 169.637 260.399 170.208Z" fill="#A6A6A6"/>
<path d="M267.696 167.894C267.696 167.852 267.705 167.811 267.721 167.773C267.737 167.734 267.761 167.7 267.791 167.671C267.822 167.643 267.857 167.62 267.896 167.606C267.935 167.591 267.977 167.585 268.018 167.587C268.058 167.587 268.097 167.595 268.133 167.611C268.17 167.626 268.203 167.649 268.23 167.678C268.257 167.706 268.278 167.74 268.292 167.777C268.306 167.815 268.312 167.854 268.31 167.894V169.273C268.334 169.219 268.365 169.168 268.401 169.12C268.657 168.676 269.019 168.303 269.456 168.036C269.892 167.768 270.389 167.614 270.9 167.587C270.94 167.587 270.979 167.595 271.015 167.611C271.052 167.626 271.085 167.649 271.112 167.678C271.139 167.706 271.16 167.74 271.174 167.777C271.188 167.815 271.194 167.854 271.192 167.894C271.192 167.972 271.161 168.048 271.107 168.105C271.053 168.162 270.979 168.196 270.9 168.2C270.538 168.211 270.184 168.31 269.868 168.489C269.553 168.668 269.286 168.922 269.091 169.227C268.764 169.663 268.51 170.15 268.34 170.668C268.33 170.703 268.33 170.741 268.34 170.776V173.52C268.34 173.599 268.31 173.674 268.256 173.731C268.202 173.789 268.128 173.823 268.049 173.826C268.007 173.829 267.966 173.822 267.927 173.808C267.888 173.793 267.852 173.771 267.822 173.742C267.792 173.714 267.768 173.679 267.752 173.641C267.735 173.603 267.727 173.561 267.727 173.52L267.696 167.894Z" fill="#A6A6A6"/>
<path d="M272.204 170.714C272.193 170.305 272.265 169.898 272.415 169.517C272.564 169.137 272.788 168.789 273.074 168.497C273.36 168.204 273.701 167.971 274.078 167.812C274.455 167.653 274.86 167.572 275.27 167.572C276.057 167.571 276.814 167.873 277.385 168.415C277.956 168.957 278.296 169.698 278.336 170.484C278.336 170.523 278.328 170.562 278.312 170.598C278.296 170.633 278.273 170.665 278.244 170.691C278.215 170.717 278.181 170.737 278.144 170.749C278.107 170.761 278.068 170.765 278.029 170.76H272.909C272.924 171.396 273.185 172.002 273.636 172.45C274.088 172.899 274.695 173.156 275.331 173.167C275.735 173.166 276.131 173.061 276.483 172.862C276.835 172.663 277.129 172.378 277.339 172.033C277.381 171.964 277.447 171.915 277.524 171.895C277.602 171.875 277.684 171.886 277.753 171.925C277.82 171.972 277.867 172.041 277.887 172.12C277.907 172.199 277.897 172.282 277.86 172.355C277.589 172.783 277.217 173.137 276.775 173.386C276.334 173.635 275.838 173.77 275.331 173.78C274.923 173.789 274.518 173.715 274.139 173.565C273.76 173.414 273.414 173.19 273.123 172.904C272.832 172.619 272.601 172.278 272.443 171.902C272.285 171.526 272.204 171.122 272.204 170.714ZM272.863 170.208H277.6C277.51 169.649 277.225 169.139 276.796 168.769C276.367 168.399 275.821 168.192 275.254 168.185C274.681 168.187 274.128 168.392 273.69 168.762C273.253 169.132 272.96 169.644 272.863 170.208Z" fill="#A6A6A6"/>
<path d="M230.704 202.402H129.954V234.105H230.704V202.402Z" fill="#1E376C"/>
<path d="M145.913 218.238C145.941 216.728 146.561 215.289 147.639 214.231C148.717 213.173 150.167 212.581 151.677 212.581C152.991 212.572 154.271 213.004 155.31 213.808C155.491 213.958 155.609 214.17 155.641 214.403C155.672 214.636 155.614 214.872 155.479 215.065C155.334 215.252 155.12 215.375 154.885 215.406C154.65 215.438 154.412 215.376 154.222 215.233C153.5 214.659 152.6 214.355 151.677 214.375C150.626 214.377 149.616 214.783 148.856 215.509C148.495 215.866 148.207 216.291 148.01 216.759C147.812 217.227 147.709 217.73 147.707 218.238C147.706 218.747 147.808 219.25 148.005 219.719C148.203 220.188 148.492 220.612 148.856 220.967C149.616 221.693 150.626 222.099 151.677 222.101C152.599 222.118 153.499 221.815 154.222 221.243C154.416 221.111 154.651 221.056 154.883 221.087C155.115 221.118 155.327 221.233 155.479 221.411C155.614 221.604 155.672 221.84 155.641 222.073C155.609 222.306 155.491 222.518 155.31 222.668C154.271 223.472 152.991 223.904 151.677 223.895C150.166 223.899 148.713 223.308 147.635 222.249C146.556 221.19 145.937 219.749 145.913 218.238Z" fill="white"/>
<path d="M158.929 222.745C158.217 222.004 157.826 221.013 157.84 219.986C157.847 218.962 158.235 217.978 158.929 217.226C159.271 216.851 159.687 216.551 160.152 216.345C160.616 216.139 161.119 216.032 161.627 216.031C162.124 216.03 162.615 216.137 163.068 216.343C163.52 216.549 163.923 216.851 164.248 217.226C164.959 217.969 165.355 218.958 165.352 219.986C165.364 220.496 165.272 221.004 165.082 221.478C164.892 221.952 164.609 222.383 164.248 222.745C163.925 223.123 163.522 223.426 163.07 223.633C162.617 223.839 162.124 223.944 161.627 223.941C161.118 223.943 160.615 223.838 160.15 223.632C159.685 223.426 159.268 223.124 158.929 222.745ZM159.557 219.986C159.54 220.593 159.741 221.186 160.124 221.657C160.33 221.847 160.571 221.996 160.834 222.093C161.097 222.19 161.377 222.235 161.657 222.224C162.193 222.23 162.71 222.027 163.098 221.657C163.509 221.199 163.728 220.601 163.712 219.986C163.725 219.381 163.506 218.793 163.098 218.345C162.706 217.979 162.194 217.766 161.657 217.747C161.09 217.749 160.543 217.963 160.124 218.345C159.744 218.806 159.543 219.389 159.557 219.986Z" fill="white"/>
<path d="M174.581 219.311V223.067C174.583 223.175 174.563 223.282 174.523 223.383C174.484 223.483 174.424 223.574 174.348 223.651C174.273 223.728 174.182 223.79 174.083 223.831C173.983 223.873 173.876 223.895 173.768 223.895C173.549 223.895 173.338 223.808 173.183 223.652C173.028 223.497 172.94 223.286 172.94 223.067V219.311C172.917 218.894 172.733 218.501 172.428 218.216C172.122 217.93 171.718 217.773 171.3 217.778C170.894 217.778 170.504 217.94 170.216 218.227C169.929 218.515 169.767 218.904 169.767 219.311V223.067C169.78 223.117 169.78 223.17 169.767 223.22C169.728 223.411 169.625 223.582 169.474 223.705C169.323 223.828 169.134 223.895 168.939 223.895C168.83 223.897 168.721 223.877 168.62 223.836C168.519 223.795 168.427 223.734 168.349 223.657C168.272 223.58 168.211 223.488 168.17 223.386C168.129 223.285 168.109 223.176 168.111 223.067V216.935C168.109 216.825 168.129 216.716 168.17 216.613C168.211 216.511 168.271 216.418 168.348 216.34C168.426 216.261 168.517 216.199 168.619 216.156C168.72 216.114 168.829 216.092 168.939 216.092C169.101 216.092 169.259 216.138 169.394 216.225C169.53 216.312 169.638 216.436 169.706 216.582C170.207 216.269 170.785 216.099 171.377 216.092C172.222 216.115 173.026 216.462 173.622 217.061C174.218 217.661 174.561 218.466 174.581 219.311Z" fill="white"/>
<path d="M181.203 216.904C181.199 217.133 181.106 217.352 180.942 217.512C180.779 217.673 180.559 217.763 180.33 217.763H179.931V222.147C180.047 222.147 180.162 222.17 180.269 222.215C180.376 222.26 180.473 222.326 180.554 222.409C180.636 222.491 180.7 222.59 180.743 222.697C180.786 222.805 180.807 222.92 180.805 223.036C180.805 223.15 180.782 223.263 180.738 223.369C180.694 223.474 180.629 223.569 180.548 223.649C180.467 223.729 180.37 223.792 180.264 223.834C180.158 223.876 180.045 223.897 179.931 223.895C179.469 223.891 179.027 223.706 178.7 223.379C178.373 223.052 178.187 222.61 178.183 222.147V217.763H177.739C177.615 217.779 177.49 217.769 177.371 217.733C177.252 217.697 177.141 217.636 177.048 217.554C176.954 217.472 176.879 217.371 176.828 217.258C176.776 217.144 176.75 217.021 176.75 216.897C176.75 216.772 176.776 216.649 176.828 216.536C176.879 216.422 176.954 216.321 177.048 216.239C177.141 216.157 177.252 216.096 177.371 216.06C177.49 216.024 177.615 216.014 177.739 216.031H178.183V213.762C178.183 213.646 178.206 213.531 178.251 213.424C178.296 213.317 178.362 213.22 178.445 213.138C178.528 213.057 178.626 212.993 178.733 212.95C178.841 212.907 178.957 212.886 179.073 212.888C179.187 212.888 179.3 212.911 179.405 212.955C179.51 212.999 179.605 213.063 179.685 213.145C179.765 213.226 179.828 213.322 179.87 213.428C179.912 213.534 179.933 213.648 179.931 213.762V216.031H180.33C180.561 216.031 180.784 216.123 180.948 216.286C181.111 216.45 181.203 216.673 181.203 216.904Z" fill="white"/>
<path d="M185.619 214.068C185.635 214.19 185.625 214.313 185.59 214.43C185.554 214.547 185.494 214.656 185.414 214.748C185.333 214.84 185.234 214.914 185.123 214.965C185.011 215.015 184.89 215.041 184.768 215.041C184.645 215.041 184.524 215.015 184.413 214.965C184.301 214.914 184.202 214.84 184.121 214.748C184.041 214.656 183.981 214.547 183.946 214.43C183.91 214.313 183.901 214.19 183.917 214.068V213.746C183.901 213.625 183.91 213.502 183.946 213.384C183.981 213.267 184.041 213.159 184.121 213.067C184.202 212.975 184.301 212.901 184.413 212.85C184.524 212.8 184.645 212.773 184.768 212.773C184.89 212.773 185.011 212.8 185.123 212.85C185.234 212.901 185.333 212.975 185.414 213.067C185.494 213.159 185.554 213.267 185.59 213.384C185.625 213.502 185.635 213.625 185.619 213.746V214.068ZM185.619 216.92V223.052C185.591 223.258 185.489 223.447 185.333 223.584C185.176 223.72 184.976 223.796 184.768 223.796C184.56 223.796 184.359 223.72 184.203 223.584C184.046 223.447 183.945 223.258 183.917 223.052V216.92C183.901 216.798 183.91 216.675 183.946 216.558C183.981 216.441 184.041 216.332 184.121 216.24C184.202 216.148 184.301 216.074 184.413 216.024C184.524 215.973 184.645 215.947 184.768 215.947C184.89 215.947 185.011 215.973 185.123 216.024C185.234 216.074 185.333 216.148 185.414 216.24C185.494 216.332 185.554 216.441 185.59 216.558C185.625 216.675 185.635 216.798 185.619 216.92Z" fill="white"/>
<path d="M194.939 219.311V223.067C194.939 223.284 194.854 223.492 194.702 223.647C194.55 223.802 194.343 223.891 194.126 223.895C193.905 223.895 193.693 223.808 193.535 223.653C193.378 223.498 193.287 223.288 193.283 223.067V219.311C193.283 219.102 193.241 218.895 193.158 218.702C193.076 218.51 192.954 218.337 192.802 218.193C192.65 218.05 192.47 217.939 192.273 217.867C192.076 217.796 191.867 217.765 191.658 217.778C191.252 217.778 190.862 217.94 190.574 218.227C190.287 218.515 190.125 218.904 190.125 219.311V223.067C190.138 223.117 190.138 223.17 190.125 223.22C190.084 223.41 189.979 223.579 189.829 223.702C189.678 223.824 189.491 223.892 189.297 223.895C189.187 223.897 189.078 223.877 188.976 223.836C188.874 223.796 188.78 223.735 188.702 223.658C188.623 223.581 188.561 223.489 188.519 223.387C188.476 223.286 188.454 223.177 188.454 223.067V216.935C188.454 216.824 188.476 216.714 188.518 216.612C188.561 216.51 188.623 216.417 188.701 216.339C188.779 216.26 188.872 216.198 188.975 216.156C189.077 216.113 189.187 216.092 189.297 216.092C189.458 216.093 189.615 216.14 189.751 216.227C189.886 216.314 189.995 216.437 190.064 216.582C190.565 216.269 191.143 216.099 191.735 216.092C192.58 216.115 193.384 216.462 193.98 217.061C194.576 217.661 194.919 218.466 194.939 219.311Z" fill="white"/>
<path d="M201.133 223.895C200.268 223.891 199.44 223.546 198.828 222.934C198.217 222.323 197.872 221.495 197.868 220.63V216.874C197.851 216.755 197.861 216.633 197.895 216.518C197.93 216.403 197.989 216.296 198.068 216.206C198.147 216.115 198.245 216.043 198.354 215.993C198.464 215.943 198.583 215.917 198.703 215.917C198.823 215.917 198.942 215.943 199.052 215.993C199.161 216.043 199.259 216.115 199.338 216.206C199.417 216.296 199.476 216.403 199.511 216.518C199.545 216.633 199.555 216.755 199.539 216.874V220.63C199.539 221.036 199.7 221.426 199.988 221.714C200.275 222.001 200.665 222.163 201.072 222.163C201.492 222.171 201.9 222.016 202.209 221.73C202.518 221.445 202.703 221.05 202.727 220.63V216.874C202.725 216.765 202.745 216.657 202.784 216.556C202.824 216.455 202.883 216.362 202.959 216.284C203.034 216.206 203.124 216.143 203.224 216.1C203.324 216.056 203.431 216.033 203.54 216.031C203.762 216.038 203.974 216.129 204.133 216.285C204.292 216.441 204.387 216.651 204.398 216.874V220.63C204.382 221.491 204.033 222.312 203.424 222.921C202.815 223.53 201.994 223.879 201.133 223.895Z" fill="white"/>
<path d="M207.08 219.97C207.074 219.459 207.169 218.952 207.359 218.477C207.549 218.002 207.831 217.569 208.188 217.203C208.546 216.838 208.971 216.546 209.442 216.344C209.912 216.143 210.417 216.037 210.928 216.031C211.91 216.026 212.855 216.405 213.562 217.086C214.269 217.767 214.683 218.698 214.715 219.679V219.771C214.722 219.817 214.722 219.863 214.715 219.909C214.681 220.099 214.577 220.269 214.424 220.385C214.27 220.502 214.079 220.556 213.887 220.538H208.889C208.968 220.924 209.154 221.28 209.426 221.565C209.839 221.974 210.38 222.228 210.959 222.285C211.53 222.335 212.101 222.195 212.584 221.887C212.745 221.739 212.956 221.657 213.174 221.657C213.393 221.657 213.603 221.739 213.764 221.887C213.832 221.952 213.886 222.031 213.923 222.118C213.959 222.205 213.978 222.298 213.978 222.393C213.978 222.487 213.959 222.58 213.923 222.667C213.886 222.754 213.832 222.833 213.764 222.898C213.199 223.417 212.496 223.76 211.74 223.887C210.984 224.014 210.207 223.92 209.503 223.615C208.799 223.31 208.199 222.808 207.775 222.17C207.35 221.531 207.12 220.783 207.111 220.016L207.08 219.97ZM208.797 219.204H213.212C213.038 218.726 212.724 218.311 212.311 218.013C211.899 217.715 211.406 217.548 210.898 217.533C210.417 217.546 209.954 217.717 209.58 218.019C209.206 218.321 208.942 218.737 208.828 219.204H208.797Z" fill="white"/>
<path d="M425.675 208.764L431.546 222.944L425.675 225.382L419.772 211.094L410.068 218.621V178.655L438.046 206.909L425.675 208.764Z" fill="#263238"/>
<path d="M412.889 160.09H411.356V169.764H412.889V160.09Z" fill="#263238"/>
<path d="M394.8 167.101L393.716 168.185L400.556 175.025L401.64 173.941L394.8 167.101Z" fill="#263238"/>
<path d="M396.654 184.879H386.981V186.412H396.654V184.879Z" fill="#263238"/>
<path d="M400.84 196.127L394 202.967L395.084 204.051L401.924 197.211L400.84 196.127Z" fill="#263238"/>
<path d="M413.303 201.114H411.77V210.787H413.303V201.114Z" fill="#263238"/>
<path d="M424.106 195.877L423.022 196.961L429.862 203.802L430.946 202.718L424.106 195.877Z" fill="#263238"/>
<path d="M437.678 184.465H428.005V185.998H437.678V184.465Z" fill="#263238"/>
<path d="M429.567 166.825L422.727 173.665L423.811 174.749L430.651 167.909L429.567 166.825Z" fill="#263238"/>
<path d="M103.694 164.184C103.694 164.184 87.965 155.108 73.7079 163.632C59.4508 172.155 52.2456 193.679 54.3612 211.906C56.4768 230.134 41.3918 241.862 39.5369 255.337C37.6819 268.812 46.4355 275.266 49.2716 282.364C52.5216 290.535 38.3411 319.157 72.9414 326.454C116.219 335.652 133.342 309.223 129.326 287.055C127.364 276.186 121.416 268.383 121.661 259.629C121.906 250.876 128.268 244.023 125.248 232.863C122.228 221.702 117.92 223.128 116.495 205.667C115.069 188.206 119.024 167.449 103.694 164.184Z" fill="#263238"/>
<path d="M76.6823 163.264C67.364 169.046 60.0317 177.533 55.6646 187.593C53.4954 192.591 52.1543 197.908 51.6941 203.337C51.1115 210.435 52.0773 217.134 49.3026 223.941C44.8568 234.902 36.2259 243.87 36.3945 256.257C36.481 261.994 38.1868 267.59 41.3155 272.4C44.9641 278.026 50.2224 282.502 53.2578 288.512C53.3804 288.772 53.7637 288.512 53.6563 288.312C51.1269 282.977 46.957 278.854 43.5231 274.055C39.3342 268.452 37.1721 261.593 37.391 254.601C37.9429 242.92 46.4511 234.089 50.5596 223.511C52.1766 218.851 52.854 213.917 52.5526 208.994C52.4159 203.043 53.292 197.113 55.1434 191.456C59.1832 180.044 66.7616 170.221 76.7743 163.417C76.8816 163.356 76.7743 163.202 76.6823 163.264Z" fill="#263238"/>
<path d="M129.188 283.912C128.192 278.67 125.555 273.886 124.589 268.582C123.393 262.282 125.095 256.073 126.413 249.941C128.284 241.187 128.238 232.893 124.528 224.539C122.121 219.142 119.147 214.083 117.399 208.426C115.493 202.294 114.496 195.915 114.44 189.494C114.44 189.34 114.21 189.34 114.21 189.494C113.863 198.797 115.678 208.054 119.515 216.536C121.784 221.518 124.65 226.21 125.907 231.575C127.44 238.014 126.674 244.192 125.432 250.585C124.427 254.838 123.806 259.174 123.577 263.539C123.736 267.961 124.692 272.318 126.398 276.401C130.361 287.143 130.07 298.994 125.585 309.529C125.585 309.713 125.846 309.851 125.923 309.667C129.652 301.628 130.793 292.628 129.188 283.912Z" fill="#263238"/>
<path d="M38.3559 253.743C38.9231 244.131 45.7451 237.723 49.9762 229.444C53.1802 223.205 55.3878 216.506 54.5753 209.515C54.5753 209.392 54.3607 209.423 54.3607 209.515C54.6979 219.587 50.3135 228.616 44.58 236.941C40.7781 242.475 37.6047 247.795 37.4514 254.54C37.2981 261.285 39.8276 266.804 43.4762 272.277C46.0823 276.217 48.6578 279.942 49.7003 284.541C50.5061 289.179 50.6404 293.908 50.0989 298.584C50.0989 298.829 50.4668 298.829 50.4975 298.584C51.264 291.378 51.5092 284.388 47.9986 277.734C43.6142 269.563 37.7734 263.523 38.3559 253.743Z" fill="#263238"/>
<path d="M130.981 277.121C129.488 273.823 127.697 270.667 125.631 267.693C122.044 262.205 121.507 257.805 122.856 251.397C122.856 251.365 122.843 251.333 122.82 251.31C122.797 251.287 122.766 251.274 122.734 251.274C122.701 251.274 122.67 251.287 122.647 251.31C122.624 251.333 122.611 251.365 122.611 251.397C120.756 256.655 120.25 261.04 123.301 265.976C127.547 272.859 131.717 279.145 132.499 287.285C133.833 301.741 125.432 315.033 112.094 322.069C112.069 322.076 112.046 322.089 112.026 322.106C112.006 322.124 111.991 322.145 111.981 322.17C111.972 322.194 111.968 322.22 111.97 322.246C111.972 322.273 111.98 322.298 111.994 322.32C112.008 322.343 112.026 322.361 112.049 322.375C112.071 322.389 112.096 322.398 112.122 322.4C112.148 322.403 112.175 322.399 112.199 322.389C112.224 322.38 112.245 322.365 112.263 322.345C123.439 317.102 131.395 307.383 133.235 295.763C134.223 289.46 133.443 283.007 130.981 277.121Z" fill="#263238"/>
<path d="M63.6816 426.254L60.7382 448.375L24.5283 630.452H14.165L42.7559 448.375L45.0861 426.254H63.6816Z" fill="#1E376C"/>
<path opacity="0.3" d="M63.6816 426.254L60.7382 448.375L24.5283 630.452H14.165L42.7559 448.375L45.0861 426.254H63.6816Z" fill="black"/>
<path d="M161.749 630.452H151.371L115.161 448.375L112.217 426.254H130.828L133.143 448.375L161.749 630.452Z" fill="#1E376C"/>
<path opacity="0.3" d="M161.749 630.452H151.371L115.161 448.375L112.217 426.254H130.828L133.143 448.375L161.749 630.452Z" fill="black"/>
<path d="M144.886 572.948H29.3115V578.145H144.886V572.948Z" fill="#1E376C"/>
<path opacity="0.3" d="M144.886 572.948H29.3115V578.145H144.886V572.948Z" fill="black"/>
<path opacity="0.3" d="M42.7563 447.593H60.7387L63.6821 426.254H45.0865L42.7563 447.593Z" fill="black"/>
<path opacity="0.3" d="M133.143 447.593H115.161L112.217 426.254H130.828L133.143 447.593Z" fill="black"/>
<path d="M142.939 411.567H32.9751V432.937H142.939V411.567Z" fill="#1E376C"/>
<path opacity="0.3" d="M142.939 411.567H32.9751V432.937H142.939V411.567Z" fill="black"/>
<path d="M209.242 628.015C205.379 628.015 102.85 594.855 99.8302 591.222C99.4623 590.808 102.268 581.487 106.315 568.763V568.518C108.86 560.454 140.041 498.106 140.041 498.106L206.268 522.389L175.086 579.908C175.086 579.908 187.105 590.134 197.346 599.746C203.662 605.648 209.104 610.937 210.208 612.592C213.213 616.946 213.105 627.984 209.242 628.015Z" fill="#EB9481"/>
<path d="M99.7695 591.207C102.836 594.855 205.318 627.999 209.181 627.999C213.044 627.999 213.167 616.946 210.285 612.669C206.259 608.138 201.97 603.848 197.438 599.822C193.529 596.143 189.344 592.372 185.665 589.091C198.235 603.134 205.057 623.201 107.634 565.575C107.152 566.541 106.737 567.54 106.392 568.564L106.3 568.825C102.268 581.457 99.4629 590.793 99.7695 591.207Z" fill="#263238"/>
<path d="M182.169 577.486L108.967 557.358C108.967 557.358 166.026 430.991 163.987 424.675C162.638 420.459 72.7112 422.252 45.8067 399.211C17.967 375.342 38.1416 326.745 38.1416 326.745L113.566 324.599C113.566 324.599 112.631 340.404 115.574 342.796C117.521 344.329 221.092 351.09 241.757 388.633C260.568 422.697 182.169 577.486 182.169 577.486Z" fill="#37474F"/>
<path d="M163.941 424.675C164.294 425.732 162.93 430.27 160.431 437.046L216.279 502.583C234.675 457.956 251.661 406.6 241.788 388.679C221.092 351.136 117.613 344.436 115.59 342.842C112.662 340.466 113.582 324.645 113.582 324.645L65.6133 326.009L147.63 422.099C157.288 422.866 163.589 423.571 163.941 424.675Z" fill="#263238"/>
<path d="M183.61 562.049C181.67 561.22 179.671 560.534 177.632 559.994C175.516 559.32 173.4 558.645 171.269 558.017C167.1 556.775 162.899 555.595 158.668 554.506C150.16 552.314 141.652 550.168 133.082 548.205C128.621 547.178 119.07 544.94 118.472 545.047C118.196 545.047 118.135 545.569 118.472 545.661C126.766 548.405 135.182 550.735 143.583 553.096C151.984 555.457 160.446 557.695 168.893 559.688C171.239 560.224 173.615 560.7 175.976 561.221C178.441 561.88 180.952 562.357 183.488 562.646C183.656 562.662 183.886 562.187 183.61 562.049Z" fill="#263238"/>
<path d="M42.4191 341.048C42.5877 338.519 42.8177 335.989 43.0476 333.475C43.0476 333.184 43.5229 333.168 43.5075 333.475C42.741 343.716 41.9745 354.201 44.0594 364.35C45.9954 373.716 50.9368 382.194 58.1325 388.495C73.4628 402.139 94.5265 405.772 114.134 408.639C125.371 410.295 136.669 411.49 147.998 412.334C153.533 412.748 159.097 413.069 164.647 413.284C170.196 413.499 175.669 413.422 181.173 413.606C182.921 413.606 184.484 414.419 184.239 416.411C183.984 417.627 183.567 418.803 182.997 419.907L181.326 423.954C179.282 429.003 177.177 434.041 175.01 439.07C170.656 449.443 166.226 459.786 161.719 470.098C152.797 490.538 143.522 510.866 133.894 531.081L130.292 538.578C130.292 538.747 129.97 538.578 130.047 538.44C139.245 518 148.3 497.559 157.212 477.119C161.642 466.94 166.088 456.761 170.472 446.551C172.649 441.441 174.821 436.331 176.988 431.22C178.071 428.655 179.149 426.1 180.222 423.555L181.755 419.723C182.2 418.65 183.856 416.09 182.645 415.124C181.847 414.48 180.207 414.74 179.257 414.74H174.872C172.097 414.74 169.307 414.664 166.533 414.587C160.906 414.434 155.28 414.189 149.669 413.821C138.662 413.131 127.67 411.996 116.74 410.494C97.2553 407.827 76.0536 404.791 60.2174 392.098C53.1323 386.596 47.7788 379.172 44.7953 370.712C41.6986 361.146 41.7445 350.921 42.4191 341.048Z" fill="#263238"/>
<path d="M370.976 528.23C368.293 531.02 272.709 580.782 267.988 580.353C267.436 580.353 262.76 571.783 256.536 559.979L256.413 559.749C252.443 552.283 216.555 489.552 216.555 489.552L276.067 457.711L312.859 518.71C312.859 518.71 328.573 517.33 342.6 516.779C351.231 516.426 358.819 516.257 360.781 516.625C365.886 517.622 373.659 525.455 370.976 528.23Z" fill="#EB9481"/>
<path d="M255.831 558.707C256.076 559.121 256.26 559.473 256.413 559.749L256.536 559.994C262.76 571.799 267.42 580.353 267.987 580.368C272.709 580.782 368.308 531.02 370.961 528.246C373.613 525.471 365.886 517.637 360.781 516.671C358.819 516.288 351.231 516.441 342.584 516.809C336.606 517.055 330.32 517.438 325.123 517.806C344.378 517.729 368.538 526.007 255.831 558.707Z" fill="#263238"/>
<path d="M312.277 508.715L240.578 546.657C240.578 546.657 181.296 432.845 174.903 425.548C166.395 415.844 58.8685 432.324 32.6845 401.02C5.6113 368.612 27.1962 327.067 27.1962 327.067L109.305 325.105C109.305 325.105 109.749 334.211 105.334 347.64C105.334 347.64 199.079 339.868 226.244 365.071C247.093 384.402 312.277 508.715 312.277 508.715Z" fill="#37474F"/>
<path d="M90.5712 356.256C94.7074 353.261 99.0065 350.497 103.449 347.978C106.566 346.246 109.847 344.829 113.245 343.746C115.621 343.118 116.679 342.919 114.456 344.022L108.477 347.088H109.749C111.282 346.981 112.984 346.874 114.594 346.797C117.66 346.644 120.91 346.598 124.068 346.506C130.46 346.322 136.822 346.767 143.215 346.95C143.236 346.943 143.258 346.941 143.28 346.944C143.302 346.947 143.322 346.956 143.34 346.968C143.358 346.981 143.373 346.998 143.383 347.017C143.393 347.037 143.398 347.059 143.398 347.081C143.398 347.103 143.393 347.124 143.383 347.144C143.373 347.164 143.358 347.18 143.34 347.193C143.322 347.206 143.302 347.214 143.28 347.217C143.258 347.22 143.236 347.218 143.215 347.211C136.838 347.211 130.445 347.64 124.052 347.763C120.894 347.763 117.752 347.978 114.594 348.116L109.995 348.299C108.689 348.404 107.379 348.44 106.07 348.407L104.338 349.281C99.7387 351.58 95.1396 353.972 90.7552 356.593C90.5712 356.532 90.4332 356.348 90.5712 356.256Z" fill="#263238"/>
<path d="M111.16 321.977C110.424 325.871 109.796 329.796 108.922 333.659C108.508 335.437 108.109 337.231 107.557 338.963C107.082 340.496 106.331 342.106 104.691 342.52C102.805 342.995 102.161 341.401 102.238 339.806C102.363 338.027 102.589 336.256 102.912 334.502C103.188 332.494 103.479 330.486 103.725 328.462C103.847 327.45 103.985 326.438 104.093 325.396C104.093 325.135 104.2 323.219 104.307 322.652C104.307 322.652 104.307 322.744 104.415 322.652C104.415 322.652 104.522 322.652 104.522 322.56C104.535 322.506 104.532 322.45 104.513 322.398C104.494 322.346 104.46 322.301 104.415 322.269C104.387 322.251 104.355 322.241 104.323 322.241C104.29 322.241 104.258 322.251 104.231 322.269C103.878 322.483 103.878 322.989 103.786 323.357C103.525 324.354 103.265 325.335 103.05 326.331C102.621 328.201 102.207 330.072 101.839 331.942L100.781 337.568C100.381 338.966 100.339 340.442 100.659 341.861C100.872 342.529 101.293 343.111 101.862 343.523C102.43 343.934 103.115 344.152 103.817 344.145C103.746 344.268 103.685 344.396 103.633 344.528C103.479 344.911 103.388 345.325 103.265 345.724C103.142 346.122 103.035 346.521 102.943 346.935C102.895 347.131 102.869 347.331 102.866 347.533C102.866 347.763 102.866 347.977 102.866 348.207C102.844 348.287 102.854 348.372 102.894 348.443C102.934 348.515 103.002 348.568 103.081 348.591C103.16 348.613 103.245 348.603 103.317 348.563C103.389 348.522 103.442 348.455 103.464 348.376C103.556 348.177 103.694 348.023 103.801 347.824C103.901 347.613 103.978 347.392 104.031 347.165C104.139 346.782 104.231 346.383 104.307 345.985C104.384 345.586 104.476 345.203 104.522 344.804C104.537 344.564 104.537 344.323 104.522 344.084C105.323 343.969 106.077 343.635 106.699 343.118C107.728 342.132 108.452 340.871 108.784 339.484C109.274 337.859 109.627 336.173 109.98 334.502C110.929 330.397 111.514 326.216 111.727 322.008C111.697 321.962 111.656 321.923 111.608 321.896C111.56 321.868 111.506 321.852 111.451 321.849C111.396 321.846 111.341 321.856 111.29 321.879C111.24 321.901 111.195 321.935 111.16 321.977Z" fill="#263238"/>
<path d="M71.8374 333.95C71.5921 335.866 71.4848 337.813 71.1476 339.714C70.8103 341.615 70.427 343.47 69.9211 345.295C69.4854 347.081 68.7935 348.796 67.8669 350.384C66.8991 351.883 65.7163 353.231 64.3563 354.385C61.7688 356.692 58.8225 358.561 55.6334 359.92C54.0297 360.596 52.3863 361.175 50.7124 361.652C49.8539 361.897 48.9647 362.112 48.0756 362.28C47.3316 362.341 46.6071 362.55 45.9447 362.894C45.8849 362.94 45.8379 363.001 45.808 363.07C45.7782 363.139 45.7666 363.215 45.7743 363.291C45.7819 363.366 45.8087 363.438 45.8519 363.5C45.8951 363.562 45.9534 363.612 46.0213 363.645C47.3421 363.954 48.7203 363.917 50.0225 363.537C54.3621 362.868 58.4898 361.211 62.0874 358.693C64.5531 357.117 66.7265 355.126 68.5108 352.806C70.1682 350.377 71.2388 347.595 71.6381 344.681C72.3276 341.148 72.5185 337.536 72.2053 333.95C72.2053 333.901 72.186 333.855 72.1515 333.82C72.117 333.786 72.0702 333.766 72.0214 333.766C71.9726 333.766 71.9258 333.786 71.8913 333.82C71.8568 333.855 71.8374 333.901 71.8374 333.95Z" fill="#263238"/>
<path d="M297.253 495.868C295.271 496.595 293.344 497.466 291.489 498.474C289.496 499.44 287.488 500.406 285.51 501.402C281.616 503.38 277.753 505.388 273.936 507.534C266.271 511.781 258.606 516.073 250.941 520.519C246.985 522.834 238.493 527.77 238.14 528.184C237.971 528.414 238.263 528.797 238.508 528.69C246.418 524.995 254.129 520.918 261.856 516.855C269.582 512.793 277.278 508.699 284.851 504.284C286.936 503.058 288.975 501.77 290.983 500.513C293.261 499.32 295.449 497.962 297.529 496.451C297.698 496.267 297.529 495.776 297.253 495.868Z" fill="#263238"/>
<path d="M27.7173 346.215C27.7318 346.154 27.7661 346.101 27.8148 346.062C27.8635 346.024 27.9236 346.003 27.9856 346.003C28.0475 346.003 28.1077 346.024 28.1563 346.062C28.205 346.101 28.2393 346.154 28.2538 346.215C28.5145 364.044 31.7338 383.912 45.7456 396.39C61.0758 410.065 82.8601 411.23 102.467 410.617C113.689 410.264 124.865 409.712 136.087 409.804C147.308 409.896 158.745 410.188 169.966 411.337C174.331 411.639 178.446 413.487 181.571 416.55C184.589 419.822 187.232 423.422 189.451 427.281C195.307 436.479 200.985 445.795 206.483 455.228C217.429 473.971 227.603 493.129 237.005 512.701C238.171 515.123 239.325 517.555 240.47 519.998C240.547 520.167 240.317 520.305 240.24 520.151C230.694 500.518 220.474 481.238 209.58 462.31C204.153 452.857 198.532 443.495 192.716 434.225C190.003 429.872 187.366 425.41 184.346 421.256C181.679 417.592 178.383 414.158 173.876 412.901C171.122 412.28 168.312 411.941 165.49 411.889C162.623 411.69 159.756 411.521 156.874 411.383C151.274 411.107 145.653 410.929 140.011 410.847C128.697 410.709 117.414 411.107 106.116 411.567C86.4933 412.38 65.0464 412.196 48.4744 400.085C41.3938 394.795 35.9779 387.586 32.8682 379.312C29.785 370.825 28.0973 361.895 27.8706 352.868C27.7173 350.63 27.7173 348.391 27.7173 346.215Z" fill="#263238"/>
<path d="M147.002 421.501C151.018 421.501 155.02 421.501 159.021 421.593C162.356 421.459 165.697 421.68 168.985 422.252C172.051 422.927 174.443 423.249 177.003 426.576C180.192 430.73 197.806 462.908 205.226 477.165C207.28 481.12 209.304 485.076 211.358 489.062C213.412 493.047 215.267 497.401 217.306 501.51C217.383 501.663 217.168 501.801 217.092 501.648C215.267 498.214 213.259 494.872 211.389 491.453C209.518 488.034 207.694 484.6 205.885 481.166C202.206 474.227 198.522 467.282 194.832 460.333C191.168 453.449 186.768 446.765 183.043 439.928C179.977 434.164 175.669 426.315 172.787 425.211C168.778 423.733 164.584 422.815 160.324 422.482C155.909 422.268 151.478 422.114 147.063 421.823C147.042 421.827 147.02 421.827 146.999 421.823C146.978 421.818 146.958 421.81 146.94 421.798C146.923 421.786 146.907 421.77 146.896 421.752C146.884 421.734 146.876 421.714 146.872 421.693C146.868 421.672 146.868 421.65 146.872 421.629C146.876 421.608 146.885 421.588 146.897 421.57C146.909 421.552 146.925 421.537 146.943 421.525C146.961 421.513 146.981 421.505 147.002 421.501Z" fill="#263238"/>
<path d="M89.9733 257.115C99.1715 273.166 135.78 322.667 147.293 324.323C159.281 326.025 203.478 322.238 211.542 312.749C215.482 308.15 209.12 268.291 202.988 270.483C196.856 272.675 159.051 281.843 154.207 281.214C149.363 280.586 110.163 242.49 95.7222 234.304C70.8106 220.185 85.0064 248.484 89.9733 257.115Z" fill="#EB9481"/>
<path d="M193.284 271.756L202.62 321.119C202.62 321.119 158.346 330.194 145.285 326.377C132.224 322.56 95.753 270.683 85.1138 250.171C74.4746 229.659 83.78 224.263 102.866 237.048C121.952 249.833 152.582 278.44 155.556 278.593C158.53 278.746 193.284 271.756 193.284 271.756Z" fill="#1E376C"/>
<path d="M157.15 285.016C156.439 286.781 155.989 288.64 155.816 290.535C156.954 289.01 157.863 287.326 158.514 285.537C159.22 283.776 159.669 281.923 159.848 280.034C158.719 281.56 157.811 283.237 157.15 285.016ZM127.363 269.563C125.602 268.859 123.748 268.41 121.86 268.23C123.378 269.37 125.057 270.279 126.842 270.928C128.601 271.644 130.455 272.098 132.346 272.277C130.824 271.137 129.146 270.223 127.363 269.563ZM184.254 298.185C182.494 297.474 180.64 297.024 178.75 296.851C181.828 299.098 185.446 300.49 189.236 300.883C187.706 299.745 186.023 298.826 184.238 298.154L184.254 298.185ZM162.224 320.92C161.478 319.174 160.482 317.548 159.265 316.091C159.554 317.964 160.095 319.79 160.875 321.517C161.633 323.257 162.628 324.882 163.834 326.347C163.562 324.469 163.02 322.642 162.224 320.92ZM131.962 304.44C130.215 305.183 128.583 306.175 127.118 307.383C130.882 306.764 134.421 305.18 137.389 302.784C135.509 303.068 133.681 303.626 131.962 304.44ZM102.835 236.987L101.654 236.205L100.566 236.665C98.8214 237.414 97.1907 238.405 95.7217 239.608C97.6038 239.336 99.4367 238.794 101.164 237.998C101.792 237.707 102.406 237.416 103.004 237.094L102.835 236.987Z" fill="white"/>
<path d="M185.266 298.691C184.515 294.782 181.617 279.129 181.188 275.19C181.188 275.19 181.28 275.082 181.311 275.19C182.445 278.869 185.756 294.23 186.523 298.185C188.236 305.943 189.525 313.788 190.386 321.686C190.386 321.824 190.171 321.901 190.126 321.763C187.995 314.159 186.753 306.356 185.266 298.691Z" fill="#263238"/>
<path opacity="0.1" d="M178.843 325.166C166.149 326.975 151.8 328.232 145.269 326.377C132.208 322.545 95.7375 270.682 85.0984 250.171C78.4144 237.263 79.5948 230.349 86.1562 230.241L178.843 325.166Z" fill="black"/>
<path d="M120.342 342.504L18.1665 341.217C18.1665 341.217 46.1135 256.241 67.8058 234.472C77.6631 224.569 86.9379 226.424 94.649 233.231C96.5652 234.932 119.791 267.463 121.523 278.332C123.056 287.96 115.237 297.587 115.237 297.587L120.342 342.504Z" fill="#1E376C"/>
<path d="M87.858 296.146C92.0748 295.924 96.3023 296.016 100.505 296.422C102.59 296.667 104.645 296.989 106.638 297.357C107.665 297.541 108.692 297.694 109.704 297.848C110.783 298.024 111.879 298.07 112.969 297.986C113.076 297.986 113.092 298.124 112.969 298.139C111.956 298.334 110.932 298.462 109.903 298.522C108.879 298.54 107.855 298.494 106.837 298.384C104.721 298.17 102.606 297.848 100.49 297.618C96.2283 297.142 91.9512 296.652 87.6587 296.483C87.6434 296.483 87.6587 296.146 87.858 296.146Z" fill="#263238"/>
<path d="M78.0766 301.282C81.4545 300.434 84.8789 299.784 88.3325 299.335C90.0648 299.105 91.7971 298.982 93.5448 298.906C94.3726 298.906 95.2004 298.906 96.0283 298.906C96.8561 298.906 97.8679 298.997 98.7877 298.906C98.8797 298.906 98.895 299.059 98.7877 299.059C97.9292 299.059 97.0707 299.304 96.2122 299.411L93.6214 299.703C91.8891 299.902 90.1721 300.117 88.4398 300.301C84.9752 300.668 81.5412 301.082 78.0919 301.573C77.9233 301.588 77.908 301.328 78.0766 301.282Z" fill="#263238"/>
<path d="M98.2361 237.891C97.335 238.404 96.4831 239 95.6913 239.67C96.8082 239.527 97.9075 239.27 98.972 238.903L98.2361 237.891ZM81.6335 309.56C79.8848 310.304 78.249 311.29 76.7738 312.488C80.5426 311.885 84.0855 310.299 87.0451 307.889C85.1817 308.19 83.3702 308.752 81.6642 309.56H81.6335ZM38.4483 314.021C37.7022 312.281 36.7053 310.659 35.4896 309.207C35.7444 311.074 36.2604 312.896 37.0226 314.619C37.7653 316.389 38.762 318.042 39.9813 319.525C39.7396 317.626 39.2232 315.772 38.4483 314.021ZM101.134 286.427C100.378 284.69 99.3876 283.065 98.1902 281.598C98.4355 283.471 98.9519 285.299 99.7232 287.025C100.467 288.772 101.458 290.404 102.667 291.869C102.402 289.991 101.876 288.159 101.103 286.427H101.134ZM60.1252 288.91C58.3647 288.199 56.5113 287.745 54.6217 287.561C56.1447 288.707 57.8288 289.621 59.6193 290.275C61.3828 290.973 63.2352 291.422 65.1229 291.608C63.5815 290.49 61.8883 289.597 60.0946 288.956L60.1252 288.91ZM19.5461 337.124C19.3775 337.599 19.2395 338.044 19.1016 338.442C20.4786 338.918 21.9107 339.217 23.3634 339.331C22.1898 338.436 20.9071 337.695 19.5461 337.124ZM105.227 326.653C104.524 328.416 104.075 330.268 103.893 332.157C106.14 329.079 107.531 325.461 107.925 321.671C106.801 323.2 105.894 324.877 105.227 326.653ZM62.3021 334.487C61.5978 336.249 61.1487 338.102 60.9684 339.991C63.2022 336.9 64.5918 333.281 65.0002 329.489C63.8712 331.023 62.9582 332.705 62.2868 334.487H62.3021ZM73.7078 258.74C72.9982 260.506 72.549 262.365 72.3741 264.259C74.6041 261.172 75.9935 257.559 76.4059 253.773C75.2771 255.294 74.3687 256.966 73.7078 258.74Z" fill="white"/>
<path d="M53.4106 246.308C25.8162 280.126 -4.15441 336.296 10.5626 347.165C24.0072 357.084 70.4731 344.482 99.4779 331.36C104.981 328.861 79.5486 280.31 73.9377 283.575C68.0569 287.096 61.9585 290.24 55.6794 292.988C54.1464 293.509 62.3941 282.18 70.9023 255.582C79.4873 228.525 69.1087 226.976 53.4106 246.308Z" fill="#EB9481"/>
<path d="M145.515 276.033C145.852 281.812 131.518 281.444 131.518 281.444C133.651 282.716 135.276 284.688 136.117 287.024C137.421 291.225 131.396 295.119 131.396 295.119C133.36 296.892 134.744 299.216 135.366 301.788C136.209 305.942 130.767 310.725 130.767 310.725C131.665 313.357 131.588 316.223 130.553 318.804C127.487 325.565 116.127 326.316 109.167 328.171C101.373 330.41 93.7747 333.281 86.4475 336.756L70.6421 285.476C70.6421 285.476 100.229 265.715 108.784 265.67C115.928 265.639 144.994 267.203 145.515 276.033Z" fill="#EB9481"/>
<path d="M131.396 281.291C123.731 279.482 115.637 279.528 107.818 279.666C107.797 279.659 107.775 279.657 107.753 279.66C107.731 279.663 107.711 279.671 107.693 279.684C107.675 279.697 107.66 279.713 107.65 279.733C107.64 279.753 107.635 279.774 107.635 279.796C107.635 279.818 107.64 279.84 107.65 279.86C107.66 279.879 107.675 279.896 107.693 279.909C107.711 279.921 107.731 279.93 107.753 279.933C107.775 279.936 107.797 279.934 107.818 279.927C115.575 279.712 123.578 281.567 131.335 281.659C131.383 281.667 131.433 281.655 131.474 281.627C131.514 281.598 131.541 281.554 131.549 281.506C131.557 281.457 131.546 281.407 131.517 281.367C131.488 281.326 131.445 281.299 131.396 281.291Z" fill="#263238"/>
<path d="M131.212 294.552C129.431 294.306 127.626 294.306 125.846 294.552C123.945 294.674 122.044 294.828 120.143 295.027C116.352 295.395 112.57 295.865 108.799 296.437C108.63 296.437 108.63 296.729 108.799 296.713C112.57 296.345 116.357 296.023 120.159 295.824L125.861 295.548C127.656 295.587 129.45 295.433 131.212 295.088C131.272 295.074 131.325 295.039 131.364 294.991C131.402 294.942 131.423 294.882 131.423 294.82C131.423 294.758 131.402 294.698 131.364 294.649C131.325 294.6 131.272 294.566 131.212 294.552Z" fill="#263238"/>
<path d="M130.583 310.74C128.998 310.545 127.391 310.618 125.83 310.955C124.098 311.17 122.381 311.369 120.649 311.553C117.199 311.936 113.735 312.304 110.27 312.565C110.101 312.565 110.101 312.856 110.27 312.841C113.796 312.595 117.307 312.396 120.833 312.12L126.014 311.691C127.583 311.694 129.14 311.419 130.613 310.878C130.613 310.878 130.659 310.756 130.583 310.74Z" fill="#263238"/>
<path d="M69.1851 284.97L83.4269 340.266C83.4269 340.266 14.4409 362.265 6.20861 344.942C-2.02372 327.619 35.658 259.675 58.3313 239.654C81.0047 219.633 73.6616 249.665 73.1403 252.072C70.4882 262.726 57.0283 290.903 57.0283 290.903L69.1851 284.97Z" fill="#1E376C"/>
<path d="M62.2867 334.487C61.5825 336.248 61.1333 338.102 60.953 339.99C63.1868 336.9 64.5764 333.28 64.9848 329.489C63.8612 331.024 62.9534 332.705 62.2867 334.487ZM18.381 336.633C16.6214 335.925 14.7668 335.481 12.8774 335.315C14.4031 336.444 16.0804 337.352 17.8598 338.013C19.6205 338.717 21.4745 339.161 23.3633 339.331C21.8415 338.196 20.1633 337.287 18.381 336.633ZM60.6157 289.109L58.8528 289.968L59.5886 290.259C61.3521 290.958 63.2045 291.407 65.0922 291.593C63.7177 290.585 62.2115 289.77 60.6157 289.171V289.109ZM57.7337 289.462L58.2855 288.281C57.0848 287.901 55.8458 287.654 54.591 287.546C55.5635 288.308 56.6175 288.961 57.7337 289.492V289.462ZM38.4482 314.021C37.7021 312.281 36.7053 310.659 35.4895 309.207C35.7443 311.074 36.2604 312.896 37.0225 314.619C37.7652 316.389 38.762 318.042 39.9813 319.524C39.7395 317.625 39.2231 315.771 38.4482 314.021ZM39.4907 262.082L37.9577 264.259C38.5504 264.044 39.133 263.814 39.7053 263.569C41.4601 262.847 43.1019 261.876 44.5803 260.687C42.8169 260.945 41.0953 261.435 39.46 262.143L39.4907 262.082Z" fill="white"/>
<path d="M67.9745 285.078C60.0948 288.343 39.5829 299.963 35.1985 304.516C35.0605 304.654 35.1985 304.869 35.3671 304.746C39.7516 301.297 65.1077 287.178 69.0936 285.4C69.1897 285.61 69.2972 285.814 69.4155 286.013C69.5688 286.197 69.6608 286.013 69.6455 285.905C69.5594 285.447 69.4364 284.995 69.2776 284.556L67.9745 285.078Z" fill="#263238"/>
<path d="M63.6515 316.673C62.6857 312.81 58.9298 297.342 58.3013 293.433C58.3013 293.433 58.3933 293.325 58.4086 293.433C59.7576 297.035 63.8968 312.197 64.8779 316.06C67.0156 323.727 68.7301 331.506 70.0136 339.362C70.0136 339.5 69.8143 339.592 69.7683 339.439C67.2235 331.988 65.5525 324.277 63.6515 316.673Z" fill="#263238"/>
<path d="M56.5376 291.271C58.4692 286.396 60.9067 281.72 63.0683 276.937C65.2298 272.154 67.4834 267.432 69.461 262.603C69.461 262.603 69.5989 262.603 69.5836 262.603C68.3879 265.884 67.1921 269.165 65.9044 272.399C66.3183 271.878 66.7169 271.342 67.0848 270.866C67.7746 269.87 68.4032 268.843 69.0164 267.8H69.1237C68.6638 268.963 68.0723 270.069 67.3607 271.096C66.8153 271.845 66.2266 272.562 65.5978 273.243C65.0612 274.561 64.5246 275.879 63.9421 277.182C61.7959 282.027 60.2015 286.779 57.3501 291.24C57.2581 291.394 56.4763 291.424 56.5376 291.271Z" fill="#263238"/>
<path d="M16.4648 350.722C30.7219 352.73 75.5168 342.351 83.1512 340.358C83.0132 339.546 83.0286 339.254 82.8293 338.105C82.8293 337.951 83.0286 337.875 83.0746 338.105C83.3505 339.193 84.1937 341.339 83.9024 341.477C80.2691 343.133 30.3693 354.508 16.4494 351.151C16.2655 351.013 16.2501 350.691 16.4648 350.722Z" fill="#263238"/>
<path d="M131.258 333.812L192.686 340.742L214.118 255.122L152.689 248.178L131.258 333.812Z" fill="#37474F"/>
<path d="M134.278 334.15L195.706 341.094L217.138 255.46L155.709 248.53L134.278 334.15Z" fill="#455A64"/>
<path d="M184.208 291.915C183.856 293.513 182.933 294.928 181.612 295.893C180.291 296.858 178.663 297.308 177.034 297.158C176.267 297.085 175.524 296.85 174.855 296.468C174.186 296.086 173.606 295.566 173.153 294.942C172.701 294.319 172.386 293.606 172.23 292.851C172.075 292.097 172.082 291.318 172.251 290.566C172.599 288.966 173.522 287.55 174.843 286.584C176.165 285.618 177.795 285.169 179.425 285.323C180.192 285.396 180.935 285.631 181.604 286.013C182.273 286.395 182.853 286.915 183.306 287.539C183.758 288.162 184.073 288.875 184.228 289.63C184.384 290.384 184.377 291.163 184.208 291.915Z" fill="white"/>
<path d="M216.892 273.028C219.59 280.126 227.102 289.293 227.332 294.95C227.437 296.339 227.091 297.725 226.345 298.902C225.599 300.079 224.494 300.983 223.193 301.481C223.193 301.481 228.543 304.716 227.899 309.882C227.577 312.534 223.039 314.343 223.039 314.343C223.039 314.343 227.224 317.118 226.366 321.671C225.691 325.304 221.246 326.561 221.246 326.561C221.246 326.561 224.02 331.16 222.135 334.579C218.333 341.615 186.737 339.086 182.798 327.052C180.958 321.456 188.638 322.453 188.638 322.453C188.638 322.453 177.907 318.298 178.306 311.721C178.704 305.145 188.562 307.122 188.562 307.122C188.562 307.122 178.244 302.999 179.364 296.269C180.467 289.263 190.095 292.911 190.095 292.911C190.095 292.911 183.457 287.592 185.496 282.625C188.776 274.423 201.224 286.059 208.292 284.97L213.044 273.84L216.892 273.028Z" fill="#EB9481"/>
<path d="M222.41 283.483C220.448 276.523 229.478 268.858 228.543 261.929C227.285 252.562 216.278 260.764 212.829 273.948L212.017 284.679L222.41 283.483Z" fill="#EB9481"/>
<path d="M220.571 326.868C220.679 326.868 220.709 327.021 220.571 327.036C209.557 328.813 198.263 327.209 188.179 322.437C187.872 322.284 187.995 321.701 188.363 321.809C198.798 325.045 209.647 326.749 220.571 326.868Z" fill="#263238"/>
<path d="M223.193 314.42C223.315 314.42 223.315 314.619 223.193 314.65C212.262 316.336 198.664 314.404 188.163 307.49C187.811 307.245 187.719 306.678 188.163 306.923C195.445 310.955 212.952 314.466 223.193 314.42Z" fill="#263238"/>
<path d="M189.359 292.283C199.615 298.522 210.822 300.852 222.749 301.573C222.902 301.573 222.871 301.803 222.749 301.834C216.846 303.06 209.319 301.834 203.54 300.301C198.154 299.047 193.191 296.404 189.145 292.635C188.976 292.559 189.129 292.145 189.359 292.283Z" fill="#263238"/>
<path d="M76.5132 232.081C76.8504 233.89 84.9295 245.878 93.1311 245.878C95.7986 245.878 96.3658 231.253 96.3658 231.253L96.6571 230.195L100.658 215.233L83.4118 203.107L80.9129 201.574C80.9129 201.574 80.0851 205.744 79.104 210.94C79.104 211.176 79.058 211.421 78.966 211.676C78.966 211.968 78.8434 212.244 78.7974 212.52C78.6288 213.286 78.4754 214.053 78.3375 214.88C78.1995 215.708 78.1229 216.061 78.0309 216.689C77.9389 217.318 77.8316 217.946 77.7243 218.59C77.0158 223.055 76.6111 227.562 76.5132 232.081Z" fill="#EB9481"/>
<path d="M79.1045 210.833C80.4585 215.14 82.7342 219.1 85.7734 222.439C88.8126 225.777 92.5425 228.414 96.7036 230.165L100.705 215.202L83.4583 203.076L80.9595 201.543C80.9595 201.543 80.0856 205.636 79.1045 210.833Z" fill="#263238"/>
<path d="M119.852 186.78C127.885 212.734 113.244 220.507 107.587 222.208C102.498 223.741 84.9907 228.463 74.3208 203.475C63.651 178.487 73.1711 166.544 84.6074 162.344C96.0438 158.143 111.803 160.796 119.852 186.78Z" fill="#EB9481"/>
<path d="M114.793 183.392C114.173 183.477 113.548 183.523 112.923 183.53C112.271 183.672 111.591 183.591 110.991 183.3C110.817 183.175 110.691 182.995 110.633 182.789C110.574 182.583 110.587 182.364 110.669 182.166C110.883 181.797 111.193 181.493 111.565 181.286C111.937 181.078 112.358 180.974 112.785 180.985C113.651 180.858 114.534 181.066 115.253 181.568C115.41 181.69 115.529 181.856 115.594 182.045C115.659 182.233 115.668 182.437 115.619 182.63C115.57 182.824 115.466 182.999 115.319 183.134C115.173 183.27 114.99 183.359 114.793 183.392Z" fill="#263238"/>
<path d="M96.8563 188.467C97.429 188.201 97.9868 187.904 98.5273 187.577C99.1567 187.352 99.695 186.926 100.06 186.366C100.137 186.173 100.149 185.96 100.097 185.759C100.045 185.558 99.9298 185.379 99.769 185.247C99.39 185.046 98.9642 184.95 98.5356 184.969C98.1071 184.988 97.6914 185.121 97.3315 185.355C96.5349 185.716 95.901 186.361 95.5532 187.164C95.4915 187.345 95.4818 187.54 95.5253 187.727C95.5688 187.914 95.6638 188.085 95.7994 188.22C95.935 188.356 96.1059 188.451 96.2927 188.494C96.4794 188.538 96.6747 188.528 96.8563 188.467Z" fill="#263238"/>
<path d="M102.836 193.694C102.836 193.694 102.728 193.817 102.744 193.894C103.357 195.641 103.756 197.741 102.345 198.83C102.345 198.83 102.345 198.952 102.345 198.922C104.246 198.048 103.694 195.258 102.836 193.694Z" fill="#263238"/>
<path d="M100.689 192.345C97.7761 193.004 99.3244 198.768 102.023 198.155C104.721 197.542 103.126 191.778 100.689 192.345Z" fill="#263238"/>
<path d="M99.6309 192.912C99.217 193.372 98.8797 194.093 98.2818 194.307C97.684 194.522 96.9175 194.108 96.2889 193.648C96.2889 193.648 96.1969 193.648 96.2889 193.74C96.5649 194.859 97.3007 195.871 98.5271 195.718C99.7536 195.564 100.167 194.384 100.06 193.204C100.06 193.02 99.7689 192.759 99.6309 192.912Z" fill="#263238"/>
<path d="M112.662 190.643C112.662 190.567 112.831 190.643 112.846 190.766C113.26 192.575 114.026 194.568 115.805 194.737C115.805 194.737 115.881 194.844 115.805 194.844C113.766 195.089 112.769 192.422 112.662 190.643Z" fill="#263238"/>
<path d="M113.781 188.313C116.602 187.347 118.38 193.066 115.713 193.955C113.045 194.844 111.405 189.172 113.781 188.313Z" fill="#263238"/>
<path d="M115.1 188.313C115.636 188.482 116.249 188.896 116.801 188.773C117.353 188.651 117.721 187.853 117.936 187.148C117.936 187.072 118.028 187.148 118.043 187.148C118.411 188.237 118.396 189.478 117.399 190.015C116.403 190.552 115.514 189.77 114.931 188.758C114.808 188.666 114.87 188.313 115.1 188.313Z" fill="#263238"/>
<path d="M112.202 199.888C112.202 199.888 113.321 202.432 113.735 203.689C113.735 203.812 113.49 203.95 113.061 204.103C112.04 204.61 110.899 204.823 109.764 204.717C108.629 204.612 107.547 204.192 106.637 203.505C106.515 203.413 106.637 203.245 106.775 203.291C108.687 203.919 110.75 203.919 112.662 203.291C112.662 202.908 110.608 198.968 110.807 198.891C111.818 198.708 112.849 198.657 113.873 198.738C111.712 193.342 108.692 188.344 106.607 182.948C106.607 182.748 106.806 182.61 106.913 182.779C110.315 188.039 113.181 193.626 115.468 199.458C115.621 200.163 112.769 199.949 112.202 199.888Z" fill="#263238"/>
<path d="M75.9612 202.356C81.0048 202.356 80.8209 190.797 80.8209 190.797C80.8209 190.797 101.547 184.481 101.133 167.004C104.705 173.682 110.711 178.728 117.905 181.093C117.905 181.093 114.731 162.267 99.2784 160.52C99.2784 160.52 79.7937 156.135 71.2395 172.247C62.6852 188.359 72.5732 202.371 75.9612 202.356Z" fill="#263238"/>
<path d="M101.042 165.716C101.609 168.354 101.609 171.082 101.042 173.719C100.548 176.398 99.5038 178.945 97.9755 181.2C97.5847 181.733 97.1651 182.245 96.7184 182.733L96.0746 183.53L95.354 184.235C94.8481 184.695 94.3729 185.17 93.821 185.615L92.1807 186.795L91.3375 187.363L90.4637 187.853L88.6854 188.804C87.459 189.325 86.2019 189.785 84.9448 190.214C86.0946 189.524 87.2903 188.972 88.4094 188.283L90.0498 187.194L90.8776 186.658C91.1382 186.474 91.3682 186.244 91.6288 186.044C92.1194 185.615 92.6253 185.201 93.1618 184.803C93.6984 184.404 94.0816 183.883 94.5262 183.423L95.2161 182.748L95.8139 181.982C96.2319 181.498 96.616 180.986 96.9637 180.449C98.4286 178.316 99.5127 175.946 100.168 173.443C100.517 172.188 100.758 170.906 100.888 169.61C101.044 168.319 101.095 167.016 101.042 165.716Z" fill="#263238"/>
<path d="M78.0616 211.876C78.4944 211.927 78.9319 211.927 79.3647 211.876C79.7944 211.864 80.2192 211.781 80.6218 211.63C81.1518 211.462 81.6385 211.18 82.0475 210.803C82.3738 210.516 82.6532 210.18 82.8753 209.806C83.2059 209.285 83.4396 208.709 83.5652 208.105L80.4991 201.329C80.4991 201.329 72.834 194.307 69.584 197.189C66.334 200.071 73.2939 211.201 78.0616 211.876Z" fill="#EB9481"/>
<path d="M71.7153 200.363V200.485C75.088 201.068 77.3415 203.552 79.1352 206.311C78.8865 206.041 78.5822 205.827 78.2433 205.686C77.9044 205.544 77.5388 205.478 77.1718 205.491C76.8048 205.504 76.4449 205.597 76.117 205.762C75.789 205.927 75.5007 206.162 75.2719 206.449C75.2536 206.465 75.2426 206.488 75.2411 206.512C75.2397 206.537 75.248 206.561 75.2643 206.579C75.2805 206.598 75.3034 206.609 75.3278 206.61C75.3523 206.611 75.3763 206.603 75.3946 206.587C75.9025 206.299 76.4866 206.174 77.0678 206.229C77.649 206.284 78.1994 206.516 78.6446 206.893C79.3862 207.533 80.0546 208.253 80.6375 209.04C80.8368 209.285 81.2967 209.04 81.1281 208.733C80.3156 204.701 76.0385 199.842 71.7153 200.363Z" fill="#263238"/>
<path d="M78.1999 210.68C78.3371 210.978 78.5855 211.211 78.892 211.328C79.1985 211.446 79.5388 211.439 79.8402 211.309C80.1433 211.168 80.38 210.915 80.5001 210.603C80.6203 210.291 80.6145 209.945 80.4841 209.638C80.3466 209.336 80.0965 209.099 79.7872 208.979C79.4779 208.859 79.1338 208.864 78.8284 208.994C78.6736 209.06 78.5339 209.157 78.4176 209.278C78.3014 209.4 78.2112 209.544 78.1524 209.702C78.0936 209.86 78.0675 210.028 78.0757 210.196C78.0838 210.364 78.1261 210.529 78.1999 210.68Z" fill="white"/>
<path d="M75.2407 209.377C75.288 209.485 75.356 209.582 75.441 209.663C75.5259 209.745 75.626 209.809 75.7356 209.851C75.8453 209.894 75.9622 209.915 76.0798 209.912C76.1974 209.91 76.3134 209.884 76.4211 209.837C76.5288 209.789 76.6261 209.721 76.7075 209.636C76.789 209.551 76.8528 209.451 76.8955 209.342C76.9382 209.232 76.9589 209.115 76.9565 208.998C76.954 208.88 76.9283 208.764 76.881 208.656C76.8337 208.549 76.7656 208.451 76.6807 208.37C76.5958 208.288 76.4957 208.225 76.386 208.182C76.2764 208.139 76.1595 208.118 76.0419 208.121C75.9243 208.123 75.8083 208.149 75.7006 208.196C75.5929 208.244 75.4955 208.312 75.4141 208.397C75.3327 208.482 75.2689 208.582 75.2262 208.691C75.1834 208.801 75.1627 208.918 75.1652 209.036C75.1677 209.153 75.1934 209.269 75.2407 209.377Z" fill="white"/>
<path d="M102.835 237.048C102.835 237.048 101.409 248.975 91.4599 250.094C81.5106 251.213 65.0459 234.886 65.0459 234.886C65.0459 234.886 73.2782 226.899 84.7759 227.329C94.0507 227.666 102.835 237.048 102.835 237.048Z" fill="#EB9481"/>
</svg>
