<svg width="702" height="697" viewBox="0 0 702 697" fill="none" xmlns="http://www.w3.org/2000/svg">
<path d="M684.19 124.4H528.622C528.622 124.4 544.052 82.2767 567.782 82.2767C591.513 82.2767 598.968 111.346 598.968 111.346C598.968 111.346 614.984 95.5419 628.135 95.5419C641.286 95.5419 652.728 116.424 652.728 116.424C652.728 116.424 671.3 105.194 684.19 124.4Z" fill="#EBEBEB"/>
<path d="M512.557 69.9882H439.851C439.851 69.9882 456.127 46.4526 468.904 46.4526C481.681 46.4526 485.474 62.143 485.474 62.143C485.474 62.143 494.507 54.8186 502.873 56.137C511.239 57.4554 512.557 69.9882 512.557 69.9882Z" fill="#EBEBEB"/>
<path d="M158.726 186.982H17.1226C17.1226 186.982 36.5239 143.687 57.2599 140.985C77.9959 138.283 87.9245 173.147 87.9245 173.147C87.9245 173.147 101.304 160.826 111.834 160.826C122.365 160.826 130.471 177.102 130.471 177.102C130.471 177.102 151.516 166.018 158.726 186.982Z" fill="#EBEBEB"/>
<path d="M266.638 35.0755H170.999C170.999 35.0755 187.421 3.69476 205.179 3.23902C222.936 2.78329 232.376 26.9861 232.376 26.9861C232.376 26.9861 260.176 4.73644 266.638 35.0755Z" fill="#EBEBEB"/>
<path d="M358.925 223.213H294.357C294.357 223.213 305.457 202.054 317.486 201.728C329.514 201.403 335.845 217.744 335.845 217.744C335.845 217.744 354.563 202.738 358.925 223.213Z" fill="#EBEBEB"/>
<path d="M436.774 284.591H264.604V477.042H436.774V284.591Z" fill="#DBDBDB"/>
<path d="M440.746 272.921H260.632V284.607H440.746V272.921Z" fill="#EBEBEB"/>
<path d="M392.845 398.46H308.566V410.146H392.845V398.46Z" fill="#EBEBEB"/>
<path d="M315.418 312.472H286.186V357.786H315.418V312.472Z" fill="#C7C7C7"/>
<path d="M312.407 315.793H289.197V354.481H312.407V315.793Z" fill="white"/>
<path d="M319.617 357.802H282.003V364.312H319.617V357.802Z" fill="#EBEBEB"/>
<g opacity="0.5">
<path d="M312.407 315.809V320.578L289.197 343.804V334.966L308.371 315.809H312.407Z" fill="#EBEBEB"/>
<path d="M312.407 344.472V348.899L306.824 354.482H302.414L312.407 344.472Z" fill="#EBEBEB"/>
<path d="M297.01 315.809L289.197 323.622V319.211L292.583 315.809H297.01Z" fill="#EBEBEB"/>
<path d="M312.407 337.554V338.97L296.896 354.482H295.48L312.407 337.554Z" fill="#EBEBEB"/>
</g>
<path d="M315.418 338.547H286.186V341.867H315.418V338.547Z" fill="#C7C7C7"/>
<path d="M365.305 312.472H336.073V357.786H365.305V312.472Z" fill="#C7C7C7"/>
<path d="M362.294 315.793H339.084V354.481H362.294V315.793Z" fill="white"/>
<path d="M369.505 357.802H331.89V364.312H369.505V357.802Z" fill="#EBEBEB"/>
<g opacity="0.5">
<path d="M362.31 315.809V320.578L339.084 343.804V334.966L358.257 315.809H362.31Z" fill="#EBEBEB"/>
<path d="M362.311 344.472V348.899L356.712 354.482H352.301L362.311 344.472Z" fill="#EBEBEB"/>
<path d="M346.897 315.809L339.084 323.622V319.211L342.469 315.809H346.897Z" fill="#EBEBEB"/>
<path d="M362.31 337.554V338.97L346.799 354.482H345.367L362.31 337.554Z" fill="#EBEBEB"/>
</g>
<path d="M365.305 338.547H336.073V341.867H365.305V338.547Z" fill="#C7C7C7"/>
<path d="M415.192 312.472H385.96V357.786H415.192V312.472Z" fill="#C7C7C7"/>
<path d="M412.197 315.793H388.987V354.481H412.197V315.793Z" fill="white"/>
<path d="M419.391 357.802H381.777V364.312H419.391V357.802Z" fill="#EBEBEB"/>
<g opacity="0.5">
<path d="M412.197 315.809V320.578L388.971 343.804V334.966L408.145 315.809H412.197Z" fill="#EBEBEB"/>
<path d="M412.197 344.472V348.899L406.615 354.482H402.188L412.197 344.472Z" fill="#EBEBEB"/>
<path d="M396.8 315.809L388.971 323.622V319.211L392.373 315.809H396.8Z" fill="#EBEBEB"/>
<path d="M412.197 337.554V338.97L396.686 354.482H395.27L412.197 337.554Z" fill="#EBEBEB"/>
</g>
<path d="M415.192 338.547H385.96V341.867H415.192V338.547Z" fill="#C7C7C7"/>
<path d="M386.497 410.146H314.897V477.042H386.497V410.146Z" fill="#C7C7C7"/>
<path d="M381.68 415.094H319.716V477.058H381.68V415.094Z" fill="white"/>
<g opacity="0.5">
<path d="M381.679 440.941V452.465L357.086 477.042H345.579L381.679 440.941Z" fill="#EBEBEB"/>
<path d="M335.894 415.094L319.716 431.273V419.749L324.387 415.094H335.894Z" fill="#EBEBEB"/>
<path d="M370.465 415.094L319.716 465.844V460.098L364.72 415.094H370.465Z" fill="#EBEBEB"/>
<path d="M381.679 458.422V464.184L368.805 477.042H363.059L381.679 458.422Z" fill="#EBEBEB"/>
<path d="M381.679 420.84V421.898L326.535 477.042H325.461L381.679 420.84Z" fill="#EBEBEB"/>
<path d="M342.6 415.094L319.716 437.963V436.905L341.526 415.094H342.6Z" fill="#EBEBEB"/>
<path d="M362.116 415.094L319.716 457.478V456.404L361.041 415.094H362.116Z" fill="#EBEBEB"/>
</g>
<path d="M352.691 415.094H348.704V477.058H352.691V415.094Z" fill="#C7C7C7"/>
<path d="M264.604 323.361H118.67V477.042H264.604V323.361Z" fill="#DBDBDB"/>
<path d="M251.55 323.361H264.604V477.042H258.826L251.55 323.361Z" fill="#C7C7C7"/>
<path d="M160.81 344.472H135.24V384.088H160.81V344.472Z" fill="#C7C7C7"/>
<path d="M158.173 347.385H137.876V381.207H158.173V347.385Z" fill="white"/>
<path d="M164.456 384.104H131.578V389.801H164.456V384.104Z" fill="#EBEBEB"/>
<g opacity="0.5">
<path d="M158.173 347.385V351.568L137.876 371.865V364.15L154.625 347.385H158.173Z" fill="#EBEBEB"/>
<path d="M158.173 372.451V376.308L153.29 381.207H149.417L158.173 372.451Z" fill="#EBEBEB"/>
<path d="M144.713 347.385L137.876 354.221V350.347L140.839 347.385H144.713Z" fill="#EBEBEB"/>
<path d="M158.173 366.396V367.649L144.615 381.207H143.362L158.173 366.396Z" fill="#EBEBEB"/>
</g>
<path d="M160.81 367.275H135.24V370.172H160.81V367.275Z" fill="#C7C7C7"/>
<path d="M204.43 344.472H178.86V384.088H204.43V344.472Z" fill="#C7C7C7"/>
<path d="M201.794 347.385H181.497V381.207H201.794V347.385Z" fill="white"/>
<path d="M208.076 384.104H175.198V389.801H208.076V384.104Z" fill="#EBEBEB"/>
<g opacity="0.5">
<path d="M201.794 347.385V351.568L181.481 371.865V364.15L198.246 347.385H201.794Z" fill="#EBEBEB"/>
<path d="M201.793 372.451V376.308L196.894 381.207H193.037L201.793 372.451Z" fill="#EBEBEB"/>
<path d="M188.317 347.385L181.481 354.221V350.347L184.46 347.385H188.317Z" fill="#EBEBEB"/>
<path d="M201.794 366.396V367.649L188.236 381.207H186.982L201.794 366.396Z" fill="#EBEBEB"/>
</g>
<path d="M204.43 367.275H178.86V370.172H204.43V367.275Z" fill="#C7C7C7"/>
<path d="M248.051 344.472H222.481V384.088H248.051V344.472Z" fill="#C7C7C7"/>
<path d="M245.414 347.385H225.117V381.207H245.414V347.385Z" fill="white"/>
<path d="M251.697 384.104H218.819V389.801H251.697V384.104Z" fill="#EBEBEB"/>
<g opacity="0.5">
<path d="M245.414 347.385V351.568L225.117 371.865V364.15L241.866 347.385H245.414Z" fill="#EBEBEB"/>
<path d="M245.414 372.451V376.308L240.531 381.207H236.657L245.414 372.451Z" fill="#EBEBEB"/>
<path d="M231.937 347.385L225.117 354.221V350.347L228.079 347.385H231.937Z" fill="#EBEBEB"/>
<path d="M245.414 366.396V367.649L231.856 381.207H230.603L245.414 366.396Z" fill="#EBEBEB"/>
</g>
<path d="M248.051 367.275H222.481V370.172H248.051V367.275Z" fill="#C7C7C7"/>
<path d="M160.81 404.303H135.24V443.92H160.81V404.303Z" fill="#C7C7C7"/>
<path d="M158.173 407.217H137.876V441.039H158.173V407.217Z" fill="white"/>
<path d="M164.456 443.936H131.578V449.633H164.456V443.936Z" fill="#EBEBEB"/>
<g opacity="0.5">
<path d="M158.173 407.217V411.4L137.876 431.696V423.981L154.625 407.217H158.173Z" fill="#EBEBEB"/>
<path d="M158.173 432.282V436.14L153.29 441.039H149.417L158.173 432.282Z" fill="#EBEBEB"/>
<path d="M144.713 407.217L137.876 414.053V410.179L140.839 407.217H144.713Z" fill="#EBEBEB"/>
<path d="M158.173 426.227V427.464L144.615 441.039H143.362L158.173 426.227Z" fill="#EBEBEB"/>
</g>
<path d="M160.81 427.106H135.24V430.004H160.81V427.106Z" fill="#C7C7C7"/>
<path d="M204.43 404.303H178.86V443.92H204.43V404.303Z" fill="#C7C7C7"/>
<path d="M201.794 407.217H181.497V441.039H201.794V407.217Z" fill="white"/>
<path d="M208.076 443.936H175.198V449.633H208.076V443.936Z" fill="#EBEBEB"/>
<g opacity="0.5">
<path d="M201.794 407.217V411.4L181.481 431.696V423.981L198.246 407.217H201.794Z" fill="#EBEBEB"/>
<path d="M201.793 432.282V436.14L196.894 441.039H193.037L201.793 432.282Z" fill="#EBEBEB"/>
<path d="M188.317 407.217L181.481 414.053V410.179L184.46 407.217H188.317Z" fill="#EBEBEB"/>
<path d="M201.794 426.227V427.464L188.236 441.039H186.982L201.794 426.227Z" fill="#EBEBEB"/>
</g>
<path d="M204.43 427.106H178.86V430.004H204.43V427.106Z" fill="#C7C7C7"/>
<path d="M248.051 404.303H222.481V443.92H248.051V404.303Z" fill="#C7C7C7"/>
<path d="M245.414 407.217H225.117V441.039H245.414V407.217Z" fill="white"/>
<path d="M251.697 443.936H218.819V449.633H251.697V443.936Z" fill="#EBEBEB"/>
<g opacity="0.5">
<path d="M245.414 407.217V411.4L225.117 431.696V423.981L241.866 407.217H245.414Z" fill="#EBEBEB"/>
<path d="M245.414 432.282V436.14L240.531 441.039H236.657L245.414 432.282Z" fill="#EBEBEB"/>
<path d="M231.937 407.217L225.117 414.053V410.179L228.079 407.217H231.937Z" fill="#EBEBEB"/>
<path d="M245.414 426.227V427.464L231.856 441.039H230.603L245.414 426.227Z" fill="#EBEBEB"/>
</g>
<path d="M248.051 427.106H222.481V430.004H248.051V427.106Z" fill="#C7C7C7"/>
<path d="M264.604 311.675H113.69V323.361H264.604V311.675Z" fill="#EBEBEB"/>
<path d="M436.709 477.042H582.643V323.361H436.709V477.042Z" fill="#DBDBDB"/>
<path d="M449.763 323.361H436.709V477.042H442.488L449.763 323.361Z" fill="#C7C7C7"/>
<path d="M540.52 384.104H566.09V344.488H540.52V384.104Z" fill="#C7C7C7"/>
<path d="M543.157 381.191H563.453V347.369H543.157V381.191Z" fill="white"/>
<path d="M536.858 389.801H569.736V384.104H536.858V389.801Z" fill="#EBEBEB"/>
<g opacity="0.5">
<path d="M543.14 347.385V351.568L563.453 371.865V364.15L546.688 347.385H543.14Z" fill="#EBEBEB"/>
<path d="M543.14 372.451V376.308L548.023 381.207H551.897L543.14 372.451Z" fill="#EBEBEB"/>
<path d="M556.617 347.385L563.453 354.221V350.347L560.474 347.385H556.617Z" fill="#EBEBEB"/>
<path d="M543.14 366.396V367.649L556.698 381.207H557.952L543.14 366.396Z" fill="#EBEBEB"/>
</g>
<path d="M540.52 370.172H566.09V367.275H540.52V370.172Z" fill="#C7C7C7"/>
<path d="M496.899 384.104H522.469V344.488H496.899V384.104Z" fill="#C7C7C7"/>
<path d="M499.536 381.191H519.833V347.369H499.536V381.191Z" fill="white"/>
<path d="M493.237 389.801H526.115V384.104H493.237V389.801Z" fill="#EBEBEB"/>
<g opacity="0.5">
<path d="M499.52 347.385V351.568L519.832 371.865V364.15L503.068 347.385H499.52Z" fill="#EBEBEB"/>
<path d="M499.52 372.451V376.308L504.402 381.207H508.276L499.52 372.451Z" fill="#EBEBEB"/>
<path d="M512.997 347.385L519.833 354.221V350.347L516.854 347.385H512.997Z" fill="#EBEBEB"/>
<path d="M499.52 366.396V367.649L513.078 381.207H514.331L499.52 366.396Z" fill="#EBEBEB"/>
</g>
<path d="M496.899 370.172H522.469V367.275H496.899V370.172Z" fill="#C7C7C7"/>
<path d="M453.262 384.104H478.833V344.488H453.262V384.104Z" fill="#C7C7C7"/>
<path d="M455.915 381.191H476.212V347.369H455.915V381.191Z" fill="white"/>
<path d="M449.616 389.801H482.495V384.104H449.616V389.801Z" fill="#EBEBEB"/>
<g opacity="0.5">
<path d="M455.899 347.385V351.568L476.195 371.865V364.15L459.447 347.385H455.899Z" fill="#EBEBEB"/>
<path d="M455.899 372.451V376.308L460.798 381.207H464.656L455.899 372.451Z" fill="#EBEBEB"/>
<path d="M469.376 347.385L476.196 354.221V350.347L473.233 347.385H469.376Z" fill="#EBEBEB"/>
<path d="M455.899 366.396V367.649L469.457 381.207H470.71L455.899 366.396Z" fill="#EBEBEB"/>
</g>
<path d="M453.262 370.172H478.833V367.275H453.262V370.172Z" fill="#C7C7C7"/>
<path d="M540.52 443.936H566.09V404.32H540.52V443.936Z" fill="#C7C7C7"/>
<path d="M543.157 441.023H563.453V407.2H543.157V441.023Z" fill="white"/>
<path d="M536.858 449.633H569.736V443.936H536.858V449.633Z" fill="#EBEBEB"/>
<g opacity="0.5">
<path d="M543.14 407.217V411.4L563.453 431.696V423.981L546.688 407.217H543.14Z" fill="#EBEBEB"/>
<path d="M543.14 432.282V436.14L548.023 441.039H551.897L543.14 432.282Z" fill="#EBEBEB"/>
<path d="M556.617 407.217L563.453 414.053V410.179L560.474 407.217H556.617Z" fill="#EBEBEB"/>
<path d="M543.14 426.227V427.464L556.698 441.039H557.952L543.14 426.227Z" fill="#EBEBEB"/>
</g>
<path d="M540.52 430.004H566.09V427.106H540.52V430.004Z" fill="#C7C7C7"/>
<path d="M496.899 443.936H522.469V404.32H496.899V443.936Z" fill="#C7C7C7"/>
<path d="M499.536 441.023H519.833V407.2H499.536V441.023Z" fill="white"/>
<path d="M493.237 449.633H526.115V443.936H493.237V449.633Z" fill="#EBEBEB"/>
<g opacity="0.5">
<path d="M499.52 407.217V411.4L519.832 431.696V423.981L503.068 407.217H499.52Z" fill="#EBEBEB"/>
<path d="M499.52 432.282V436.14L504.402 441.039H508.276L499.52 432.282Z" fill="#EBEBEB"/>
<path d="M512.997 407.217L519.833 414.053V410.179L516.854 407.217H512.997Z" fill="#EBEBEB"/>
<path d="M499.52 426.227V427.464L513.078 441.039H514.331L499.52 426.227Z" fill="#EBEBEB"/>
</g>
<path d="M496.899 430.004H522.469V427.106H496.899V430.004Z" fill="#C7C7C7"/>
<path d="M453.262 443.936H478.833V404.32H453.262V443.936Z" fill="#C7C7C7"/>
<path d="M455.915 441.023H476.212V407.2H455.915V441.023Z" fill="white"/>
<path d="M449.616 449.633H482.495V443.936H449.616V449.633Z" fill="#EBEBEB"/>
<g opacity="0.5">
<path d="M455.899 407.217V411.4L476.195 431.696V423.981L459.447 407.217H455.899Z" fill="#EBEBEB"/>
<path d="M455.899 432.282V436.14L460.798 441.039H464.656L455.899 432.282Z" fill="#EBEBEB"/>
<path d="M469.376 407.217L476.196 414.053V410.179L473.233 407.217H469.376Z" fill="#EBEBEB"/>
<path d="M455.899 426.227V427.464L469.457 441.039H470.71L455.899 426.227Z" fill="#EBEBEB"/>
</g>
<path d="M453.262 430.004H478.833V427.106H453.262V430.004Z" fill="#C7C7C7"/>
<path d="M436.694 323.361H587.607V311.675H436.694V323.361Z" fill="#EBEBEB"/>
<path d="M409.951 259.086V272.905H291.443V259.086H312.424C312.424 259.086 322.661 243.347 350.689 243.347C378.717 243.347 388.987 259.086 388.987 259.086H409.951Z" fill="#DBDBDB"/>
<path d="M350.657 697C519.68 697 656.7 684.758 656.7 669.656C656.7 654.554 519.68 642.312 350.657 642.312C181.634 642.312 44.6133 654.554 44.6133 669.656C44.6133 684.758 181.634 697 350.657 697Z" fill="#EBEBEB"/>
<path d="M0 489.282L87.6641 488.891L175.328 488.745L350.657 488.468L525.985 488.745L613.649 488.891L701.313 489.282L613.649 489.672L525.985 489.819L350.657 490.096L175.328 489.819L87.6641 489.672L0 489.282Z" fill="#263238"/>
<path d="M690.229 477.075H11.0679V488.907H690.229V477.075Z" fill="#C7C7C7"/>
<path d="M58.6922 477.075C59.7554 480.947 59.7554 485.035 58.6922 488.907C58.1184 486.986 57.8439 484.988 57.8784 482.983C57.8526 480.984 58.127 478.992 58.6922 477.075Z" fill="#263238"/>
<path d="M111.77 477.075C112.335 478.992 112.609 480.984 112.583 482.983C112.618 484.988 112.343 486.986 111.77 488.907C110.706 485.035 110.706 480.947 111.77 477.075Z" fill="#263238"/>
<path d="M164.863 477.075C165.926 480.947 165.926 485.035 164.863 488.907C164.289 486.986 164.014 484.988 164.049 482.983C164.023 480.984 164.297 478.992 164.863 477.075Z" fill="#263238"/>
<path d="M217.94 477.075C218.505 478.992 218.78 480.984 218.754 482.983C218.788 484.988 218.514 486.986 217.94 488.907C216.877 485.035 216.877 480.947 217.94 477.075Z" fill="#263238"/>
<path d="M271.033 477.075C272.096 480.947 272.096 485.035 271.033 488.907C270.459 486.986 270.185 484.988 270.219 482.983C270.193 480.984 270.468 478.992 271.033 477.075Z" fill="#263238"/>
<path d="M324.11 477.075C324.675 478.992 324.949 480.984 324.924 482.983C324.958 484.988 324.684 486.986 324.11 488.907C323.047 485.035 323.047 480.947 324.11 477.075Z" fill="#263238"/>
<path d="M377.203 477.075C378.267 480.947 378.267 485.035 377.203 488.907C376.63 486.986 376.355 484.988 376.39 482.983C376.364 480.984 376.638 478.992 377.203 477.075Z" fill="#263238"/>
<path d="M430.28 477.075C430.845 478.992 431.119 480.984 431.094 482.983C431.128 484.988 430.854 486.986 430.28 488.907C429.217 485.035 429.217 480.947 430.28 477.075Z" fill="#263238"/>
<path d="M483.373 477.075C484.437 480.947 484.437 485.035 483.373 488.907C482.8 486.986 482.525 484.988 482.56 482.983C482.534 480.984 482.808 478.992 483.373 477.075Z" fill="#263238"/>
<path d="M536.45 477.075C537.015 478.992 537.29 480.984 537.264 482.983C537.299 484.988 537.024 486.986 536.45 488.907C535.387 485.035 535.387 480.947 536.45 477.075Z" fill="#263238"/>
<path d="M589.544 477.075C590.607 480.947 590.607 485.035 589.544 488.907C588.97 486.986 588.695 484.988 588.73 482.983C588.704 480.984 588.979 478.992 589.544 477.075Z" fill="#263238"/>
<path d="M642.621 477.075C643.186 478.992 643.46 480.984 643.434 482.983C643.469 484.988 643.194 486.986 642.621 488.907C641.557 485.035 641.557 480.947 642.621 477.075Z" fill="#263238"/>
<path d="M87.6641 477.075C87.6641 477.075 86.2969 470.678 83.5625 469.701C80.8281 468.725 79.1516 471.573 79.1516 471.573C79.1516 471.573 78.5169 465.47 74.6268 463.647C70.7368 461.824 67.8396 465.502 67.8396 465.502C67.8396 465.502 64.861 457.755 59.5387 457.755C54.2163 457.755 51.547 469.148 51.547 469.148C51.547 469.148 48.4057 465.763 45.183 467.683C41.9603 469.604 41.9277 477.075 41.9277 477.075H87.6641Z" fill="#37474F"/>
<path d="M541.513 477.075C541.513 477.075 540.145 470.678 537.411 469.701C534.677 468.725 533.016 471.573 533.016 471.573C533.016 471.573 532.365 465.47 528.492 463.647C524.618 461.824 521.704 465.551 521.704 465.551C521.704 465.551 518.726 457.803 513.403 457.803C508.081 457.803 505.395 469.197 505.395 469.197C505.395 469.197 502.27 465.811 499.048 467.732C495.825 469.653 495.792 477.123 495.792 477.123L541.513 477.075Z" fill="#455A64"/>
<path d="M208.564 477.075H160.468C160.468 477.075 162.095 470.287 165.237 469.815C166.196 469.724 167.16 469.93 167.998 470.405C168.836 470.879 169.509 471.599 169.924 472.468C169.924 472.468 169.778 463.012 175.735 461.401C181.692 459.789 186.673 468.155 186.673 468.155C186.673 468.155 190.416 463.386 195.494 463.696C200.573 464.005 201.891 471.834 201.891 471.834C201.891 471.834 206.513 469.132 208.564 477.075Z" fill="#37474F"/>
<path d="M44.9224 477.075H19.6128C19.6128 477.075 19.6128 473.298 22.1519 472.306C22.8264 472.009 23.5792 471.941 24.2959 472.112C25.0126 472.282 25.6542 472.682 26.1233 473.25C26.1233 473.25 27.1324 466.332 31.7712 466.332C36.4099 466.332 38.6398 472.306 38.6398 472.306C39.0333 471.735 39.5851 471.293 40.2272 471.032C40.8693 470.772 41.5736 470.705 42.2531 470.841C44.8248 471.166 44.9224 477.075 44.9224 477.075Z" fill="#455A64"/>
<path d="M228.421 477.075H203.112C203.112 477.075 203.112 473.298 205.651 472.306C206.325 472.009 207.078 471.941 207.795 472.112C208.512 472.282 209.153 472.682 209.622 473.25C209.622 473.25 210.648 466.332 215.286 466.332C219.925 466.332 222.139 472.306 222.139 472.306C222.532 471.735 223.084 471.293 223.726 471.032C224.368 470.772 225.073 470.705 225.752 470.841C228.324 471.166 228.421 477.075 228.421 477.075Z" fill="#455A64"/>
<path d="M644.769 477.075H619.459C619.459 477.075 619.459 473.298 621.999 472.306C622.673 472.009 623.426 471.941 624.143 472.112C624.859 472.282 625.501 472.682 625.97 473.25C625.97 473.25 626.979 466.332 631.618 466.332C636.257 466.332 638.486 472.306 638.486 472.306C638.878 471.734 639.43 471.29 640.073 471.029C640.715 470.769 641.42 470.703 642.1 470.841C644.671 471.166 644.769 477.075 644.769 477.075Z" fill="#455A64"/>
<path d="M681.7 477.075H639.968C639.968 477.075 640.065 470.857 644.167 469.213C645.282 468.745 646.52 468.65 647.693 468.944C648.867 469.237 649.914 469.903 650.678 470.841C650.678 470.841 652.305 459.447 660.004 459.447C667.703 459.447 671.3 469.213 671.3 469.213C671.948 468.272 672.857 467.541 673.916 467.11C674.974 466.679 676.136 466.567 677.257 466.788C681.537 467.341 681.7 477.075 681.7 477.075Z" fill="#37474F"/>
<path d="M446.377 473.64C446.377 473.64 479.435 528.605 479.451 528.654C485.831 539.12 491.235 548.43 493.579 553.492C494.259 554.62 494.672 555.89 494.783 557.203C494.783 557.203 494.783 557.284 494.783 557.3C492.96 561.321 410.716 614.707 407.217 615.602C403.717 616.497 400.885 606.601 402.431 601.979C403.978 597.356 426.325 562.834 426.325 562.834L393.772 507.576L446.377 473.64Z" fill="#AD6359"/>
<path d="M469.587 512.313L414.866 543.514C414.866 543.514 367.502 476.31 358.013 435.733C351.259 406.859 411.611 272.384 411.611 272.384L469.034 274.63C469.034 274.63 417.471 404.84 420.205 418.285C423.542 434.707 469.587 512.313 469.587 512.313Z" fill="#AD6359"/>
<path d="M494.8 557.349C494.8 557.349 494.8 557.431 494.8 557.447C492.96 561.467 410.716 614.853 407.233 615.749C403.75 616.644 400.902 606.748 402.448 602.125C403.294 599.619 410.179 588.421 416.348 578.639C410.619 588.144 398.753 615.911 485.49 538.762C489.135 544.963 492 550.155 493.628 553.557C494.313 554.71 494.715 556.01 494.8 557.349Z" fill="#263238"/>
<path d="M527.84 371.1L567.017 329.628C576.018 321.278 588.828 308.468 591.106 308.289C595.387 309.282 665.164 379.759 666.742 383.014C668.321 386.269 659.19 391.005 654.356 390.419C649.522 389.834 611.224 374.827 611.224 374.827L569.833 416.071L527.84 371.1Z" fill="#AD6359"/>
<path d="M654.356 390.485C651.915 390.175 641.14 386.285 630.951 382.46C642.718 384.707 665.587 384.397 568.645 328.163C577.483 319.878 588.942 308.485 591.09 308.354C595.387 309.347 665.163 379.824 666.726 383.079C668.289 386.334 659.19 391.071 654.356 390.485Z" fill="#263238"/>
<path d="M412.083 272.4C412.083 272.4 415.696 292.55 419.261 308.843C421.849 320.741 424.583 331.223 426.341 332.362C428.099 333.501 438.093 338.449 441.38 339.963C441.38 339.963 455.166 417.959 470.678 444.538C476.016 453.637 503.54 465.128 518.416 457.559C553.312 439.655 598.593 387.49 598.593 387.49L556.275 341.037L510.701 385.797C502.775 366.428 501.391 328.83 501.391 328.83C501.391 328.83 503.019 292.013 491.283 275.444L412.083 272.4Z" fill="#AD6359"/>
<path d="M411.139 272.368C411.139 272.368 354.758 384.121 353.7 430.02C353.359 444.831 360.813 463.712 360.813 463.712C360.813 463.712 415.16 473.624 445.775 459.984C476.391 446.345 489.721 418.936 503.101 395.84C509.009 385.634 513.485 383.063 513.485 383.063C513.485 383.063 503.101 335.747 502.938 330.474C502.938 330.474 505.493 295.968 491.365 275.444L411.139 272.368Z" fill="#263238"/>
<path d="M456.566 129.901C439.786 146.959 437.214 189.896 459.04 218.265C477.53 242.289 519.263 245.935 536.841 231.042C555.478 215.173 552.125 190.189 537.981 178.307C523.332 166.034 506.291 169.794 497.371 158.775C493.107 153.502 491.3 142.173 485.327 134.117C478.67 125.132 465.177 121.144 456.566 129.901Z" fill="#263238"/>
<path d="M489.607 141.685C490.949 145.539 492.61 149.273 494.572 152.851C496.522 156.524 499.256 159.725 502.58 162.226C504.33 163.394 506.268 164.253 508.309 164.765C510.278 165.351 512.264 165.839 514.233 166.393C518.169 167.332 522.053 168.472 525.871 169.811C529.67 171.097 533.286 172.87 536.63 175.084C539.965 177.304 542.805 180.189 544.973 183.559C547.141 186.928 548.589 190.709 549.228 194.665C549.914 198.662 550.122 202.727 549.846 206.774C550.414 202.722 550.452 198.613 549.96 194.551C549.428 190.437 548.072 186.474 545.972 182.897C543.822 179.324 540.923 176.259 537.476 173.912C534.054 171.587 530.345 169.716 526.441 168.346C522.568 167.013 518.622 165.899 514.624 165.009C512.655 164.521 510.685 164.049 508.748 163.512C506.834 163.023 505.002 162.255 503.312 161.233C500.03 158.929 497.291 155.934 495.288 152.46C493.134 149.012 491.236 145.41 489.607 141.685Z" fill="#263238"/>
<path d="M453.376 133.693C448.542 141.021 444.875 149.054 442.504 157.506C440.031 165.989 439.18 174.863 439.997 183.662C440.457 188.065 441.458 192.394 442.976 196.553C443.325 197.6 443.732 198.627 444.196 199.629C444.599 200.656 445.056 201.661 445.564 202.64C446.085 203.616 446.573 204.609 447.11 205.57L448.884 208.369C453.844 215.636 460.168 221.871 467.504 226.729C465.877 225.313 464.102 223.994 462.491 222.53C460.869 221.084 459.321 219.557 457.852 217.956C454.838 214.838 452.16 211.412 449.861 207.734C445.229 200.416 442.37 192.117 441.511 183.499C440.642 174.88 441.359 166.175 443.627 157.815C444.698 153.603 446.057 149.47 447.696 145.445C449.308 141.398 451.206 137.471 453.376 133.693Z" fill="#263238"/>
<path d="M447.761 200.459C436.058 205.911 384.283 216.247 368.446 204.056C352.317 191.637 340.533 141.604 338.612 135.37C334.136 120.721 379.482 118.963 380.816 122.967C385.569 137.209 390.973 174.661 396.995 176.679C409.658 180.781 421.881 181.367 442.259 185.013C456.452 187.487 460.7 194.437 447.761 200.459Z" fill="#AD6359"/>
<path d="M339.703 138.023C337.603 133.335 329.628 110.744 328.879 104.038C328.13 97.3322 327.349 77.882 332.427 76.7753C337.505 75.6685 338.189 81.3814 338.189 81.3814C338.189 81.3814 339.166 73.1294 344.374 72.4783C349.582 71.8273 350.347 80.7141 350.347 80.7141C350.347 80.7141 351.975 72.2993 357.216 72.0226C362.457 71.7459 361.724 80.7955 361.724 80.7955C361.724 80.7955 362.848 73.0317 367.258 74.6431C372.581 76.5637 368.886 90.6264 370.27 97.967C370.595 99.5946 379.075 131.301 379.075 131.301L339.703 138.023Z" fill="#AD6359"/>
<path d="M361.773 79.998C359.088 90.3497 359.706 95.3466 362.913 105.389C362.913 105.584 362.701 105.715 362.62 105.519C358.583 95.9813 356.907 89.8126 361.285 79.8352C361.497 79.347 361.903 79.4934 361.773 79.998Z" fill="#263238"/>
<path d="M350.656 79.8516C348.801 90.8543 349.436 96.2906 352.007 107.033C352.007 107.068 351.994 107.101 351.969 107.125C351.945 107.149 351.912 107.163 351.877 107.163C351.843 107.163 351.809 107.149 351.785 107.125C351.761 107.101 351.747 107.068 351.747 107.033C348.329 96.6975 346.864 90.5125 350.119 79.7702C350.152 79.3633 350.656 79.347 350.656 79.8516Z" fill="#263238"/>
<path d="M338.335 81.9023C337.31 92.6772 337.733 98.6506 341.591 108.774C341.597 108.82 341.589 108.867 341.566 108.908C341.543 108.948 341.508 108.98 341.466 108.999C341.423 109.017 341.376 109.021 341.331 109.01C341.285 108.999 341.245 108.973 341.216 108.937C336.333 99.0087 335.699 91.5541 337.961 81.9023C338.156 81.2513 338.4 81.2187 338.335 81.9023Z" fill="#263238"/>
<path d="M381.24 137.632C381.24 137.632 386.937 125.507 388.271 119.614C389.606 113.722 386.497 89.9916 381.321 90.3172C374.648 90.8054 373.753 104.868 374.209 111.818C374.209 111.818 358.762 112.941 355.93 122.886C353.098 132.831 381.24 137.632 381.24 137.632Z" fill="#AD6359"/>
<path d="M379.531 91.1472C373.769 96.0301 374.957 105.063 374.908 111.834C374.913 111.935 374.894 112.035 374.852 112.127C374.809 112.218 374.745 112.298 374.665 112.359C374.585 112.42 374.491 112.46 374.391 112.477C374.292 112.493 374.19 112.485 374.094 112.453C367.584 113.348 358.827 116.506 355.735 122.626C355.713 122.657 355.682 122.681 355.645 122.691C355.608 122.702 355.569 122.699 355.534 122.683C355.499 122.668 355.47 122.64 355.454 122.606C355.437 122.572 355.433 122.532 355.442 122.495C357.867 115.48 366.282 111.688 373.346 111.102C373.346 104.152 372.516 94.9884 379.449 91.0495C379.531 91.017 379.58 91.1472 379.531 91.1472Z" fill="#263238"/>
<path d="M384.316 132.538C384.316 132.538 392.812 172.822 396.409 174.628C402.383 177.64 436.889 183.011 449.161 185.566C461.433 188.121 469.832 195.999 439.981 206.611C411.14 216.865 379.759 222.709 364.264 216.865C345.448 209.753 328.326 166.523 328.326 166.523L384.316 132.538Z" fill="#1E376C"/>
<path d="M335.487 175.784C357.72 161.038 381.858 148.114 386.025 145.689C386.236 145.575 386.35 145.95 386.155 146.063C382.232 148.375 354.937 165.855 335.617 176.191C335.389 176.354 335.275 175.963 335.487 175.784Z" fill="#263238"/>
<path opacity="0.1" d="M459.985 194.73C458.487 198.066 452.725 202.087 439.981 206.611C411.139 216.865 379.759 222.709 364.264 216.865C362.111 216.011 360.093 214.848 358.274 213.415L459.985 194.73Z" fill="black"/>
<path d="M411.139 272.368L492.065 275.525C492.065 275.525 488.338 219.144 476.212 195.902C470.694 185.322 462.67 184.508 454.662 188.04C452.66 188.935 425.365 208.874 421.23 217.337C417.536 224.776 421.491 235.241 421.491 235.241L411.139 272.368Z" fill="#EBEBEB"/>
<path d="M452.221 188.805C452.221 188.805 440.42 202.396 439.574 207.816C439.103 212.143 439.103 216.509 439.574 220.837C446.417 218.137 453.121 215.095 459.659 211.722C466.332 207.93 470.89 188.545 470.89 188.545C470.89 188.545 480.476 197.611 484.545 215.921C487.703 230.049 494.832 273.328 495.369 274.597C495.906 275.867 506.763 302.56 505.363 329.807C505.363 329.807 513.241 363.368 517.017 367.145C520.793 370.921 527.124 366.233 527.124 366.233C527.124 366.233 505.363 441.576 464.151 454.125C427.578 465.323 349.501 437.539 351.129 422.11C352.756 406.68 377.984 336.968 408.779 272.368L420.889 235.599C420.889 235.599 415.599 224.825 421.149 216.442C426.699 208.06 447.891 190.742 452.221 188.805Z" fill="#1E376C"/>
<path opacity="0.1" d="M404.645 378.766C402.285 385.569 400.039 392.389 397.532 399.144C396.263 402.545 395.123 406.012 394 409.479C392.763 413.006 391.981 416.676 391.673 420.401C391.673 420.433 391.66 420.464 391.637 420.487C391.614 420.51 391.583 420.523 391.551 420.523C391.518 420.523 391.487 420.51 391.464 420.487C391.442 420.464 391.429 420.433 391.429 420.401C391.515 416.3 392.061 412.221 393.056 408.242C394.435 400.99 396.445 393.872 399.062 386.969C400.43 383.567 401.976 380.214 403.603 376.91C405.231 373.606 406.859 370.253 408.633 367.144C408.763 366.917 409.186 367.047 409.089 367.323C407.624 371.1 405.996 374.876 404.645 378.766Z" fill="black"/>
<path opacity="0.1" d="M466.381 395.693C466.381 390.81 466.381 386.058 466.691 381.24C466.984 376.992 467.325 372.744 467.911 368.528C468.497 364.312 469.409 360.048 470.385 355.849C472.322 347.466 474.552 339.117 476.993 330.865C475.643 335.503 474.406 340.175 473.429 344.911C471.801 353.277 470.857 361.725 469.62 370.156C468.383 378.587 467.228 387.148 466.577 395.661C466.625 395.84 466.381 395.856 466.381 395.693Z" fill="black"/>
<path opacity="0.1" d="M486.222 440.453C485.669 440.99 485.115 441.495 484.594 441.999C483.618 441.299 482.657 440.583 481.713 439.867C473.396 433.519 464.314 426.227 460.652 416.087C459.128 411.166 458.494 406.013 458.78 400.869C458.961 395.576 459.461 390.298 460.278 385.065C460.278 384.869 460.636 384.902 460.603 385.065C459.914 390.821 459.697 396.624 459.952 402.415C460.315 407.447 461.723 412.347 464.086 416.803C466.535 421.149 469.606 425.113 473.201 428.571C477.286 432.803 481.73 436.644 486.222 440.453Z" fill="black"/>
<path opacity="0.1" d="M436.66 370.497C434.089 377.626 431.631 384.788 429.564 392.08C428.544 395.682 427.633 399.301 426.83 402.936C426.032 406.615 425.446 410.326 424.779 414.02C424.095 417.665 423.655 421.352 423.46 425.056C423.363 426.96 423.363 428.864 423.46 430.769C423.558 432.673 423.346 434.463 423.46 436.319C423.46 436.579 423.086 436.579 423.053 436.319C422.874 435.147 422.565 434.024 422.337 432.884C422.178 431.876 422.075 430.86 422.028 429.841C421.849 427.741 421.784 425.642 421.751 423.558C421.642 419.381 421.795 415.2 422.207 411.042C423.174 403.517 424.808 396.093 427.09 388.857C429.238 381.598 431.761 374.453 434.349 367.34C437.051 359.934 439.672 352.496 442.927 345.318C446.182 338.14 449.34 330.523 452.237 323.003C452.237 322.824 452.579 322.889 452.514 323.003C451.032 327.202 449.714 331.467 448.265 335.666C446.817 339.865 445.743 344.195 444.375 348.41C443.171 352.154 441.967 355.849 440.616 359.543C439.265 363.238 437.979 366.868 436.66 370.497Z" fill="black"/>
<path opacity="0.1" d="M405.817 451.618L403.31 450.984C401.332 445.713 400.105 440.19 399.664 434.577C399.637 432.43 399.74 430.283 399.974 428.148C400.104 426.146 400.348 424.144 400.641 422.158C401.258 418.047 402.351 414.022 403.896 410.163C403.896 410.016 404.189 410.163 404.14 410.26C402.55 414.428 401.643 418.825 401.455 423.281C401.362 425.236 401.417 427.195 401.618 429.141C401.845 431.094 402.285 433.031 402.529 435C402.998 438.926 403.688 442.822 404.596 446.67C404.954 448.396 405.377 450.023 405.817 451.618Z" fill="black"/>
<path opacity="0.1" d="M475.007 449.226C471.606 451.298 467.959 452.939 464.151 454.109C457.798 455.9 451.22 456.766 444.62 456.68C443.383 454.971 442.227 453.246 441.12 451.456C437.143 445.245 434.53 438.26 433.454 430.964C432.396 422.5 434.447 413.939 436.237 405.719C438.076 397.207 451.179 360.243 453.327 362.994C455.932 366.347 448.526 405.508 448.07 410.195C447.434 414.555 448.21 419.004 450.284 422.891C452.67 426.58 455.454 429.997 458.585 433.08C461.71 436.465 464.932 439.758 468.253 442.959C470.434 445.124 472.729 447.159 475.007 449.226Z" fill="black"/>
<path opacity="0.1" d="M520.549 368.593C519.667 370.192 518.706 371.746 517.668 373.248C515.031 377.236 512.362 381.207 509.709 385.162C507.055 389.118 504.256 393.187 501.57 397.207C499.341 400.462 497.322 403.929 493.888 406.126C493.754 406.202 493.6 406.232 493.448 406.214C493.295 406.195 493.153 406.128 493.042 406.022C492.931 405.916 492.856 405.777 492.83 405.626C492.804 405.475 492.826 405.319 492.895 405.182C494.946 401.032 497.306 397.044 499.52 392.959C503.384 386.282 506.899 379.41 510.05 372.369C511.563 368.753 512.846 365.046 513.892 361.269C513.892 361.122 513.973 360.959 514.022 360.813C514.67 363.065 515.687 365.193 517.033 367.112C517.966 368.047 519.228 368.578 520.549 368.593Z" fill="black"/>
<path opacity="0.1" d="M489.314 269.715C484.269 271.7 479.239 273.735 474.047 275.314C468.968 276.815 463.79 277.963 458.552 278.748C449.367 280.379 439.926 279.821 430.996 277.12C425.927 275.327 421.279 272.513 417.341 268.852C417.227 268.754 417.064 268.852 417.178 269.047C423.386 276.292 432.111 280.91 441.592 281.971C452.042 283.338 462.198 281.124 471.883 277.283C477.758 274.956 483.585 272.4 489.38 269.926C489.493 269.877 489.445 269.666 489.314 269.715Z" fill="black"/>
<path d="M448.966 237.178C445.525 236.485 442.038 236.05 438.532 235.876C436.791 235.876 435.066 235.876 433.324 235.876C432.461 235.876 431.599 235.876 430.72 235.876C429.812 235.895 428.905 235.808 428.018 235.616C428.018 235.616 427.904 235.713 428.018 235.73C428.826 236.012 429.653 236.241 430.492 236.413C431.316 236.551 432.148 236.633 432.982 236.657C434.74 236.739 436.514 236.739 438.288 236.804C441.836 236.918 445.401 237.048 448.949 237.422C449.079 237.471 449.128 237.211 448.966 237.178Z" fill="#263238"/>
<path d="M456.355 242.517C453.698 241.414 450.981 240.463 448.217 239.669C446.833 239.278 445.417 238.969 444.001 238.692L441.967 238.334C441.218 238.22 440.437 238.187 439.704 238.057C439.623 238.057 439.59 238.171 439.704 238.187C440.42 238.334 441.088 238.594 441.787 238.773L443.871 239.327C445.271 239.701 446.654 240.092 448.054 240.45C450.853 241.182 453.62 241.915 456.387 242.745C456.418 242.74 456.445 242.724 456.463 242.7C456.481 242.675 456.489 242.645 456.485 242.615C456.481 242.584 456.465 242.557 456.44 242.539C456.416 242.52 456.385 242.513 456.355 242.517Z" fill="#263238"/>
<path d="M473.819 208.174C492.488 234.867 521.411 274.565 538.55 274.207C554.061 273.898 578.801 260.518 605.755 246.179C611.126 243.314 586.76 202.835 581.34 206.449C570.712 213.545 548.039 232.491 540.65 233.728C537.508 234.232 502.238 208.255 482.364 195.771C464.981 184.801 470.19 202.982 473.819 208.174Z" fill="#AD6359"/>
<path d="M629.323 234.167C621.787 240.385 597.861 250.134 592.327 249.857C586.793 249.581 574.293 215.287 577.336 210.485C580.38 205.684 607.366 186.722 617.344 186.591C627.321 186.461 637.119 227.738 629.323 234.167Z" fill="#AD6359"/>
<path d="M592.197 160.777C592.197 160.777 604.811 148.179 620.697 157.929C620.697 157.929 621.38 205.309 621.82 208.174C622.259 211.038 635.182 263.969 635.182 263.969C635.182 263.969 623.219 272.416 604.697 265.515C604.697 265.515 607.692 211.217 607.383 209.622C607.073 208.027 592.197 160.777 592.197 160.777Z" fill="#EBEBEB"/>
<path d="M635.183 263.969C635.183 263.969 617.832 254.203 604.697 265.515C604.697 265.515 618.304 273.442 635.183 263.969Z" fill="#DBDBDB"/>
<path d="M621.82 208.174C622.194 207.881 621.82 207.718 621.527 207.653C621.201 207.568 620.869 207.509 620.534 207.474C619.851 207.393 619.167 207.36 618.483 207.344C617.115 207.308 615.746 207.346 614.382 207.458C613.015 207.555 611.647 207.718 610.296 207.93C609.634 208.035 608.981 208.193 608.343 208.402C607.774 208.597 606.943 208.89 607.383 209.622C607.206 209.523 607.072 209.36 607.009 209.167C606.975 208.952 607.022 208.732 607.139 208.548C607.35 208.204 607.634 207.91 607.969 207.686C608.59 207.273 609.263 206.945 609.971 206.709C611.356 206.241 612.794 205.945 614.252 205.83C615.711 205.72 617.178 205.808 618.614 206.09C619.339 206.222 620.048 206.429 620.729 206.709C621.08 206.849 621.413 207.029 621.722 207.246C621.902 207.356 622.049 207.514 622.145 207.702C622.177 207.753 622.194 207.812 622.194 207.873C622.194 207.933 622.177 207.992 622.145 208.044C622.051 208.116 621.938 208.161 621.82 208.174Z" fill="#1E376C"/>
<path d="M621.966 208.906C622.324 208.581 621.966 208.467 621.624 208.402C621.291 208.344 620.953 208.312 620.615 208.304C619.915 208.304 619.232 208.304 618.532 208.304C617.148 208.304 615.781 208.499 614.43 208.711C613.079 208.923 611.68 209.167 610.329 209.476C609.663 209.614 609.01 209.804 608.375 210.046C608.065 210.142 607.773 210.291 607.513 210.485C607.446 210.524 607.388 210.578 607.346 210.643C607.303 210.708 607.276 210.782 607.266 210.86C607.257 210.937 607.265 211.015 607.291 211.089C607.317 211.162 607.359 211.228 607.415 211.283C607.322 211.242 607.239 211.182 607.171 211.106C607.104 211.03 607.054 210.94 607.024 210.843C606.992 210.623 607.038 210.398 607.155 210.208C607.371 209.873 607.647 209.581 607.968 209.346C608.577 208.906 609.239 208.545 609.938 208.271C611.3 207.723 612.72 207.33 614.17 207.1C615.633 206.896 617.117 206.896 618.581 207.1C619.321 207.185 620.052 207.343 620.762 207.572C621.125 207.692 621.474 207.85 621.803 208.044C621.989 208.144 622.146 208.289 622.259 208.467C622.271 208.515 622.273 208.565 622.264 208.614C622.256 208.663 622.237 208.71 622.209 208.751C622.182 208.792 622.146 208.827 622.104 208.854C622.062 208.881 622.015 208.899 621.966 208.906Z" fill="#1E376C"/>
<path d="M622.096 209.492C622.164 209.437 622.215 209.364 622.242 209.281C622.08 209.265 621.917 209.265 621.754 209.281L620.745 209.476L618.71 209.899C617.36 210.192 615.992 210.42 614.641 210.664C613.29 210.908 611.907 211.087 610.54 211.25C609.856 211.348 609.173 211.429 608.505 211.559C608.183 211.606 607.866 211.688 607.561 211.803C607.268 211.901 607.089 212.129 607.366 212.471C607.272 212.432 607.189 212.37 607.127 212.29C607.064 212.21 607.023 212.116 607.008 212.015C607.015 211.903 607.046 211.794 607.099 211.696C607.153 211.597 607.227 211.512 607.317 211.445C607.597 211.194 607.909 210.981 608.245 210.811C608.896 210.498 609.571 210.237 610.263 210.029C612.96 209.216 615.749 208.746 618.564 208.63C619.28 208.63 619.98 208.63 620.696 208.63C621.057 208.654 621.416 208.703 621.77 208.776C621.963 208.814 622.15 208.88 622.324 208.971C622.38 209.005 622.43 209.049 622.47 209.102C622.493 209.132 622.505 209.169 622.505 209.207C622.505 209.245 622.493 209.283 622.47 209.313C622.361 209.401 622.233 209.463 622.096 209.492Z" fill="#1E376C"/>
<path d="M602.044 189.879C600.335 194.762 607.073 193.997 607.073 193.997C607.073 193.997 597.649 197.432 597.828 203.161C598.007 208.89 606.113 207.441 606.699 207.36C606.194 207.555 597.617 210.957 598.382 216.67C599.195 222.627 607.122 219.925 607.627 219.828C607.22 220.153 601.816 224.532 603.395 228.747C606.097 236.006 620.224 225.199 626.393 226.289C626.393 226.289 628.721 234.346 628.769 234.655C628.769 234.655 639.43 227.266 640.44 218.851C640.603 217.631 640.346 216.392 639.71 215.338C639.073 214.284 638.096 213.48 636.94 213.057C636.94 213.057 641.693 210.322 641.221 205.798C640.977 203.454 637.119 201.826 637.119 201.826C638.161 201.146 638.996 200.193 639.533 199.071C640.07 197.948 640.288 196.7 640.163 195.462C639.642 192.207 635.785 191.084 635.785 191.084C635.785 191.084 638.307 187.177 636.712 184.085C633.441 177.802 605.739 179.43 602.044 189.879Z" fill="#AD6359"/>
<path d="M637.119 201.728C637.233 201.728 637.233 201.549 637.119 201.533C626.51 199.658 615.58 201.644 606.308 207.132C605.999 207.327 605.901 207.832 606.308 207.62C612.819 204.202 628.216 201.484 637.119 201.728Z" fill="#263238"/>
<path d="M607.122 220.462C616.237 215.189 626.117 213.366 636.55 212.959C636.68 212.959 636.664 212.764 636.55 212.748C631.39 211.559 624.782 212.503 619.688 213.692C614.942 214.707 610.547 216.952 606.943 220.202C606.797 220.283 606.927 220.576 607.122 220.462Z" fill="#263238"/>
<path d="M607.073 193.997C605.322 194.816 603.654 195.803 602.093 196.943C600.527 197.975 599.268 199.408 598.447 201.094C598.107 201.883 598.072 202.77 598.349 203.584C598.647 204.404 599.145 205.137 599.798 205.716C600.493 206.222 601.287 206.578 602.128 206.76C602.968 206.942 603.838 206.947 604.681 206.774L608.864 206.09L605.169 208.19C603.522 209.114 602.033 210.295 600.758 211.69C600.134 212.304 599.648 213.044 599.331 213.861C599.014 214.677 598.874 215.551 598.919 216.426C598.974 217.231 599.302 217.993 599.85 218.585C600.398 219.177 601.132 219.564 601.93 219.681C603.736 219.924 605.574 219.7 607.269 219.03L612.005 217.403L608.099 220.528C607.009 221.398 606.035 222.404 605.202 223.522C604.372 224.553 603.863 225.803 603.737 227.119C603.714 227.712 603.853 228.3 604.14 228.819C604.427 229.338 604.85 229.769 605.364 230.065C606.619 230.55 607.988 230.658 609.303 230.375C612.165 229.835 614.979 229.067 617.718 228.08C619.118 227.624 620.518 227.185 621.95 226.794C623.363 226.321 624.863 226.16 626.344 226.322C624.88 226.33 623.432 226.623 622.08 227.185C620.697 227.673 619.329 228.226 617.962 228.812C615.236 230.012 612.402 230.949 609.498 231.612C607.931 231.997 606.285 231.918 604.762 231.384C603.967 230.997 603.301 230.389 602.845 229.632C602.389 228.876 602.161 228.003 602.19 227.119C602.295 225.484 602.89 223.918 603.899 222.627C604.8 221.366 605.862 220.228 607.057 219.242L607.887 220.674C605.904 221.504 603.737 221.796 601.604 221.52C600.427 221.347 599.346 220.772 598.545 219.893C597.796 218.991 597.336 217.885 597.226 216.719C597.168 215.613 597.346 214.507 597.747 213.474C598.148 212.442 598.764 211.506 599.554 210.729C600.962 209.21 602.612 207.934 604.437 206.953L604.925 208.369C603.863 208.552 602.774 208.502 601.734 208.22C600.694 207.939 599.728 207.435 598.903 206.742C598.139 205.988 597.579 205.052 597.275 204.023C596.96 202.972 597.047 201.841 597.519 200.849C598.502 199.077 599.963 197.617 601.735 196.634C603.402 195.545 605.195 194.659 607.073 193.997Z" fill="#263238"/>
<path d="M581.357 206.449C581.357 206.449 600.4 169.632 611.143 184.118C614.398 188.431 622.308 209.915 618.011 211.608C612.477 213.773 607.48 205.423 605.169 199.694C605.169 199.694 600.465 213.122 590.13 212.634C588.24 212.51 586.421 211.867 584.873 210.776C583.325 209.685 582.108 208.187 581.357 206.449Z" fill="#AD6359"/>
<path d="M610.166 182.978C611.618 184.521 612.84 186.264 613.796 188.154C614.787 190.02 615.652 191.95 616.384 193.932C617.927 197.889 619.12 201.974 619.948 206.139C620.165 207.248 620.225 208.383 620.127 209.509C620.056 210.152 619.851 210.772 619.525 211.331C619.346 211.64 619.115 211.916 618.841 212.145C618.57 212.375 618.262 212.557 617.93 212.682C616.738 213.122 615.428 213.122 614.235 212.682C613.153 212.267 612.15 211.667 611.273 210.908C609.645 209.436 608.28 207.696 607.236 205.765C606.174 203.908 605.26 201.971 604.502 199.971H605.869C605.282 201.483 604.546 202.933 603.672 204.3C602.831 205.678 601.843 206.96 600.726 208.125C599.609 209.286 598.326 210.273 596.917 211.055C595.527 211.845 593.995 212.354 592.409 212.552C593.917 212.155 595.348 211.505 596.641 210.632C597.917 209.756 599.062 208.704 600.042 207.507C601.033 206.325 601.905 205.05 602.646 203.698C603.386 202.363 604.002 200.963 604.486 199.515L605.055 197.724L605.853 199.466C606.665 201.354 607.6 203.186 608.652 204.951C609.65 206.698 610.919 208.275 612.412 209.622C613.031 210.267 613.805 210.743 614.66 211.002C615.515 211.261 616.423 211.296 617.295 211.104C618.662 210.68 618.597 208.385 618.321 206.432C617.993 204.394 617.564 202.373 617.035 200.378C616.53 198.343 615.993 196.341 615.407 194.355C614.27 190.311 612.501 186.471 610.166 182.978Z" fill="#263238"/>
<path d="M575.969 209.964C575.969 209.964 543.579 232.409 539.689 231.4C533.179 229.772 491.56 199.824 480.622 193.655C469.685 187.487 465.974 196.048 472.338 206.79C489.054 235.013 516.512 279.236 540.617 283.875C553.638 286.365 599.212 269.226 599.212 269.226L575.969 209.964Z" fill="#1E376C"/>
<path d="M489.998 234.623C489.461 233.907 489.135 232.995 488.663 232.247L487.149 229.789C486.14 228.226 485.147 226.647 484.171 225.052C482.201 221.895 480.053 218.851 477.986 215.759C479.793 219.014 481.55 222.269 483.585 225.524C483.634 225.586 483.677 225.651 483.715 225.72L482.413 224.434L479.727 221.748C479.727 221.748 479.581 221.748 479.63 221.846C480.444 222.806 481.257 223.75 482.169 224.629C482.641 225.085 483.097 225.541 483.585 225.964L484.252 226.55L486.547 230.065C487.068 230.879 487.621 231.693 488.175 232.458C488.728 233.223 489.444 233.923 489.916 234.737C489.9 234.851 490.095 234.737 489.998 234.623Z" fill="#263238"/>
<path d="M567.132 219.73C577.288 242.745 585.312 267.094 586.972 271.375C586.972 271.57 586.679 271.619 586.598 271.375C585.068 267.371 573.186 239.245 566.708 219.73C566.692 219.518 567.132 219.486 567.132 219.73Z" fill="#263238"/>
<path d="M456.209 182.913C467.276 180.488 486.531 188.512 487.947 196.862C489.135 204.007 489.331 257.686 490.91 271.733C492.488 285.779 535.474 345.188 535.474 345.188L515.552 343.886L512.101 362.115C512.101 362.115 474.357 310.145 466.935 285.812C459.513 261.479 472.941 192.646 470.906 189.163C468.871 185.68 460.473 186.152 456.664 186.852C452.856 187.552 446.817 194.99 443.757 202.396C440.697 209.801 428.783 257.54 428.604 275.069C428.425 292.599 451.977 358.99 451.977 358.99L434.691 351.226L422.582 367.893C422.582 367.893 404.482 303.195 403.734 274.581C403.262 256.384 416.755 223.636 431.582 201.794C440.079 189.358 449.552 184.362 456.209 182.913Z" fill="#455A64"/>
<path d="M470.011 190.221C469.278 191.605 459.643 199.32 452.969 197.204C450.788 196.504 454.06 184.476 454.06 184.476V183.532L454.597 170.315L471.736 164.83L474.194 164.146C474.194 164.146 473.803 167.76 473.282 172.285C473.282 172.496 473.282 172.708 473.201 172.936C473.12 173.164 473.201 173.424 473.201 173.652C473.201 174.335 473.054 175.019 472.973 175.686C472.892 176.354 472.843 176.712 472.745 177.314C472.648 177.916 472.599 178.372 472.517 178.942C471.939 182.754 471.101 186.522 470.011 190.221Z" fill="#AD6359"/>
<path d="M473.315 172.236C471.123 175.401 468.267 178.05 464.948 180.001C461.629 181.951 457.925 183.156 454.093 183.532L454.63 170.315L471.769 164.83L474.227 164.146C474.227 164.146 473.836 167.76 473.315 172.236Z" fill="#263238"/>
<path d="M442.618 142.239C430.281 161.884 440.649 171.536 444.897 174.156C448.738 176.565 462.15 184.296 476.456 166.018C490.763 147.74 485.522 135.793 477.026 129.82C468.53 123.846 454.972 122.593 442.618 142.239Z" fill="#AD6359"/>
<path d="M447.517 140.595C448.021 140.823 448.526 140.937 449.047 141.116C449.549 141.37 450.12 141.455 450.674 141.36C450.844 141.29 450.985 141.165 451.076 141.006C451.167 140.847 451.204 140.662 451.179 140.481C451.083 140.13 450.895 139.81 450.635 139.556C450.374 139.301 450.051 139.12 449.698 139.032C449.001 138.764 448.229 138.764 447.533 139.032C447.389 139.105 447.267 139.215 447.182 139.352C447.096 139.489 447.05 139.647 447.048 139.808C447.047 139.97 447.089 140.129 447.172 140.267C447.255 140.406 447.374 140.519 447.517 140.595Z" fill="#263238"/>
<path d="M461.205 148.716C460.796 148.374 460.404 148.01 460.033 147.626C459.566 147.302 459.217 146.833 459.041 146.291C459.015 146.11 459.053 145.924 459.148 145.767C459.242 145.61 459.389 145.491 459.561 145.429C459.915 145.347 460.284 145.361 460.63 145.47C460.977 145.578 461.288 145.778 461.531 146.047C462.111 146.521 462.494 147.194 462.605 147.935C462.62 148.104 462.585 148.273 462.506 148.423C462.427 148.572 462.306 148.696 462.158 148.778C462.01 148.861 461.841 148.899 461.672 148.888C461.503 148.877 461.341 148.817 461.205 148.716Z" fill="#263238"/>
<path d="M455.118 151.711C455.118 151.711 455.118 151.842 455.118 151.907C454.239 153.209 453.49 154.853 454.369 156.057C454.369 156.057 454.369 156.171 454.369 156.138C453.002 154.999 454.076 152.818 455.118 151.711Z" fill="#263238"/>
<path d="M457.201 151.077C459.447 152.265 456.908 156.676 454.808 155.569C452.709 154.462 455.313 150.067 457.201 151.077Z" fill="#263238"/>
<path d="M457.933 151.809C458.178 152.281 458.291 152.932 458.731 153.258C459.016 153.387 459.328 153.445 459.64 153.425C459.953 153.405 460.255 153.308 460.521 153.144C460.521 153.144 460.603 153.144 460.521 153.241C460.355 153.684 460.028 154.047 459.606 154.259C459.183 154.47 458.696 154.513 458.243 154.381C457.836 154.144 457.531 153.766 457.387 153.318C457.242 152.87 457.269 152.385 457.461 151.956C457.559 151.776 457.836 151.614 457.933 151.809Z" fill="#263238"/>
<path d="M447.68 147.04C447.68 147.04 447.55 147.04 447.517 147.04C446.785 148.44 445.694 149.921 444.262 149.661C445.808 150.458 447.208 148.489 447.68 147.04Z" fill="#263238"/>
<path d="M447.273 144.859C445.157 143.443 442.471 147.773 444.424 149.091C446.378 150.409 449.047 146.096 447.273 144.859Z" fill="#263238"/>
<path d="M446.198 144.631C445.71 144.631 445.108 144.859 444.685 144.631C444.261 144.403 444.131 143.687 444.099 143.004C444.099 143.004 444.099 143.004 444.001 143.004C443.696 143.345 443.519 143.782 443.501 144.239C443.484 144.697 443.626 145.146 443.903 145.51C444.538 146.096 445.531 145.722 446.231 145.022C446.361 144.94 446.394 144.631 446.198 144.631Z" fill="#263238"/>
<path d="M444.864 157.701C444.924 158.807 445.272 159.879 445.873 160.81C446.211 161.304 446.694 161.679 447.256 161.884C448.51 162.324 449.177 161.379 449.551 160.419C449.749 159.895 449.88 159.348 449.942 158.792C448.176 158.979 446.397 158.597 444.864 157.701Z" fill="#263238"/>
<path d="M445.873 160.81C446.211 161.304 446.695 161.679 447.257 161.884C448.51 162.324 449.177 161.379 449.552 160.419C448.985 160.057 448.312 159.899 447.644 159.97C446.975 160.041 446.351 160.337 445.873 160.81Z" fill="#FF9BBC"/>
<path d="M446.036 154.755C446.036 154.755 444.554 156.627 443.985 157.587C443.985 157.669 444.131 157.848 444.457 158.059C445.192 158.69 446.085 159.108 447.04 159.269C447.995 159.429 448.976 159.326 449.877 158.971C449.898 158.962 449.916 158.948 449.929 158.929C449.942 158.91 449.948 158.888 449.948 158.865C449.948 158.842 449.942 158.82 449.929 158.801C449.916 158.782 449.898 158.767 449.877 158.759C448.154 158.878 446.44 158.432 444.994 157.489C445.075 157.18 447.631 154.381 447.484 154.234C446.703 153.866 445.877 153.604 445.026 153.453C448.005 149.482 451.537 146.015 454.499 142.06C454.597 141.913 454.402 141.75 454.288 141.848C450.326 145.442 446.733 149.422 443.561 153.73C443.155 154.25 445.547 154.625 446.036 154.755Z" fill="#263238"/>
<path d="M475.626 166.588C473.445 165.172 471.068 155.634 477.042 144.615C477.042 144.615 472.354 154.885 472.289 156.741C472.224 158.596 470.971 151.386 475.658 142.434C471.769 142.854 467.839 142.717 463.988 142.027C459.105 140.839 456.648 139.374 456.517 138.902C456.387 138.43 463.598 139.96 466.283 138.902C466.283 138.902 452.318 137.811 447.012 135.321C446.394 135.044 452.432 124.628 463.207 123.928C473.982 123.228 483.438 133.693 484.968 138.853C484.968 138.853 487.979 141.034 488.565 149.319C489.233 158.287 477.986 168.102 475.626 166.588Z" fill="#263238"/>
<path d="M471.931 173.294C471.565 173.252 471.205 173.171 470.857 173.05C470.505 172.942 470.17 172.783 469.864 172.578C469.467 172.32 469.129 171.981 468.871 171.585C468.673 171.271 468.519 170.932 468.415 170.576C468.251 170.05 468.185 169.498 468.22 168.948L472.192 164.065C472.192 164.065 480.004 159.947 482.104 163.056C484.203 166.165 475.984 173.782 471.931 173.294Z" fill="#AD6359"/>
<path d="M479.712 165.188C479.712 165.188 479.712 165.302 479.712 165.286C478.327 165.269 476.953 165.543 475.681 166.09C474.408 166.636 473.264 167.444 472.322 168.46C472.587 168.293 472.885 168.184 473.195 168.143C473.505 168.101 473.821 168.126 474.121 168.218C474.42 168.309 474.697 168.463 474.931 168.671C475.166 168.878 475.353 169.134 475.48 169.42C475.48 169.42 475.398 169.566 475.333 169.518C474.982 169.167 474.53 168.933 474.041 168.848C473.551 168.764 473.048 168.833 472.599 169.046C471.849 169.415 471.139 169.862 470.483 170.38C470.255 170.543 469.93 170.218 470.141 170.022C471.671 166.881 476.261 163.805 479.712 165.188Z" fill="#263238"/>
<path d="M472.094 172.285C471.961 172.45 471.781 172.571 471.579 172.634C471.376 172.698 471.159 172.699 470.956 172.639C470.752 172.579 470.571 172.46 470.435 172.297C470.299 172.134 470.214 171.935 470.191 171.724C470.169 171.513 470.209 171.3 470.307 171.111C470.405 170.923 470.557 170.768 470.743 170.667C470.93 170.565 471.142 170.52 471.353 170.539C471.565 170.557 471.766 170.638 471.932 170.771C472.042 170.859 472.134 170.969 472.202 171.093C472.269 171.217 472.312 171.353 472.327 171.494C472.342 171.635 472.33 171.777 472.29 171.913C472.25 172.048 472.183 172.175 472.094 172.285Z" fill="white"/>
<path d="M474.796 171.845C474.734 171.922 474.658 171.987 474.571 172.034C474.484 172.082 474.389 172.112 474.291 172.123C474.192 172.133 474.093 172.124 473.998 172.096C473.903 172.068 473.815 172.021 473.738 171.959C473.608 171.826 473.531 171.65 473.522 171.464C473.513 171.278 473.571 171.095 473.687 170.95C473.803 170.804 473.968 170.705 474.151 170.673C474.334 170.64 474.523 170.675 474.682 170.771C474.762 170.833 474.828 170.91 474.877 170.998C474.926 171.086 474.957 171.183 474.968 171.284C474.978 171.384 474.969 171.486 474.939 171.582C474.91 171.678 474.861 171.768 474.796 171.845Z" fill="white"/>
<path d="M522.307 163.886C521.012 163.89 519.725 163.681 518.498 163.268C517.182 162.897 515.975 162.213 514.98 161.275C513.986 160.337 513.232 159.172 512.785 157.88C511.987 155.211 513.631 152.069 515.357 148.749C517.359 144.892 519.442 140.92 517.587 137.763C514.071 131.789 500.301 126.581 500.171 126.516L500.594 125.376C501.18 125.604 514.917 130.796 518.628 137.144C520.826 140.871 518.498 145.282 516.431 149.319C514.803 152.411 513.306 155.341 513.957 157.457C514.346 158.554 514.992 159.542 515.842 160.338C516.691 161.134 517.719 161.715 518.84 162.031C520.12 162.52 521.494 162.712 522.86 162.59C524.225 162.469 525.544 162.038 526.718 161.331L527.434 162.324C525.929 163.365 524.137 163.912 522.307 163.886Z" fill="#263238"/>
<path d="M526.147 161.868C526.173 160.402 526.559 158.966 527.271 157.685C528.73 155.728 530.413 153.947 532.284 152.379L533.081 153.306C531.308 154.771 529.718 156.443 528.345 158.287C527.739 159.38 527.404 160.602 527.368 161.851L526.147 161.868Z" fill="#1E376C"/>
<path d="M530.494 163.121C529.404 163.099 528.317 163.012 527.238 162.861L527.417 161.656C528.736 161.859 530.072 161.93 531.405 161.868C533.519 161 535.484 159.808 537.232 158.336L537.981 159.296C537.509 159.654 533.309 162.893 531.47 163.072C531.146 163.104 530.82 163.121 530.494 163.121Z" fill="#1E376C"/>
<path d="M527.499 162.356L526.457 161.721C527.462 159.988 528.628 158.353 529.94 156.838L534.823 152.623L535.621 153.551C535.621 153.551 531.747 156.806 530.738 157.766C529.521 159.195 528.437 160.731 527.499 162.356Z" fill="#1E376C"/>
<path d="M527.368 162.763L526.913 161.624C528.901 160.873 530.818 159.947 532.642 158.857C533.651 157.978 536.76 155.927 536.89 155.846L537.574 156.855C537.574 156.855 534.4 158.954 533.456 159.784C531.517 160.953 529.48 161.949 527.368 162.763Z" fill="#1E376C"/>
<path d="M475.87 135.81L441.836 102.394L490.861 109.735L520.907 147.659L475.87 135.81Z" fill="#1E376C"/>
<path opacity="0.1" d="M475.87 135.81L441.836 102.394L490.861 109.735L520.907 147.659L475.87 135.81Z" fill="black"/>
<path d="M453.197 127.557L458.747 114.715C458.747 114.715 474.21 116.115 483.699 121.584C493.188 127.053 502.026 138.349 502.026 138.349L493.774 150.881C493.774 150.881 481.551 140.302 473.787 136.037C467.133 132.728 460.252 129.894 453.197 127.557Z" fill="#1E376C"/>
<path d="M188.316 575.042C188.316 575.042 188.316 640.326 188.316 640.375C188.316 652.859 188.414 663.813 189.033 669.46C189.025 669.493 189.025 669.526 189.033 669.558C189.032 670.895 189.338 672.215 189.928 673.416V673.497C193.622 676.036 293.38 679.454 296.896 678.38C300.411 677.306 297.693 667.214 293.933 663.992C290.173 660.769 252.543 642.377 252.543 642.377L251.908 577.125L188.316 575.042Z" fill="#EB9481"/>
<path d="M188.333 626.979V640.375C188.333 652.859 188.431 663.813 189.049 669.46C189.042 669.493 189.042 669.526 189.049 669.558C189.192 670.875 189.493 672.17 189.944 673.416V673.497C193.639 676.036 293.396 679.454 296.912 678.38C300.428 677.306 297.71 667.214 293.95 663.992C290.19 660.769 252.559 642.377 252.559 642.377L252.738 628.786L188.333 626.979Z" fill="white"/>
<path d="M297.026 678.396C293.494 679.454 193.753 676.036 190.026 673.513C188.61 672.569 188.252 658.002 188.398 640.391C188.398 640.212 188.398 640.033 188.398 639.838L252.771 641.335V642.426C252.771 642.426 290.255 660.818 294.048 664.073C297.84 667.328 300.542 677.354 297.026 678.396Z" fill="#A6A6A6"/>
<path d="M296.017 674.49C279.22 673.497 211.381 671.104 194.681 671.397C194.551 671.397 194.551 671.495 194.681 671.511C211.316 672.846 279.188 674.766 296.017 674.766C296.375 674.766 296.375 674.506 296.017 674.49Z" fill="#263238"/>
<path d="M258.061 642.784C251.55 641.319 243.412 642.051 238.139 646.592C237.943 646.771 238.139 647.064 238.415 646.999C244.786 645.176 251.334 644.041 257.947 643.614C258.049 643.613 258.147 643.576 258.224 643.509C258.3 643.441 258.35 643.349 258.364 643.248C258.378 643.147 258.355 643.045 258.299 642.959C258.243 642.874 258.159 642.812 258.061 642.784Z" fill="#263238"/>
<path d="M262.764 645.827C256.254 644.362 248.116 645.095 242.858 649.636C242.647 649.815 242.858 650.108 243.119 650.043C249.49 648.222 256.038 647.087 262.65 646.657C262.752 646.657 262.851 646.62 262.927 646.552C263.004 646.485 263.054 646.393 263.067 646.292C263.081 646.191 263.058 646.088 263.003 646.003C262.947 645.918 262.862 645.855 262.764 645.827Z" fill="#263238"/>
<path d="M267.42 648.871C260.909 647.406 252.771 648.138 247.498 652.68C247.302 652.859 247.498 653.152 247.758 653.086C254.13 651.266 260.677 650.131 267.29 649.701C267.393 649.705 267.494 649.67 267.574 649.604C267.654 649.539 267.707 649.446 267.723 649.344C267.739 649.241 267.717 649.137 267.661 649.05C267.605 648.963 267.52 648.899 267.42 648.871Z" fill="#263238"/>
<path d="M185.094 528.101L185.11 528.833L186.559 643.125L256.384 641.726L242.045 293.299H183.076L185.094 528.101Z" fill="#263238"/>
<path d="M253.471 630.088C242.566 629.99 245.691 629.86 234.786 629.893C229.463 629.893 194.388 630.023 189.424 630.918C189.403 630.927 189.384 630.941 189.372 630.96C189.359 630.979 189.352 631.001 189.352 631.024C189.352 631.047 189.359 631.069 189.372 631.088C189.384 631.107 189.403 631.121 189.424 631.13C194.421 631.895 229.463 631.13 234.802 631.048C245.707 630.82 242.566 630.755 253.471 630.397C253.503 630.387 253.532 630.366 253.552 630.338C253.572 630.31 253.583 630.277 253.583 630.243C253.583 630.208 253.572 630.175 253.552 630.147C253.532 630.119 253.503 630.099 253.471 630.088Z" fill="#37474F"/>
<path d="M198.408 591.334C198.256 580.885 198.088 570.441 197.903 560.002C197.502 539.125 197.111 518.243 196.732 497.355C195.972 455.807 195.305 414.254 194.73 372.695C194.371 349.257 194.388 325.803 193.785 302.381H193.688C193.297 323.264 193.541 344.162 193.574 365.045C193.606 385.927 193.688 406.826 193.899 427.709C194.306 469.278 194.876 510.832 195.869 552.385C196.146 564.104 196.422 575.823 196.829 587.526C197.236 599.228 197.496 610.98 198.31 622.682C198.31 622.721 198.326 622.758 198.353 622.786C198.381 622.813 198.418 622.829 198.457 622.829C198.496 622.829 198.533 622.813 198.56 622.786C198.588 622.758 198.603 622.721 198.603 622.682C198.799 612.233 198.538 601.767 198.408 591.334Z" fill="#37474F"/>
<path d="M183.059 293.999L184.605 471.915L231.888 293.299H183.075L183.059 293.999Z" fill="#37474F"/>
<path d="M79.5587 542.391L45.8504 597.177C40.3816 608.392 35.7917 618.337 33.8874 623.691C33.8803 623.724 33.8803 623.757 33.8874 623.789C33.3088 624.998 33.0137 626.323 33.0247 627.663C33.0247 627.663 33.0247 627.663 33.0247 627.761C35.2546 631.651 123.667 677.989 127.297 678.559C130.927 679.129 132.864 668.793 130.862 664.317C128.86 659.841 102.931 626.882 102.931 626.882L136.054 571.884L79.5587 542.391Z" fill="#EB9481"/>
<path d="M33.0086 627.663C33.001 627.695 33.001 627.728 33.0086 627.761C35.2385 631.651 123.651 677.989 127.281 678.575C130.911 679.161 132.847 668.809 130.862 664.317C128.876 659.825 102.932 626.882 102.932 626.882L108.84 617.116C94.3866 609.417 68.1492 595.957 51.8729 587.509L45.8995 597.275C40.4306 608.506 35.8244 618.434 33.9364 623.789C33.9293 623.821 33.9293 623.855 33.9364 623.887C33.3377 625.056 33.02 626.349 33.0086 627.663Z" fill="white"/>
<path d="M127.297 678.559C123.667 677.989 35.2706 631.651 33.0245 627.761C32.1456 626.279 38.1516 613.014 45.8502 597.177L46.0944 596.689L103.468 625.986L102.931 626.947C102.931 626.947 128.843 659.809 130.861 664.382C132.88 668.956 130.926 679.161 127.297 678.559Z" fill="#A6A6A6"/>
<path d="M128.094 674.62C113.446 666.482 53.2234 634.857 38.119 627.891C37.9888 627.891 37.9562 627.891 38.119 627.972C52.5235 636.403 112.876 667.507 128.013 674.864C128.29 675.011 128.404 674.783 128.094 674.62Z" fill="#263238"/>
<path d="M107.635 629.583C102.345 625.417 94.7118 622.552 88.1036 624.375C87.8432 624.456 87.9409 624.815 88.1036 624.863C94.6564 625.986 101.068 627.815 107.228 630.316C107.323 630.352 107.429 630.353 107.524 630.318C107.62 630.283 107.7 630.215 107.749 630.126C107.799 630.037 107.815 629.933 107.794 629.833C107.773 629.734 107.716 629.645 107.635 629.583Z" fill="#263238"/>
<path d="M110.533 634.352C105.243 630.186 97.6093 627.321 91.0011 629.16C90.7407 629.16 90.8383 629.584 91.0011 629.632C97.5538 630.755 103.966 632.584 110.126 635.085C110.221 635.121 110.326 635.122 110.422 635.087C110.517 635.052 110.597 634.984 110.647 634.895C110.696 634.806 110.712 634.702 110.691 634.603C110.67 634.503 110.614 634.414 110.533 634.352Z" fill="#263238"/>
<path d="M113.43 639.121C108.14 634.955 100.506 632.09 93.8981 633.929C93.6376 633.929 93.7353 634.352 93.8981 634.401C100.451 635.524 106.863 637.352 113.023 639.854C113.118 639.89 113.223 639.891 113.319 639.856C113.414 639.821 113.494 639.753 113.544 639.664C113.593 639.575 113.609 639.471 113.588 639.371C113.567 639.272 113.511 639.183 113.43 639.121Z" fill="#263238"/>
<path d="M234.086 293.234C233.825 294.454 229.691 313.579 225.427 330.018C222.318 342.014 219.111 352.577 217.289 353.668C215.205 354.888 205.081 359.381 201.68 360.78C201.68 360.78 178.893 474.487 166.881 509.741C155.797 542.294 109.914 629.225 109.914 629.225L43.2461 595.713C43.2461 595.713 95.3302 507.462 100.734 491.626C109.214 467.081 140.985 347.222 140.985 347.222C140.985 347.222 140.741 309.705 153.388 293.315L234.086 293.234Z" fill="#263238"/>
<path d="M108.889 616.302C99.367 610.98 102.167 612.38 92.6124 607.171C87.9248 604.616 57.1137 587.884 52.3285 586.272C52.2146 586.272 52.1332 586.403 52.2146 586.468C56.2348 589.544 87.3226 605.739 92.059 608.197C101.825 613.21 99.0252 611.663 108.742 616.579C108.777 616.586 108.813 616.582 108.845 616.567C108.877 616.552 108.903 616.527 108.92 616.496C108.936 616.464 108.942 616.429 108.937 616.394C108.931 616.359 108.914 616.327 108.889 616.302Z" fill="#37474F"/>
<path d="M158.075 336.708C159.898 336.236 161.851 336.089 163.707 335.796C165.221 335.552 166.718 335.292 168.199 334.966C171.052 334.459 173.755 333.319 176.11 331.63C178.478 329.455 180.249 326.709 181.253 323.654C181.985 321.929 182.75 320.204 183.515 318.478L184.655 315.988C185.182 315.011 185.655 314.006 186.071 312.977C186.081 312.947 186.104 312.922 186.133 312.908C186.147 312.901 186.163 312.898 186.179 312.897C186.194 312.896 186.21 312.898 186.225 312.904C186.24 312.909 186.254 312.917 186.266 312.928C186.278 312.939 186.287 312.951 186.294 312.966C186.301 312.98 186.305 312.996 186.305 313.012C186.306 313.028 186.304 313.043 186.298 313.058C186.045 313.762 185.833 314.479 185.664 315.207C185.403 316.053 185.175 316.834 184.915 317.73C184.443 319.211 184.004 320.708 183.499 322.189C182.74 324.928 181.647 327.563 180.244 330.035C177.493 334.413 172.578 336.171 167.662 336.805C166.262 336.984 164.846 337.082 163.414 337.164C161.627 337.318 159.83 337.318 158.043 337.164C157.998 337.143 157.96 337.109 157.935 337.066C157.91 337.023 157.898 336.974 157.902 336.924C157.905 336.875 157.924 336.828 157.955 336.789C157.986 336.75 158.028 336.722 158.075 336.708Z" fill="#37474F"/>
<path d="M222.66 351.047C215.431 353.695 208.444 356.962 201.777 360.813C201.73 360.845 201.695 360.893 201.679 360.948C201.663 361.003 201.667 361.062 201.69 361.115C201.714 361.167 201.755 361.21 201.806 361.235C201.858 361.26 201.917 361.266 201.973 361.252C209.004 358.225 216.182 355.328 223.034 351.926C223.092 351.902 223.144 351.866 223.188 351.821C223.232 351.776 223.267 351.723 223.29 351.665C223.313 351.607 223.325 351.545 223.325 351.482C223.324 351.419 223.311 351.357 223.286 351.299C223.262 351.242 223.226 351.189 223.181 351.146C223.137 351.102 223.084 351.067 223.025 351.044C222.967 351.02 222.905 351.008 222.842 351.009C222.779 351.01 222.717 351.023 222.66 351.047Z" fill="#37474F"/>
<path d="M224.776 302.869C224.776 302.625 224.32 302.576 224.336 302.869C224.336 311.219 223.848 318.56 223.148 326.372C222.823 329.986 219.893 350.006 213.627 348.557C212.569 348.313 211.999 347.271 211.869 345.692C211.894 343.614 212.179 341.548 212.715 339.54C213.399 335.357 213.968 331.158 214.343 326.926C215.07 319.044 214.983 311.108 214.082 303.244C214.07 303.2 214.043 303.161 214.006 303.133C213.97 303.105 213.925 303.09 213.879 303.09C213.833 303.09 213.788 303.105 213.751 303.133C213.715 303.161 213.688 303.2 213.675 303.244C213.864 314.176 213.227 325.106 211.771 335.943C210.99 341.135 208.353 348.964 213.806 349.778C219.258 350.591 222.937 337.473 223.571 333.876C225.308 323.635 225.713 313.214 224.776 302.869Z" fill="#37474F"/>
<path d="M213.789 349.062C213.223 350.409 212.755 351.797 212.389 353.212C211.981 354.299 211.777 355.452 211.787 356.614C211.796 356.661 211.818 356.705 211.851 356.739C211.885 356.774 211.927 356.798 211.974 356.809C212.021 356.819 212.07 356.815 212.115 356.798C212.16 356.781 212.199 356.751 212.226 356.711C212.875 355.706 213.369 354.609 213.691 353.456C214.163 352.17 214.668 350.901 215.107 349.599C215.143 349.512 215.161 349.419 215.16 349.326C215.159 349.232 215.14 349.14 215.104 349.054C215.068 348.968 215.015 348.89 214.949 348.824C214.882 348.758 214.803 348.706 214.717 348.671C214.63 348.636 214.538 348.618 214.444 348.618C214.351 348.619 214.258 348.638 214.172 348.674C214.086 348.71 214.008 348.763 213.942 348.83C213.876 348.896 213.824 348.975 213.789 349.062Z" fill="#37474F"/>
<path d="M61.2312 584.58C70.704 566.741 80.4698 549.048 90.2356 531.372C95.1184 522.665 100.115 514.054 104.738 505.233C109.082 496.484 112.607 487.352 115.269 477.953C121.15 458.899 126.705 439.748 131.935 420.498C137.166 401.249 142.092 381.918 146.714 362.506C147.87 357.623 149.139 352.74 150.067 347.857C150.905 342.906 150.905 337.85 150.067 332.899C149.346 328.291 149.308 323.602 149.953 318.983C150.689 314.371 151.778 309.822 153.209 305.376C153.941 303.032 154.739 300.705 155.552 298.393C155.634 298.133 156.041 298.247 155.959 298.507C153.078 307.915 150.149 317.404 150.767 327.365C151.06 332.15 152.395 336.838 152.248 341.656C151.937 346.437 151.124 351.172 149.823 355.784C145.298 375.315 140.415 394.755 135.174 414.102C129.933 433.449 124.475 452.752 118.8 472.013C115.968 481.339 113.332 490.812 109.311 499.682C105.291 508.553 100.213 517.017 95.4277 525.545C85.5317 543.14 75.5543 560.702 65.3491 578.118L61.4428 584.742C61.3614 584.856 61.1498 584.726 61.2312 584.58Z" fill="#37474F"/>
<path d="M196.716 218.412C208.744 223.799 261.723 233.581 277.69 220.918C293.967 208.011 304.546 154.185 305.767 147.821C306.988 141.457 265.548 131.545 264.132 137.323C260.519 152.216 254.285 191.247 248.165 193.33C235.307 197.692 222.839 198.473 202.103 202.493C187.65 205.293 183.434 212.455 196.716 218.412Z" fill="#EB9481"/>
<path d="M305.083 149.156C307.573 144.664 317.469 122.837 318.804 116.229C320.138 109.621 322.58 90.3009 317.615 88.771C312.651 87.241 311.479 92.7749 311.479 92.7749C311.479 92.7749 311.219 84.4577 306.092 83.3835C300.965 82.3093 299.418 91.0496 299.418 91.0496C299.418 91.0496 298.523 82.5209 293.331 81.8047C288.139 81.0885 288.058 90.1544 288.058 90.1544C288.058 90.1544 287.618 82.3255 283.175 83.5463C277.722 84.9949 280.164 99.3343 278.145 106.528C277.69 108.156 266.508 138.967 266.508 138.967L305.083 149.156Z" fill="#EB9481"/>
<path d="M288.091 89.5197C289.865 100.067 288.823 104.982 284.754 114.715C284.744 114.735 284.739 114.756 284.737 114.777C284.736 114.799 284.738 114.82 284.745 114.84C284.752 114.861 284.763 114.88 284.777 114.896C284.791 114.912 284.808 114.926 284.827 114.935C284.847 114.945 284.868 114.951 284.889 114.952C284.91 114.954 284.932 114.951 284.952 114.944C284.973 114.937 284.992 114.926 285.008 114.912C285.024 114.898 285.037 114.881 285.047 114.862C289.93 105.715 292.095 99.725 288.595 89.4058C288.416 88.8198 288.009 88.9338 288.091 89.5197Z" fill="#263238"/>
<path d="M299.256 90.2683C300.151 101.385 299.061 106.74 295.562 117.238C295.562 117.385 295.757 117.482 295.806 117.336C300.119 107.326 302.186 101.304 299.826 90.3008C299.728 89.8126 299.224 89.7637 299.256 90.2683Z" fill="#263238"/>
<path d="M311.284 93.3609C311.366 104.185 310.422 110.109 305.718 119.859C305.692 119.904 305.685 119.958 305.699 120.008C305.713 120.059 305.746 120.101 305.791 120.127C305.836 120.153 305.89 120.16 305.941 120.146C305.991 120.133 306.034 120.099 306.06 120.054C311.838 110.581 313.058 103.208 311.61 93.3935C311.594 92.775 311.268 92.6773 311.284 93.3609Z" fill="#263238"/>
<path d="M263.709 145.168C263.709 145.168 259.07 132.587 258.256 126.613C257.442 120.64 262.602 97.316 267.713 98.0647C274.321 99.139 274.012 113.234 272.954 120.103C272.954 120.103 288.237 122.561 290.19 132.733C292.143 142.906 263.709 145.168 263.709 145.168Z" fill="#EB9481"/>
<path d="M269.438 98.96C274.76 104.282 272.791 113.218 272.254 119.973C272.24 120.073 272.251 120.175 272.286 120.27C272.321 120.365 272.379 120.45 272.454 120.518C272.53 120.585 272.621 120.633 272.719 120.658C272.818 120.682 272.92 120.681 273.019 120.656C279.35 122.105 287.863 126.011 290.434 132.375C290.447 132.414 290.475 132.446 290.512 132.464C290.548 132.483 290.591 132.486 290.63 132.473C290.668 132.46 290.701 132.432 290.719 132.395C290.737 132.359 290.74 132.316 290.727 132.278C288.904 125.083 280.864 120.575 273.816 119.419C274.467 112.502 276.046 103.452 269.487 98.9111C269.438 98.8786 269.405 98.9274 269.438 98.96Z" fill="#263238"/>
<path d="M261.56 147.235C261.56 147.235 252.38 189.391 248.751 191.295C242.696 194.453 207.572 200.443 195.039 203.242C182.506 206.042 172.773 219.616 204.805 224.58C236.836 229.545 265.938 237.276 281.303 230.326C290.857 225.996 320.773 182.327 320.773 182.327L261.56 147.235Z" fill="#1E376C"/>
<path d="M260.453 162.144C283.891 174.889 306.548 190.189 310.698 192.711C310.91 192.842 310.698 193.118 310.438 192.988C306.548 190.612 278.324 174.677 260.144 162.437C259.932 162.307 260.225 162.014 260.453 162.144Z" fill="#263238"/>
<path opacity="0.1" d="M274.532 232.328C258.256 235.306 232.539 228.894 204.756 224.58C185.224 221.537 181.285 215.287 184.02 210.241L274.532 232.328Z" fill="black"/>
<path d="M140.692 320.334C140.969 320.545 244.584 313.319 245.3 312.196C245.691 311.577 244.323 297.466 239.001 280.587C230.163 252.462 211.331 214.538 198.75 202.852C193.72 198.18 179.739 200.199 174.238 206.302C157.896 224.353 139.699 319.536 140.692 320.334Z" fill="#EBEBEB"/>
<path d="M172.024 206.937C172.024 206.937 180.569 222.416 183.255 226.468C189.505 235.909 204.414 249.255 204.414 249.255C205.586 239.132 205.858 228.925 205.228 218.753C204.886 214.945 200.264 203.486 200.264 203.486C200.264 203.486 228.503 233.272 243.477 293.201C258.451 353.131 279.497 526.701 279.497 526.701C279.497 526.701 242.745 556.356 204.365 556.259C142.32 556.08 77.8496 514.494 77.8496 514.494C77.8496 514.494 99.2041 479.223 100.734 474.617C102.264 470.011 134.003 347.059 134.361 346.034C134.719 345.009 156.594 225.085 172.024 206.937Z" fill="#1E376C"/>
<path opacity="0.1" d="M215.156 500.626C213.61 508.325 204.202 537.834 198.31 556.112C186.411 555.492 174.6 553.726 163.04 550.839C174.254 536.923 194.371 505.786 197.415 497.925C200.98 488.712 204.202 444.717 209.346 440.469C214.489 436.221 217.435 489.266 215.156 500.626Z" fill="black"/>
<path opacity="0.1" d="M202.249 410.163C202.249 409.853 201.712 409.756 201.679 410.163C201.37 412.751 201.289 415.371 201.028 417.959C200.768 420.547 200.296 423.151 199.938 425.755C199.238 431.029 198.44 436.302 197.692 441.56C196.194 452.009 194.192 462.426 191.995 472.745C190.758 478.572 189.179 484.383 187.438 490.079C187.438 490.242 187.633 490.291 187.682 490.079C191.509 480.082 194.807 469.89 197.561 459.545C198.835 454.421 199.834 449.232 200.556 444.001C201.367 438.78 201.91 433.522 202.184 428.246C202.33 425.3 202.265 422.354 202.265 419.408C202.265 416.462 202.444 413.206 202.249 410.163Z" fill="black"/>
<path opacity="0.1" d="M266.28 529.566C266.28 531.73 266.069 533.879 265.906 536.076L263.839 537.329C263.839 537.167 263.839 536.988 263.839 536.825C263.692 533.57 263.611 530.461 263.513 527.271C263.155 516.105 262.765 504.956 261.755 493.823C261.495 491.04 261.414 488.256 261.153 485.473C260.806 482.649 260.638 479.806 260.649 476.961C260.594 474.177 260.328 471.402 259.851 468.66C259.509 465.828 259.086 463.012 258.728 460.196C258.737 460.171 258.754 460.15 258.776 460.134C258.798 460.119 258.824 460.111 258.85 460.111C258.877 460.111 258.903 460.119 258.924 460.134C258.946 460.15 258.963 460.171 258.972 460.196C259.688 463.305 260.258 466.43 260.86 469.555C261.153 471.183 261.414 472.68 261.723 474.242C262.032 475.805 262.488 477.302 262.781 478.849C264.789 490.023 265.932 501.336 266.199 512.687C266.378 518.254 266.459 523.901 266.28 529.566Z" fill="black"/>
<path opacity="0.1" d="M254.707 473.998C254.577 469.897 254.447 465.763 254.203 461.661C253.959 457.559 253.617 453.523 253.177 449.535C252.738 445.547 252.005 441.397 251.647 437.214C251.24 432.575 250.801 427.92 250.459 423.265C250.459 423.037 250.085 423.054 250.101 423.265C250.313 427.383 250.475 431.485 250.671 435.603C250.866 439.72 250.671 443.838 250.899 447.956C251.208 456.094 252.005 464.233 253.015 472.371C253.6 477.026 254.463 481.632 254.87 486.303C254.87 486.466 255.147 486.45 255.13 486.303C254.789 482.25 254.838 478.116 254.707 473.998Z" fill="black"/>
<path opacity="0.1" d="M187.275 502.01C184.573 506.893 181.741 511.776 178.876 516.658C176.321 520.972 173.814 525.317 170.852 529.37C167.89 533.423 164.911 537.134 161.77 540.894C159.556 543.531 157.327 546.167 154.999 548.69L152.948 548.104L154.999 545.614C160.728 538.713 165.986 531.454 171.422 524.325C174.205 520.679 177.07 517.114 179.674 513.322C182.278 509.529 184.72 505.753 187.096 501.928C187.107 501.905 187.126 501.886 187.151 501.877C187.175 501.868 187.202 501.869 187.226 501.88C187.25 501.89 187.268 501.91 187.278 501.935C187.287 501.959 187.286 501.986 187.275 502.01Z" fill="black"/>
<path opacity="0.1" d="M175.214 430.476C171.438 442.162 167.613 453.8 163.072 465.209C160.843 470.808 158.189 476.212 155.683 481.697C153.176 487.182 150.8 492.684 147.903 497.973C144.649 503.954 141.034 509.732 137.079 515.275C137.079 515.405 137.193 515.536 137.291 515.438C145.021 506.106 151.581 495.862 156.822 484.936C159.367 479.368 161.6 473.662 163.512 467.846C165.579 462.084 167.467 456.274 169.322 450.447C171.422 443.822 173.408 437.181 175.41 430.541C175.407 430.519 175.399 430.499 175.385 430.482C175.371 430.466 175.353 430.453 175.333 430.446C175.312 430.44 175.29 430.439 175.269 430.444C175.248 430.449 175.229 430.46 175.214 430.476Z" fill="black"/>
<path opacity="0.1" d="M245.056 307.02C243.77 308.322 242.321 309.461 240.987 310.698L239.082 312.505C238.366 313.156 237.601 313.644 236.852 314.247C234.134 316.444 231.335 318.527 228.584 320.757C223.198 325.089 217.211 328.614 210.81 331.223C196.634 336.773 181.09 335.487 166.62 332.085C158.124 330.083 149.839 327.202 141.473 324.663C141.359 324.663 141.278 324.842 141.473 324.891C148.765 328.146 156.122 330.93 163.723 333.371C171.136 335.913 178.842 337.5 186.656 338.091C194.37 338.605 202.11 337.61 209.443 335.162C216.128 332.783 222.412 329.403 228.08 325.135C231.368 322.723 234.415 319.998 237.178 316.997C238.61 315.451 239.978 313.84 241.394 312.293C242.81 310.747 244.063 309.038 245.463 307.41C245.544 307.117 245.251 306.825 245.056 307.02Z" fill="black"/>
<path d="M155.829 224.613C126.06 209.818 92.3517 188.382 90.5776 170.901C88.95 155.178 99.3831 128.436 110.516 99.2854C112.73 93.5074 156.773 113.071 153.811 118.996C147.952 130.666 131.578 156.008 131.317 163.577C131.203 166.832 157.929 194.046 172.936 212.715C191.149 235.534 167.695 230.554 155.829 224.613Z" fill="#EB9481"/>
<path d="M119.696 74.0734C114.357 82.4883 107.489 107.944 108.465 113.511C109.442 119.077 145.738 127.411 150.23 123.732C154.722 120.054 170.494 90.3172 169.387 80.2096C168.281 70.102 125.23 65.3493 119.696 74.0734Z" fill="#EB9481"/>
<path d="M193.981 67.0909C193.981 67.0909 207.002 79.2982 197.708 95.4931C197.708 95.4931 150.393 97.6416 147.528 98.1787C144.663 98.7158 92.1886 113.267 92.1886 113.267C92.1886 113.267 83.3831 101.564 89.6983 82.8301C89.6983 82.8301 144.077 84.1485 145.656 83.7741C147.235 83.3998 193.981 67.0909 193.981 67.0909Z" fill="#EBEBEB"/>
<path d="M92.1729 113.267C92.1729 113.267 101.467 95.607 89.6826 82.8301C89.6826 82.8301 82.0978 96.6812 92.1729 113.267Z" fill="#DBDBDB"/>
<path d="M147.528 98.1786C147.838 98.5367 147.984 98.1786 148.049 97.8531C148.116 97.5251 148.165 97.1936 148.196 96.8602C148.196 96.1766 148.196 95.493 148.196 94.8094C148.188 93.4388 148.107 92.0696 147.952 90.7078C147.805 89.3569 147.61 87.9897 147.349 86.655C147.228 85.9912 147.053 85.3381 146.828 84.7018C146.601 84.1485 146.291 83.3346 145.575 83.7741C145.673 83.6017 145.829 83.4692 146.015 83.3997C146.233 83.3634 146.457 83.4037 146.649 83.5137C146.995 83.7084 147.291 83.9816 147.512 84.3112C147.958 84.9128 148.315 85.5763 148.57 86.2807C149.077 87.6554 149.41 89.0879 149.563 90.545C149.728 91.9972 149.69 93.4655 149.449 94.9071C149.336 95.6344 149.15 96.3486 148.896 97.0393C148.767 97.394 148.598 97.7327 148.391 98.0484C148.282 98.2334 148.124 98.3853 147.935 98.4879C147.885 98.5236 147.826 98.5429 147.764 98.5429C147.703 98.5429 147.643 98.5236 147.593 98.4879C147.558 98.3883 147.536 98.2842 147.528 98.1786Z" fill="#1E376C"/>
<path d="M146.796 98.3415C147.138 98.6833 147.252 98.3415 147.3 97.9834C147.326 97.6421 147.326 97.2993 147.3 96.958C147.3 96.2744 147.3 95.5745 147.3 94.8909C147.196 93.515 147.016 92.1458 146.763 90.7893C146.519 89.4383 146.226 88.0711 145.884 86.7365C145.717 86.0719 145.505 85.4193 145.25 84.7833C145.132 84.4809 144.973 84.1962 144.778 83.937C144.73 83.8761 144.67 83.8269 144.601 83.793C144.532 83.7591 144.456 83.7415 144.379 83.7415C144.302 83.7415 144.226 83.7591 144.157 83.793C144.088 83.8269 144.027 83.8761 143.98 83.937C144.014 83.8407 144.07 83.7538 144.143 83.6831C144.217 83.6124 144.306 83.56 144.403 83.53C144.621 83.4999 144.844 83.5398 145.038 83.644C145.38 83.8569 145.682 84.1266 145.933 84.4415C146.386 85.0354 146.768 85.6799 147.072 86.3621C147.66 87.7083 148.091 89.1172 148.358 90.5614C148.632 92.0149 148.703 93.4993 148.57 94.9723C148.507 95.711 148.37 96.4416 148.163 97.1533C148.06 97.5201 147.918 97.8748 147.74 98.2113C147.636 98.3982 147.491 98.5595 147.317 98.6833C147.024 98.7647 146.828 98.488 146.796 98.3415Z" fill="#1E376C"/>
<path d="M146.226 98.4879C146.281 98.556 146.355 98.6069 146.438 98.6344C146.452 98.4774 146.452 98.3194 146.438 98.1624C146.438 97.8206 146.291 97.4951 146.21 97.1532L145.722 95.135C145.396 93.8003 145.119 92.4331 144.826 91.0822C144.533 89.7313 144.338 88.364 144.11 87.0131C143.996 86.3295 143.899 85.6459 143.752 84.9949C143.687 84.6729 143.594 84.357 143.475 84.0508C143.361 83.7579 143.134 83.5951 142.808 83.8881C142.839 83.7891 142.896 83.7005 142.974 83.6317C143.051 83.5628 143.146 83.5164 143.248 83.4974C143.473 83.5159 143.683 83.6209 143.834 83.7904C144.09 84.0643 144.309 84.3708 144.485 84.7019C144.817 85.341 145.1 86.0049 145.331 86.6876C145.787 88.0229 146.152 89.3879 146.421 90.7729C146.709 92.1522 146.9 93.55 146.991 94.9559C147.032 95.6661 147.032 96.378 146.991 97.0881C146.991 97.4462 146.991 97.8043 146.877 98.1624C146.837 98.3527 146.777 98.5382 146.698 98.7158C146.674 98.7789 146.628 98.8309 146.568 98.8623C146.538 98.8875 146.501 98.9013 146.462 98.9013C146.423 98.9013 146.386 98.8875 146.356 98.8623C146.286 98.7488 146.241 98.6209 146.226 98.4879Z" fill="#1E376C"/>
<path d="M167.971 96.1114C163.251 98.4552 163.186 91.5378 163.186 91.5378C163.186 91.5378 160.875 101.515 155.048 102.052C149.221 102.589 149.66 94.2071 149.677 93.6049C149.547 94.1257 147.186 103.257 141.294 103.192C135.402 103.127 136.818 94.7768 136.932 94.2234C136.656 94.6954 132.912 100.734 128.436 99.6434C120.754 97.8204 129.917 82.1626 128.046 76.0428C128.046 76.0428 119.582 74.6918 119.256 74.6918C119.256 74.6918 125.409 62.9566 133.791 60.8895C135.005 60.57 136.291 60.6751 137.437 61.1872C138.583 61.6994 139.519 62.5879 140.09 63.7053C140.09 63.7053 142.32 58.5946 146.926 58.4318C149.319 58.4318 151.516 62.1591 151.516 62.1591C152.068 61.0188 152.924 60.0527 153.989 59.3665C155.054 58.6803 156.288 58.3006 157.554 58.269C160.81 58.3993 162.551 62.1591 162.551 62.1591C162.551 62.1591 166.197 59.1154 169.518 60.3361C176.256 62.7938 178.128 91.1472 167.971 96.1114Z" fill="#EB9481"/>
<path d="M151.565 62.0291C151.565 61.9151 151.727 61.8826 151.76 62.0291C154.994 72.5352 154.359 83.8523 149.97 93.9306C149.807 94.2724 149.319 94.4189 149.465 93.9306C152.086 86.9969 152.932 71.0787 151.565 62.0291Z" fill="#263238"/>
<path d="M136.363 94.8258C140.562 84.9298 141.246 74.692 140.253 64.0798C140.253 63.9496 140.448 63.9496 140.481 64.0798C142.336 69.1418 142.206 75.9615 141.653 81.2513C141.254 86.1785 139.57 90.9151 136.77 94.9885C136.607 95.135 136.282 95.0374 136.363 94.8258Z" fill="#263238"/>
<path d="M163.186 91.5378C162.568 93.4132 161.778 95.2276 160.826 96.9579C159.972 98.6686 158.681 100.123 157.083 101.173C156.322 101.619 155.422 101.764 154.56 101.58C153.695 101.382 152.894 100.968 152.232 100.376C151.633 99.7219 151.179 98.9491 150.898 98.1078C150.618 97.2665 150.518 96.3755 150.605 95.493L150.784 91.1635L149.156 95.1675C148.439 96.9481 147.433 98.598 146.178 100.05C145.633 100.757 144.946 101.342 144.161 101.765C143.376 102.188 142.51 102.442 141.62 102.508C140.793 102.561 139.973 102.328 139.297 101.848C138.622 101.368 138.132 100.67 137.909 99.8713C137.437 98.0735 137.437 96.184 137.909 94.3862L139.016 89.3731L136.33 93.7189C135.59 94.914 134.699 96.0082 133.677 96.9741C132.736 97.9419 131.53 98.61 130.21 98.8947C129.603 99.0144 128.975 98.9586 128.398 98.7337C127.822 98.5089 127.321 98.1243 126.955 97.6252C126.32 96.4085 126.038 95.0385 126.141 93.67C126.343 90.7072 126.767 87.7637 127.411 84.8646C127.704 83.3997 127.981 81.9186 128.192 80.4211C128.51 78.9351 128.51 77.3987 128.192 75.9126C128.356 77.3967 128.24 78.8983 127.85 80.3398C127.525 81.8046 127.134 83.2532 126.744 84.7018C125.876 87.6133 125.282 90.5994 124.97 93.6212C124.784 95.2576 125.072 96.9129 125.8 98.3902C126.287 99.1499 126.985 99.7505 127.81 100.118C128.634 100.485 129.548 100.603 130.438 100.457C132.082 100.148 133.595 99.3546 134.784 98.1786C135.944 97.0967 136.961 95.8715 137.812 94.5327L136.184 93.8816C135.608 96.0136 135.608 98.2602 136.184 100.392C136.526 101.559 137.255 102.575 138.251 103.273C139.263 103.913 140.44 104.241 141.636 104.217C142.766 104.134 143.865 103.813 144.861 103.274C145.857 102.736 146.727 101.992 147.415 101.092C148.798 99.4763 149.899 97.6383 150.67 95.6557L149.189 95.3302C149.138 96.4298 149.329 97.5272 149.748 98.5452C150.167 99.5631 150.804 100.477 151.614 101.222C152.468 101.908 153.481 102.367 154.56 102.557C155.69 102.744 156.85 102.506 157.815 101.89C159.499 100.648 160.797 98.9554 161.559 97.0067C162.294 95.2469 162.84 93.4135 163.186 91.5378Z" fill="#263238"/>
<path d="M153.811 119.143C153.811 119.143 188.691 95.2326 172.659 86.2644C167.906 83.5625 145.135 78.1262 143.963 82.7487C142.466 88.6407 151.548 92.6447 157.652 94.2561C157.652 94.2561 144.631 100.767 146.437 111.118C146.814 113.002 147.701 114.747 149.001 116.162C150.301 117.577 151.965 118.608 153.811 119.143Z" fill="#EB9481"/>
<path d="M173.945 87.0131C172.206 85.7315 170.286 84.7166 168.248 84.002C166.231 83.2301 164.165 82.5939 162.063 82.0977C157.862 81.0377 153.576 80.346 149.254 80.0306C148.109 79.953 146.958 80.0352 145.836 80.2748C145.189 80.4267 144.579 80.7092 144.045 81.1049C143.765 81.3354 143.519 81.6038 143.313 81.9024C143.124 82.2111 142.982 82.5455 142.89 82.8952C142.592 84.1576 142.753 85.4849 143.345 86.6388C143.925 87.6866 144.679 88.6278 145.575 89.422C147.27 90.8839 149.202 92.0454 151.288 92.8563C153.309 93.6881 155.387 94.3735 157.506 94.9071L157.376 93.5074C155.917 94.2945 154.538 95.2212 153.258 96.2744C151.974 97.3001 150.806 98.4625 149.775 99.7412C148.729 101.014 147.889 102.441 147.284 103.973C146.658 105.479 146.337 107.095 146.34 108.726C146.544 107.141 147.023 105.604 147.756 104.185C148.489 102.791 149.409 101.504 150.491 100.36C151.556 99.2044 152.734 98.1576 154.006 97.2347C155.268 96.3168 156.614 95.5211 158.027 94.8583L159.768 94.0445L157.896 93.4586C155.877 92.8719 153.898 92.1542 151.972 91.3101C150.081 90.505 148.328 89.4064 146.78 88.0548C146.051 87.5088 145.474 86.7855 145.104 85.9537C144.733 85.1218 144.582 84.209 144.664 83.3022C144.924 81.8698 147.268 81.6745 149.27 81.6745C151.272 81.6745 153.453 81.9675 155.569 82.2116C157.685 82.4558 159.784 82.7488 161.868 83.1394C166.07 83.7987 170.144 85.1055 173.945 87.0131Z" fill="#263238"/>
<path d="M150.897 125.051C150.897 125.051 132.245 160.663 133.758 164.488C136.265 170.836 167.646 204.154 175.263 214.44C182.88 224.727 187.633 237.634 158.596 231.595C137.828 227.25 90.317 199.368 82.7973 181.351C77.6052 168.899 79.0375 118.296 79.0375 118.296L150.897 125.051Z" fill="#1E376C"/>
<path d="M83.8068 131.236C110.467 132.164 137.519 135.728 142.402 136.119C142.629 136.119 142.499 136.509 142.271 136.493C137.73 136.102 105.373 134.475 83.6766 131.61C83.4162 131.61 83.5464 131.236 83.8068 131.236Z" fill="#263238"/>
<path d="M187.422 196.569C176.028 196.569 159.264 215.401 159.98 220.414C161.038 227.575 171.796 280.099 173.278 294.129C174.759 308.159 145.608 375.51 145.608 375.51L164.765 369.928L172.073 386.985C172.073 386.985 197.708 328.081 199.743 302.739C201.777 277.397 173.701 213.073 174.97 209.216C176.24 205.358 183.971 200.687 187.845 200.54C191.719 200.394 199.238 206.644 203.926 213.252C208.613 219.86 230.961 266.85 234.851 284.005C238.741 301.16 230.212 370.969 230.212 370.969L245.398 359.657L260.828 373.313C260.828 373.313 264.506 306.222 259.037 278.146C255.571 260.242 234.949 228.177 215.694 210.062C204.675 199.71 194.242 196.553 187.422 196.569Z" fill="#455A64"/>
<path d="M196.585 219.437C192.419 220.446 182.148 214.31 177.444 208.353C177.135 207.946 177.021 203.079 176.598 197.187C176.338 193.607 175.963 189.635 175.345 186.038L198.88 187.666C198.352 192.391 198.402 197.162 199.027 201.875C199.121 202.368 199.257 202.853 199.434 203.324C199.434 203.324 199.434 203.47 199.434 203.568C200.443 206.335 203.096 217.858 196.585 219.437Z" fill="#EB9481"/>
<path d="M199.433 203.356C199.438 203.437 199.438 203.519 199.433 203.6C198.677 203.83 197.904 204.004 197.122 204.121C184.231 205.993 178.437 190.872 176.972 186.217L198.799 187.763C198.271 192.488 198.32 197.26 198.945 201.973C199.072 202.446 199.235 202.908 199.433 203.356Z" fill="#263238"/>
<path d="M191.409 140.334C191.409 140.334 199.987 141.734 203.291 149.351C206.595 156.969 206.741 165.725 206.139 166.295C205.537 166.865 191.409 140.334 191.409 140.334Z" fill="#263238"/>
<path d="M164.912 158.987C164.57 167.467 174.678 189.098 181.611 192.679C191.637 197.904 205.082 195.12 208.776 183.743C212.308 172.708 198.669 144.859 191.149 141.815C180.228 137.437 165.416 146.487 164.912 158.987Z" fill="#EB9481"/>
<path d="M183.89 163.609C184.459 163.17 184.915 162.665 185.517 162.161C186.137 161.727 186.599 161.105 186.836 160.387C186.861 160.146 186.809 159.904 186.686 159.695C186.562 159.487 186.375 159.324 186.152 159.231C185.678 159.121 185.184 159.14 184.72 159.286C184.256 159.432 183.84 159.7 183.515 160.061C182.743 160.682 182.231 161.571 182.083 162.551C182.069 162.768 182.116 162.984 182.218 163.176C182.32 163.368 182.473 163.527 182.66 163.637C182.848 163.747 183.062 163.802 183.279 163.797C183.496 163.792 183.707 163.727 183.89 163.609Z" fill="#263238"/>
<path d="M198.424 157.327C197.731 157.476 197.03 157.585 196.325 157.652C195.598 157.87 194.82 157.842 194.111 157.571C193.902 157.446 193.742 157.254 193.656 157.027C193.57 156.799 193.564 156.549 193.639 156.318C193.847 155.88 194.167 155.506 194.568 155.235C194.969 154.963 195.435 154.803 195.918 154.771C196.889 154.561 197.904 154.717 198.766 155.211C198.956 155.335 199.107 155.511 199.199 155.719C199.29 155.926 199.32 156.156 199.284 156.38C199.248 156.604 199.147 156.813 198.995 156.981C198.842 157.149 198.644 157.269 198.424 157.327Z" fill="#263238"/>
<path d="M192.304 180.325C192.791 180.624 193.368 180.74 193.932 180.651C194.473 180.401 194.955 180.041 195.348 179.593C195.348 179.593 195.462 179.593 195.446 179.593C195.363 179.977 195.176 180.332 194.907 180.619C194.637 180.906 194.295 181.114 193.916 181.22C193.581 181.285 193.234 181.243 192.925 181.1C192.615 180.956 192.358 180.72 192.19 180.423C192.19 180.408 192.193 180.394 192.199 180.381C192.205 180.368 192.214 180.357 192.225 180.347C192.235 180.338 192.248 180.331 192.262 180.327C192.276 180.323 192.29 180.323 192.304 180.325Z" fill="#263238"/>
<path d="M191.963 175.231C192.588 175.654 193.293 175.944 194.036 176.081C194.778 176.218 195.541 176.2 196.276 176.028C196.926 175.89 197.552 175.654 198.131 175.328L198.457 175.149L198.75 174.954C198.822 174.905 198.877 174.835 198.906 174.753C198.936 174.671 198.938 174.582 198.913 174.498C198.919 174.45 198.919 174.4 198.913 174.352V174.221C198.457 173.066 197.594 171.389 197.594 171.389C198.099 171.389 200.622 171.389 200.345 170.885C198.006 165.814 195.159 160.994 191.849 156.497C191.838 156.48 191.824 156.465 191.808 156.453C191.791 156.441 191.773 156.433 191.753 156.428C191.733 156.424 191.713 156.423 191.693 156.427C191.673 156.43 191.654 156.437 191.637 156.448C191.62 156.458 191.605 156.472 191.593 156.489C191.582 156.505 191.573 156.524 191.569 156.543C191.564 156.563 191.564 156.583 191.567 156.603C191.57 156.623 191.578 156.642 191.588 156.659C193.72 161.347 196.666 165.644 198.88 170.315C197.975 170.295 197.071 170.399 196.194 170.624C196.064 170.738 197.903 173.88 198.066 174.384C197.177 174.881 196.197 175.192 195.184 175.298C194.171 175.405 193.147 175.304 192.174 175.003C191.898 175.003 191.816 175.149 191.963 175.231Z" fill="#263238"/>
<path d="M197.204 175.052C196.92 176.132 196.359 177.119 195.576 177.916C195.135 178.355 194.564 178.641 193.948 178.73C192.63 178.925 192.142 177.851 191.963 176.826C191.866 176.289 191.839 175.742 191.881 175.198C193.624 175.729 195.493 175.678 197.204 175.052Z" fill="#263238"/>
<path d="M195.608 177.916C195.167 178.355 194.597 178.641 193.981 178.73C192.662 178.925 192.174 177.851 191.995 176.826C192.632 176.571 193.336 176.541 193.993 176.739C194.649 176.937 195.219 177.352 195.608 177.916Z" fill="#FF9BBC"/>
<path d="M185.647 167.206C185.574 166.775 185.613 166.332 185.761 165.921C185.855 165.703 185.991 165.506 186.161 165.341C186.332 165.176 186.533 165.047 186.754 164.96C186.987 164.886 187.234 164.864 187.476 164.898C187.719 164.932 187.95 165.02 188.154 165.156C188.499 165.41 188.782 165.738 188.984 166.116C189.098 166.342 189.196 166.576 189.277 166.816C189.47 167.307 189.537 167.838 189.472 168.362C189.37 167.993 189.222 167.637 189.033 167.304C188.877 166.999 188.692 166.71 188.479 166.441C188.056 165.872 187.503 165.481 187.015 165.693C186.526 165.904 186.233 166.441 186.25 167.158C186.291 167.888 186.4 168.612 186.575 169.322C186.107 168.698 185.79 167.974 185.647 167.206Z" fill="#263238"/>
<path d="M199.922 160.631C199.675 160.274 199.33 159.997 198.929 159.833C198.711 159.737 198.475 159.687 198.237 159.687C197.999 159.687 197.763 159.737 197.545 159.833C197.33 159.949 197.144 160.111 197 160.308C196.857 160.506 196.759 160.733 196.715 160.973C196.669 161.399 196.708 161.831 196.829 162.242C196.829 162.486 197.024 162.714 197.122 162.942C197.355 163.415 197.695 163.827 198.115 164.147C197.923 163.818 197.77 163.469 197.659 163.105C197.547 162.777 197.465 162.439 197.415 162.096C197.301 161.412 197.415 160.728 197.903 160.468C198.186 160.348 198.501 160.327 198.797 160.41C199.093 160.493 199.352 160.674 199.531 160.924C200.027 161.463 200.474 162.046 200.866 162.665C200.713 161.923 200.39 161.227 199.922 160.631Z" fill="#263238"/>
<path d="M172.268 178.014C175.084 177.607 174.384 168.867 173.896 165.644C173.408 162.812 170.445 154.495 170.299 153.892C170.152 153.29 184.345 155.813 189.684 151.06C195.023 146.308 196.504 138.772 195.348 136.135C194.193 133.498 183.304 130.585 176.5 133.466C169.697 136.347 164.716 149.042 164.716 149.042C165.215 147.288 165.574 145.498 165.79 143.687C165.546 143.427 162.063 147.203 162.73 150.637C162.73 150.637 161.754 146.389 161.396 146.47C161.038 146.552 159.264 151.353 161.2 153.567C161.2 153.567 158.938 158.759 160.322 162.6C161.705 166.441 168.964 178.502 172.268 178.014Z" fill="#263238"/>
<path d="M193.395 147.659C192.027 149.526 190.38 151.173 188.512 152.541C186.341 153.807 183.894 154.522 181.383 154.625C178.861 154.806 176.327 154.575 173.88 153.941C171.731 153.404 169.615 152.525 167.369 152.183C166.832 152.102 166.637 152.916 167.06 153.176C171.673 155.748 176.991 156.769 182.229 156.09C184.663 155.777 186.973 154.837 188.934 153.362C190.894 151.887 192.437 149.927 193.411 147.675L193.395 147.659Z" fill="#263238"/>
<path d="M174.628 176.207C174.628 176.207 167.434 170.364 164.651 173.131C161.868 175.898 168.688 185.387 173.001 185.729C173.549 185.811 174.108 185.781 174.644 185.642C175.18 185.502 175.682 185.255 176.12 184.916C176.558 184.576 176.923 184.152 177.193 183.668C177.462 183.184 177.631 182.65 177.688 182.099L174.628 176.207Z" fill="#EB9481"/>
<path d="M166.734 175.784C166.734 175.784 166.734 175.882 166.734 175.898C169.778 176.223 171.927 178.339 173.684 180.683C173.448 180.454 173.164 180.279 172.854 180.169C172.543 180.06 172.212 180.019 171.884 180.05C171.556 180.081 171.239 180.183 170.954 180.348C170.669 180.514 170.423 180.739 170.234 181.009C170.234 181.009 170.234 181.171 170.364 181.139C170.79 180.838 171.299 180.676 171.821 180.676C172.342 180.676 172.851 180.838 173.277 181.139C173.97 181.677 174.608 182.282 175.182 182.946C175.377 183.157 175.768 182.946 175.605 182.636C174.596 179.186 170.51 175.084 166.734 175.784Z" fill="#263238"/>
<path d="M199.629 202.917L194.599 216.996L176.696 200.117L172.041 205.944C172.041 205.944 189.944 233.174 190.026 231.905L195.283 219.73L203.861 227.738L202.38 206.872L199.629 202.917Z" fill="#EBEBEB"/>
<path d="M203.698 217.386C203.34 213.936 203.08 210.469 202.559 207.051C202.559 206.937 202.347 206.888 202.315 207.051C201.761 210.404 203.194 223.539 203.307 226.696C202.949 226.338 195.365 219.665 195.3 219.779C194.144 221.732 190.27 230.603 190.026 231.4C187.178 227.071 176.338 211.364 173.017 207.295C173 207.269 172.973 207.251 172.943 207.245C172.912 207.239 172.88 207.245 172.854 207.262C172.829 207.28 172.811 207.306 172.805 207.337C172.798 207.368 172.805 207.399 172.822 207.425C175.361 212.015 189.717 233.174 189.928 233.109C191.98 228.916 193.811 224.619 195.413 220.235C196.716 221.699 204.382 229.268 204.398 228.763C204.362 224.961 204.129 221.164 203.698 217.386Z" fill="#263238"/>
<path d="M207.571 31.2993C206.406 31.2595 205.26 30.9903 204.199 30.5072C203.137 30.024 202.182 29.3363 201.386 28.4835C200.242 27.4158 199.354 26.1023 198.79 24.6419C198.226 23.1816 198.001 21.6124 198.131 20.0524L199.336 20.264C199.23 21.6383 199.437 23.0188 199.941 24.3016C200.446 25.5843 201.235 26.7359 202.249 27.6697C203.034 28.5385 204.015 29.2073 205.111 29.6206C206.206 30.0339 207.385 30.1798 208.548 30.046C210.989 29.6228 213.203 27.3441 215.547 24.9515C218.363 22.0706 221.276 19.0758 225.231 18.441C232.848 17.0738 242.891 27.3116 243.314 27.751L242.435 28.5974C242.338 28.4998 232.425 18.3596 225.443 19.6455C221.878 20.2802 219.111 23.1123 216.426 25.863C213.74 28.6137 211.543 30.7459 208.76 31.3156C208.364 31.3424 207.966 31.337 207.571 31.2993Z" fill="#263238"/>
<path d="M199.287 21.0127L198.767 19.9059C199.871 19.3247 200.819 18.4876 201.534 17.4645C202.564 15.3938 203.345 13.2084 203.861 10.954L205.049 11.247C204.493 13.6185 203.651 15.914 202.543 18.083C201.724 19.32 200.604 20.3282 199.287 21.0127Z" fill="#1E376C"/>
<path d="M197.871 20.4756C197.029 19.3099 196.32 18.0543 195.755 16.732C195.12 15.1044 196.146 9.86341 196.26 9.27747L197.464 9.52161C196.919 11.74 196.726 14.0305 196.895 16.3088C197.432 17.5283 198.091 18.6899 198.864 19.7757L197.871 20.4756Z" fill="#1E376C"/>
<path d="M199.287 20.6708L198.245 20.0198C199.272 18.4765 200.155 16.8419 200.882 15.1369L202.51 8.85425L203.698 9.14722C203.698 9.14722 202.461 14.0301 202.07 15.4462C201.311 17.2723 200.379 19.0218 199.287 20.6708Z" fill="#1E376C"/>
<path d="M197.887 20.3128C197.696 18.0598 197.696 15.7948 197.887 13.5418C198.213 12.3374 198.668 8.65894 198.668 8.56128L199.889 8.70777C199.889 8.85425 199.417 12.5652 199.075 13.8511C198.892 15.9685 198.892 18.0977 199.075 20.2151L197.887 20.3128Z" fill="#1E376C"/>
<path d="M270.545 34.0176L311.089 8.88698L261.642 5.28992L224.011 35.694L270.545 34.0176Z" fill="#1E376C"/>
<path opacity="0.1" d="M270.545 34.0176L311.089 8.88698L261.642 5.28992L224.011 35.694L270.545 34.0176Z" fill="black"/>
<path d="M294.438 30.925L291.85 17.1878C291.85 17.1878 276.453 15.1695 266.004 18.4085C255.554 21.6475 244.389 30.7785 244.389 30.7785L249.744 44.8087C249.744 44.8087 264.002 37.1751 272.53 34.7336C279.735 32.9536 287.056 31.681 294.438 30.925Z" fill="#1E376C"/>
</svg>
